<?xml version="1.0" encoding="utf-8"?>
<!-- Generator: Adobe Illustrator 23.0.1, SVG Export Plug-In . SVG Version: 6.00 Build 0)  -->
<svg version="1.1" id="Livello_1" xmlns="http://www.w3.org/2000/svg" xmlns:xlink="http://www.w3.org/1999/xlink" x="0px" y="0px"
	 viewBox="0 0 1121 851.8" style="enable-background:new 0 0 1121 851.8;" xml:space="preserve">
<style type="text/css">
	.st0{fill:#6EE0FF;}
	.st1{fill:#D7F7FF;}
	.st2{fill:#C2F4FF;}
	.st3{fill:#FF61BB;}
	.st4{fill:#6150E2;}
	.st5{opacity:0.5;}
	.st6{opacity:0.5;fill:#FFFFFF;}
	.st7{fill:#FFD2F2;}
	.st8{fill:#24DDDD;}
	.st9{fill:#3DEDF7;}
	.st10{fill:#0DD3D3;}
	.st11{fill:#FF9CDE;}
	.st12{opacity:0.5;fill:#FF9CDE;}
	.st13{fill:#003ABC;}
	.st14{fill:#FFFFFF;}
	.st15{fill:#FFAF98;}
	.st16{fill:#D7CCFF;}
	.st17{fill:#886EE5;}
	.st18{opacity:0.5;fill:#FFAF98;}
	.st19{fill:#0080F7;}
	.st20{fill:#32D2FB;}
	.st21{fill:#2F7BEA;}
	.st22{fill:#A184F3;}
	.st23{fill:#003189;}
	.st24{opacity:0.5;fill:#003ABC;}
	.st25{fill:#DB3595;}
	.st26{opacity:0.5;fill:#FF61BB;}
	.st27{opacity:0.5;fill:#A184F3;}
	.st28{fill:#EA47AC;}
	.st29{fill:#0086F7;}
	.st30{fill:#009DF7;}
	.st31{fill:#BC2E86;}
	.st32{opacity:0.5;fill:#009DF7;}
	.st33{fill:#FFC5E9;}
	.st34{fill:#3D239B;}
	.st35{fill:#E3CFB7;}
	.st36{fill:#7F65E0;}
	.st37{opacity:0.5;fill:#7F65E0;}
	.st38{opacity:0.5;fill:#3D239B;}
	.st39{fill:#EA3DA8;}
	.st40{fill:#0083F7;}
	.st41{opacity:0.5;fill:#0083F7;}
	.st42{fill:#FF7BCD;}
	.st43{fill:#003187;}
	.st44{opacity:0.5;fill:#003187;}
</style>
<g>
	<g>
		<path class="st0" d="M822.2,110.2c-18.8,0-34-12.2-34-27.3c0-15,15.3-27.3,34-27.3s34,12.2,34,27.3
			C856.2,98,841,110.2,822.2,110.2z M822.2,65.5c-12,0-21.8,7.8-21.8,17.4c0,9.6,9.8,17.4,21.8,17.4c12,0,21.8-7.8,21.8-17.4
			C844,73.3,834.2,65.5,822.2,65.5z"/>
	</g>
	<path class="st1" d="M948.5,467.8c-3,2.6-5.7,5.2-8.1,8c-9.8,11.2-15.7,28.8-8.5,41.9c10,18.2,37.4,16.2,56.5,9.5
		c27-9.5,48.6-31.5,42.1-55.9C1020.4,433.5,972.1,447.5,948.5,467.8z"/>
	<path class="st2" d="M975,712.8c46.5-41.8,30.1-112.4-20.7-151c-17-12.9-38.2-24.5-44-42.7c-3.4-10.5-0.8-21.7,3.7-32
		c13.5-30.6,43.2-54.4,67.9-80.1c24.6-25.7,45.6-57.8,36.9-89.5c-4.4-16-16.1-30.3-29.8-42.4c-23.6-20.9-55.4-37.2-90.5-39.8
		c-26.3-1.9-53,3.9-79.1,0.9c-43.8-5.1-79.8-38.1-80.4-73.5c-0.3-16.3,6-32.2,7.3-48.4c2.7-32.6-16.1-65.9-48.4-85.9
		C665.6,8.5,620.7,2.4,582,12.9c-36.4,9.8-65,32.4-90.2,55.6c-25.2,23.2-48.8,48.3-80.3,65.8c-31.6,17.5-73.9,26.3-108.8,13.5
		c-17.3-6.4-31.6-17.5-49.5-22.7c-24.4-7.1-52.7-1.7-73.9,10.3c-21.2,12-36.2,30-47.3,48.9c-32.9,55.9-34,123.3-2.9,179.9
		c16.5,30.1,42.3,60.1,36.4,92.6c-9.7,53.1-99,83.2-97.2,136.8c0.4,13.7,7.2,26.7,15.1,38.8c18.5,28.4,43.9,53.8,74.5,74.3
		L975,712.8z"/>
	<g>
		<path class="st3" d="M287.8,452.7c-3.1-1.8-4.9-3.3-7.2-5c-2-1.7-4.1-3.3-5.9-5.1c-3.8-3.4-7.2-7-10.7-10.6
			c-6.5-7.4-12.5-14.9-17.8-22.7c-2.7-3.9-5.4-7.8-7.7-11.8c-2.4-4-5-7.9-7.1-12l-6.6-12.2l-5.9-12.3c-2-4.1-3.8-8.2-5.5-12.4
			l-5.2-12.5c-3.1-8.4-6.2-16.8-9.1-25.3c-2.6-8.5-5.4-17-7.9-25.5l-6.8-25.7c-0.2-0.9,0.5-1.8,1.6-2c1.1-0.2,2.2,0.4,2.5,1.2l0,0.1
			l8.1,25.3c2.9,8.4,6.1,16.7,9.1,25c3.3,8.3,6.8,16.5,10.3,24.7l5.8,12.2c1.9,4.1,3.9,8.1,6.1,12l6.4,11.9l7,11.7
			c2.2,3.9,5,7.6,7.5,11.4c2.5,3.8,5.2,7.5,8,11.1c5.4,7.4,11.6,14.3,18,21c3.4,3.2,6.7,6.5,10.3,9.4c1.7,1.6,3.7,2.9,5.5,4.3
			c1.8,1.3,4,2.7,5.3,3.5l0.3,0.2c3.5,1.9,4.4,5.6,2.1,8.4c-2.3,2.8-7,3.5-10.5,1.7C287.9,452.8,287.8,452.8,287.8,452.7z"/>
		<path class="st3" d="M197.8,304.8c0.4-4.3,1.5-8.4,2.9-12.5c1.5-4.1,3.3-8.1,5.7-12c2.3-3.9,5-7.7,8.2-11.3
			c3.1-3.6,6.7-7,10.5-10.3c3.5-3,9.4-3.2,13.1-0.4c3.8,2.8,4,7.5,0.5,10.5c-0.5,0.4-1,0.8-1.6,1.1l-0.2,0.1
			c-3.8,2.1-7.6,4.2-11,6.8c-3.5,2.5-6.7,5.3-9.8,8.2c-3,3-5.7,6.2-8.1,9.6c-2.4,3.4-4.5,7-6,10.6l-0.1,0.1
			c-0.4,0.9-1.6,1.4-2.7,1.1C198.3,306.3,197.7,305.6,197.8,304.8z"/>
		<path class="st3" d="M213.3,345.3c0.7-6.3,2.3-12.2,4.5-18.2c2.2-5.9,4.9-11.8,8.2-17.5c3.4-5.6,7-11.2,11.5-16.5
			c4.3-5.4,9.2-10.4,14.4-15.3c4.2-4,11.7-4.5,16.7-1.1c5,3.4,5.6,9.4,1.4,13.4c-0.5,0.5-1.1,1-1.8,1.4l-0.3,0.2
			c-5.5,3.4-11,6.9-15.9,10.9c-5.1,3.9-9.7,8.2-14.1,12.8c-4.4,4.5-8.2,9.4-11.7,14.5c-3.5,5.1-6.6,10.5-8.7,15.9l0,0.1
			c-0.3,0.9-1.5,1.4-2.7,1.1C213.8,346.8,213.2,346.1,213.3,345.3z"/>
		<path class="st3" d="M236,386c0.3-7.1,1.7-14,4-20.9c2.3-6.9,5.6-13.6,9.8-20c2-3.3,4.5-6.3,7-9.4c2.7-2.9,5.3-6,8.5-8.7
			c6-5.7,13.2-10.4,20.8-14.9c4.7-2.8,11.4-2,14.9,1.8c3.5,3.8,2.5,9.1-2.2,11.9c-0.5,0.3-1,0.5-1.5,0.7l-0.6,0.2
			c-6.9,2.8-13.8,5.8-19.9,9.9c-3.2,1.9-6,4.2-8.9,6.4c-2.7,2.4-5.5,4.7-7.9,7.3c-5,5.1-9.3,10.8-12.8,16.8c-3.5,6-6.4,12.5-8,19
			l0,0.1c-0.2,0.7-1,1.2-1.9,1C236.5,387.2,236,386.6,236,386z"/>
		<path class="st3" d="M186.9,265c-3.5-6.7-6.8-13.4-9.7-20.3c-1.5-3.5-2.9-7-4.1-10.6c-1.2-3.6-2.4-7.3-3-11.5l0-0.2
			c-0.5-3.9,2.9-7.4,7.8-7.8c4.8-0.4,9.2,2.4,9.8,6.2c0.1,0.6,0.1,1.2,0,1.8c-0.5,2.9-0.6,6.4-0.5,9.8c0.1,3.4,0.4,7,0.7,10.5
			c0.7,7,1.8,14.2,3.2,21.2l0,0c0.2,0.9-0.6,1.8-1.8,1.9C188.2,266.1,187.2,265.7,186.9,265z"/>
		<path class="st3" d="M260.4,423.2c-1.9-6.4-1.1-12.6,0.9-18.8c2.1-6.2,5.9-11.9,10.6-17.1c4.6-5.3,10.4-9.7,16.3-14
			c3.1-2,6.2-3.9,9.4-5.8l9.9-5.2c5.9-3.1,13.9-1.8,17.8,3c3.9,4.8,2.2,11.1-3.7,14.2c-0.9,0.4-1.7,0.8-2.7,1.1l-0.7,0.2l-9.4,2.7
			l-9.1,3.2c-5.7,2.5-11.6,5.1-16.4,8.6c-4.9,3.4-9.3,7.4-12.5,12c-3.2,4.5-5.4,10-5.4,15.1l0,0.3c0,1.1-1.1,2-2.5,1.9
			C261.6,424.7,260.7,424.1,260.4,423.2z"/>
		<path class="st3" d="M192.1,287.6c-3.9-1.9-8.2-3.4-12.6-4.6c-4.4-1.2-8.8-2.2-13.3-2.8c-4.5-0.6-9-1-13.4-1
			c-4.4-0.1-8.9,0.3-13.2,0.7l-0.2,0c-5.1,0.5-9.8-2.4-10.4-6.5c-0.6-4.1,3-7.8,8.1-8.3c0.7-0.1,1.5-0.1,2.3,0
			c5.3,0.5,10.5,1.1,15.6,2.3c5.1,1,10,2.5,14.7,4.1c4.7,1.7,9.2,3.7,13.4,5.9c4.2,2.3,8.2,4.7,11.8,7.6c0.8,0.7,0.8,1.7,0,2.4
			c-0.7,0.6-1.8,0.6-2.6,0.3L192.1,287.6z"/>
		<path class="st3" d="M209.5,329.2c-6.3-2.1-13.1-3.6-19.8-4.7c-6.8-1.1-13.6-1.8-20.4-2c-6.8-0.2-13.6-0.2-20.2,0.4
			c-6.7,0.5-13.2,1.5-19.7,2.6l-0.2,0c-6.4,1.1-12.7-2.1-14.2-7.3c-1.4-5.1,2.6-10.2,9-11.4c0.9-0.2,1.8-0.2,2.7-0.2
			c7.7,0,15.3,0.3,22.8,1.1c7.5,0.7,14.9,2.1,22.1,3.6c7.2,1.6,14.2,3.7,20.9,6.1c6.7,2.5,13.1,5.2,19.2,8.7c1,0.5,1.2,1.6,0.5,2.4
			c-0.6,0.7-1.6,0.9-2.5,0.6L209.5,329.2z"/>
		<path class="st3" d="M227.3,369.4c-6.4-2.3-13.3-3.9-20.1-4.9c-6.9-1-13.8-1.4-20.5-1.2c-6.7,0.2-13.3,1-19.6,2.5
			c-6.3,1.3-12.1,3.6-17.6,6l-0.4,0.2c-6.3,2.6-14,0.7-17.3-4.3c-3.3-5-0.9-11.2,5.4-13.9c0.9-0.4,1.9-0.7,2.9-0.9
			c8.1-1.6,16.1-2.9,24.3-3c8.1-0.3,16.1,0.4,23.8,1.7c7.7,1.3,15.1,3.2,22,5.8c6.9,2.6,13.4,5.6,19.4,9.4c0.8,0.5,1,1.5,0.3,2.2
			c-0.6,0.6-1.5,0.7-2.3,0.5L227.3,369.4z"/>
		<path class="st3" d="M247.4,406.1c-5-2.5-11.4-3.8-17.3-4.1c-6.1-0.3-12.1,0.5-17.8,1.9c-5.8,1.3-11.2,3.6-16.5,5.9l-7.6,4
			l-7.3,4.5l-0.5,0.3c-4.8,3-11.7,2.3-15.5-1.5c-3.7-3.9-2.9-9.4,1.9-12.4c0.6-0.4,1.4-0.8,2.1-1l9.7-3.7c3.4-1.1,6.7-2.1,10.1-3
			c7-1.6,14-3.1,21.3-3.4c7.3-0.4,14.7,0,21.6,1.6c7,1.7,13.4,4.2,18.7,8.5c0.8,0.7,0.8,1.7,0,2.4c-0.7,0.6-1.8,0.6-2.6,0.2
			L247.4,406.1z"/>
	</g>
	<path class="st4" d="M228.8,269.9v189c0,13.8,13.9,24.9,31.1,24.9h235.7c17.2,0,31.1-11.2,31.1-24.9v-73.7
		c8.2,9.4,21.8,15.6,37.2,15.6c25,0,45.4-16.3,45.4-36.4c0-20.1-20.3-36.4-45.4-36.4c-15.4,0-29,6.2-37.2,15.6v-73.7
		c0-13.8-13.9-24.9-31.1-24.9H259.9C242.7,245,228.8,256.1,228.8,269.9z"/>
	<g class="st5">
		<path class="st6" d="M528.8,387.4c2,2,4.3,3.8,6.9,5.4L528.8,387.4z"/>
		<polygon class="st6" points="349.5,245 317.8,245 526.7,410.9 526.7,385.7 		"/>
		<polygon class="st6" points="426.6,483.8 444.2,483.8 228.8,312.7 228.8,326.7 		"/>
		<path class="st6" d="M269.4,245h-9.5c-17.2,0-31.1,11.2-31.1,24.9v1.4l267.5,212.5c16.9-0.3,30.4-11.3,30.4-24.9v-9.6L269.4,245z"
			/>
	</g>
	<ellipse class="st7" cx="571.3" cy="718.7" rx="427.6" ry="38.1"/>
	<path class="st7" d="M710.5,818.5c0,7.1-38.5,12.9-85.9,12.9c-47.5,0-85.9-5.8-85.9-12.9c0-7.1,38.5-12.9,85.9-12.9
		C672.1,805.6,710.5,811.4,710.5,818.5z"/>
	<path class="st7" d="M385.7,777.7c0,4.7-25.1,8.4-56.1,8.4c-31,0-56.1-3.8-56.1-8.4s25.1-8.4,56.1-8.4
		C360.6,769.3,385.7,773,385.7,777.7z"/>
	<path class="st7" d="M839.9,788.4c0,4.7-25.1,8.4-56.1,8.4c-31,0-56.1-3.8-56.1-8.4c0-4.7,25.1-8.4,56.1-8.4
		C814.8,780,839.9,783.8,839.9,788.4z"/>
	<ellipse class="st7" cx="140.2" cy="722.9" rx="56.1" ry="8.4"/>
	<path class="st7" d="M250.8,772.5c0,2-10.6,3.6-23.7,3.6c-13.1,0-23.7-1.6-23.7-3.6c0-2,10.6-3.6,23.7-3.6
		C240.2,768.9,250.8,770.5,250.8,772.5z"/>
	<g>
		<path class="st8" d="M744.2,569.1c6.9-20.9,15.5-40.7,25.4-60.4c9.9-19.6,21.2-38.8,33.7-57.4c12.4-18.7,26.5-36.6,41.9-53.7
			l11.8-12.7l12.6-12.2l6.3-6.1l6.8-5.8l13.5-11.5c0.9-0.8,2.5-0.8,3.5-0.1c1,0.7,1,2,0.2,2.8l-0.1,0.1l-12.8,11.8l-6.4,5.9
			l-5.9,6.2l-11.8,12.4l-11,12.9c-14.3,17.3-27.4,35.3-38.7,54.1c-11.4,18.7-21.6,37.8-30.4,57.3c-8.7,19.5-16.4,39.6-21.9,59.4
			l-0.1,0.3c-1,3.7-5.5,6-10.1,5.2c-4.6-0.8-7.4-4.4-6.4-8.1C744.2,569.2,744.2,569.1,744.2,569.1z"/>
		<path class="st8" d="M762.3,537.2c6.6-8.3,14.8-15.6,24.3-22c9.5-6.4,20.4-11.8,32.4-15.7c11.9-3.8,25-6.5,38.2-7
			c6.7-0.6,13.2-0.1,20,0.1c6.7,0.4,13.1,1.5,19.8,2.2c10.7,1.2,18,9.2,16.5,17.7c-1.6,8.5-11.5,14.5-22.1,13.2
			c-1.4-0.2-2.8-0.5-4.1-0.8l-2.2-0.7c-4.7-1.4-9.3-3.3-14.2-4.6c-4.8-1.1-9.8-2.5-14.8-3c-10.1-1.7-20.5-1.6-31-0.4
			c-10.5,1.2-21,3.8-31,7.8c-9.9,3.9-19.5,9.2-27.7,15.4l-0.2,0.1c-1,0.8-2.6,0.7-3.5-0.1C761.8,538.9,761.7,537.9,762.3,537.2z"/>
		<path class="st8" d="M770.2,531.4c1.1-8.9,0.4-17.7-1.9-26.5c-2.2-8.8-6.2-17.6-12.1-25.7c-5.8-8.1-13.2-15.8-22.3-22.1
			c-4.3-3.4-9.3-6-14.2-8.9c-5-2.7-10.3-4.9-15.6-7.3c-8.5-3.9-19.3-1.6-24.1,5.2c-4.9,6.8-2,15.4,6.5,19.3c1.1,0.5,2.3,0.9,3.5,1.2
			l2,0.5c4.3,1.1,9,1.8,13.3,3.1c4.2,1.4,8.7,2.6,12.6,4.5c8.3,3.3,15.7,8.1,22.4,13.6c6.6,5.6,12.3,12.2,16.6,19.5
			c4.3,7.3,7.5,15.3,8.9,23.4l0,0.2c0.2,1,1.3,1.7,2.6,1.5C769.4,532.9,770.1,532.2,770.2,531.4z"/>
		<path class="st8" d="M784.1,488.2c5.8-9.2,14.5-16.7,24.5-23.1c10.1-6.4,21.7-11.2,33.9-14.8l9.3-2.4c3.1-0.7,6.3-1.2,9.5-1.8
			c6.4-1.3,12.8-1.7,19.3-2.4c6.5-0.5,12.9-0.5,19.5-0.7l19.4,0.7c9.9,0.3,17.6,7.1,17.1,15c-0.4,7.9-8.8,14.1-18.7,13.7
			c-1.3,0-2.5-0.2-3.7-0.4l-1.2-0.3l-16.2-3.4c-5.4-0.7-10.9-1.7-16.4-2.2c-5.5-0.3-11.1-1-16.5-0.8c-2.7,0-5.6-0.1-8.3,0.1
			l-8.3,0.7c-10.9,1.2-21.8,3.5-32,7.5c-10.1,3.9-19.8,9.5-27,16.5l-0.2,0.2c-0.9,0.9-2.4,1-3.5,0.3
			C783.9,490.1,783.6,489,784.1,488.2z"/>
		<path class="st8" d="M815.4,436.2c2.8-4.2,6.3-7.5,10.3-10.6c1.9-1.6,4.2-2.9,6.3-4.4c2.2-1.3,4.5-2.6,6.8-3.8
			c9.3-4.8,19.6-8.3,30.1-10.9c10.6-2.7,21.4-4.2,32.3-5.5c5.4-0.4,10.9-0.9,16.4-1.2l16.4-0.4c7.9-0.2,14.5,4.8,14.7,11.1
			c0.2,6.3-5.9,11.6-13.8,11.8c-0.9,0-1.7,0-2.6-0.1l-0.8-0.1l-14.7-1.9c-4.9-0.5-9.8-0.8-14.8-1.2c-9.8-0.3-19.8-0.5-29.6,0.5
			c-9.8,0.8-19.5,2.5-28.6,5.5c-2.3,0.7-4.5,1.6-6.7,2.4c-2.1,1-4.4,1.8-6.4,3c-4.1,2.1-8.1,4.8-11,7.6l-0.2,0.2
			c-0.9,0.9-2.4,1-3.5,0.3C815.1,438.1,814.8,437.1,815.4,436.2z"/>
		<path class="st8" d="M855.5,388.8c5.3-3.2,10.8-5.7,16.8-8c5.9-2.3,12.2-4.3,18.7-5.9c6.5-1.6,13.2-2.9,20.1-3.7
			c6.9-0.9,13.9-1.2,21-1.3c7.2-0.1,12.8,3.8,12.5,8.8c-0.3,5-6.4,9.1-13.6,9.2c-1.2,0-2.3-0.1-3.4-0.3l-0.3-0.1
			c-5.3-0.9-10.8-1.8-16.4-2.1c-5.6-0.4-11.5-0.4-17.3-0.1c-5.9,0.3-11.8,1-17.7,2.1c-5.9,1-11.9,2.5-17.3,4.3l-0.2,0.1
			c-1.4,0.5-2.9,0.1-3.5-0.8C854.2,390.3,854.6,389.4,855.5,388.8z"/>
		<path class="st8" d="M792.4,480.6c2.5-9.9,1.5-19.6-1.3-29c-2.9-9.4-8-18.3-14.6-26.4l-5.2-5.9c-1.8-1.9-3.9-3.7-5.8-5.5
			c-3.8-3.8-8.4-6.8-12.8-10.2c-4.5-3.2-9.4-6-14.1-9l-15.2-7.8c-7.7-4-18.5-1.9-24.1,4.6c-5.6,6.5-3.9,15.1,3.9,19
			c1,0.5,2,0.9,3.1,1.2l1.1,0.3l14.7,4.2c4.6,1.8,9.5,3.3,14,5.3c4.3,2.1,9.1,3.9,13.1,6.5c2,1.2,4.2,2.3,6.2,3.7l5.7,4.1
			c7.4,5.7,13.8,12.2,18.5,19.8c4.7,7.5,7.9,16.1,8.1,24.8l0,0.3c0,1.1,1.1,1.8,2.4,1.7C791.2,482.2,792.2,481.4,792.4,480.6z"/>
		<path class="st8" d="M827.3,431c1.5-4.5,1.6-8.6,1.3-12.8c0-2.1-0.6-4.1-0.9-6.2c-0.5-2-1-4.1-1.7-6c-2.7-8-7.1-15.4-12.4-22.3
			c-5.2-7-11.7-13.2-18.4-19.2c-3.5-2.8-7-5.7-10.6-8.5l-11.3-8c-5.4-3.8-14.1-3.2-19.5,1.5c-5.3,4.6-5.3,11.5,0.2,15.3
			c0.6,0.4,1.2,0.8,1.9,1.1l0.6,0.3l12,5.5c3.9,1.9,7.6,4,11.4,6c7.2,4.3,14.4,8.9,20.5,14.2c6.3,5.2,11.7,11,15.8,17.5
			c1,1.6,1.8,3.3,2.8,5c0.7,1.7,1.6,3.4,2.1,5.2c1.2,3.5,1.8,7.4,1.6,10.8l0,0.3c-0.1,1,0.9,1.9,2.2,1.9
			C826,432.6,827,431.9,827.3,431z"/>
		<path class="st8" d="M858.7,389.7c0-5.6-0.8-11.1-2.1-16.6c-1.3-5.5-3.2-11.1-5.6-16.5c-2.5-5.4-5.4-10.9-9-16
			c-3.5-5.3-7.7-10.2-12.2-15c-4.6-4.9-12.5-6.1-17.7-2.7c-5.2,3.5-5.8,10.3-1.2,15.2c0.7,0.8,1.6,1.5,2.5,2.1l0.2,0.2
			c4.5,3,9,6.1,13,9.7c4.2,3.5,7.9,7.5,11.4,11.6c3.5,4.2,6.6,8.7,9.2,13.4c2.7,4.7,5,9.7,6.5,14.5l0.1,0.2c0.4,1.2,1.8,2.1,3.2,1.9
			C857.9,391.5,858.6,390.7,858.7,389.7z"/>
		<path class="st8" d="M885.4,363.7c0.9-4.8,1-9.5,0.6-14.4c-0.3-4.8-1.1-9.7-2.4-14.6c-1.3-4.9-3-9.8-5.4-14.5
			c-2.2-4.8-5.1-9.4-8.2-14c-3.2-4.6-9.8-6.4-14.8-3.9c-5,2.5-6.4,8.3-3.3,12.9c0.5,0.8,1.1,1.4,1.8,2l0.2,0.2
			c3.4,2.9,6.8,6,9.7,9.5c3,3.4,5.6,7.1,8,11c2.4,3.9,4.3,8,5.9,12.3c1.6,4.2,2.8,8.7,3.4,13l0,0.2c0.1,1.1,1.2,1.9,2.4,1.9
			C884.5,365.2,885.3,364.6,885.4,363.7z"/>
		<path class="st8" d="M890.1,356.4c4.3-2.6,8.7-4.8,13.6-6.7c4.8-1.9,9.9-3.6,15.1-4.9c5.3-1.3,10.7-2.4,16.3-3.1
			c5.6-0.7,11.3-1,17.1-1c5.9-0.1,10.5,3.2,10.3,7.4c-0.2,4.2-5.1,7.6-11,7.7c-1,0-1.9-0.1-2.8-0.2l-0.2,0
			c-4.3-0.8-8.8-1.5-13.4-1.8c-4.6-0.4-9.3-0.4-14.1-0.1c-4.8,0.2-9.6,0.8-14.4,1.7c-4.8,0.9-9.6,2.1-14,3.6l-0.2,0.1
			c-1.1,0.4-2.4,0.1-2.9-0.7C889.1,357.6,889.4,356.9,890.1,356.4z"/>
		<path class="st8" d="M893.5,352.1c2.2-5,5-9.6,8.1-14.1c3.1-4.6,6.6-9,10.4-13.2c7.7-8.6,17-16.4,27.7-23.3l0.1-0.1
			c5.4-3.5,13.2-2.8,17.5,1.5c4.3,4.3,3.5,10.6-1.9,14.1c-0.9,0.6-1.8,1-2.8,1.4c-10.4,3.6-20.5,8.5-29.7,14.5
			c-4.7,3-9.1,6.3-13.3,9.8c-4.2,3.5-8.2,7.3-11.6,11.2l-0.1,0.1c-0.8,0.9-2.4,1.1-3.5,0.5C893.5,353.9,893.1,352.9,893.5,352.1z"/>
	</g>
	<g>
		<g>
			<path class="st9" d="M122.1,656.9c-6.5-4.8-11.4-11.4-14.9-18.4c-4.8-9.2-7.6-19.4-6.7-29.6c2-22.6,22.2-41.8,22.5-64.5
				c0.2-16-4-28.6,2.1-44.3c7.8-20,27.4-34.6,37.1-54.2c2.5-5,4.5-10.1,7.6-14.8c16.4-24.6,60.6-13.3,63.9,14.1
				c2.7,22.7-11.3,35.7-30.3,48.1c-22.4,14.6-21.8,37.2-17.2,59.8c2.4,11.9-2.9,22.6-7.8,33.3c-5.5,12.2-16.3,22.2-19.3,35.4
				c-1.7,7.5-0.6,15.3,1.7,22.7c0.9,2.7,1.9,5.5,1.5,8.3c-0.6,4.3-4.7,7.7-9.2,9.4c-9,3.5-19.8,1.7-28-3.2
				C124.2,658.3,123.1,657.6,122.1,656.9z"/>
		</g>
		<g>
			<path class="st8" d="M163.1,663.3c-6.7-5-7.3-16.5-7.6-23.8c-1.7-35.7,50.1-54.8,38.2-93.2c-8.4-27.2,8.6-38.6,28.7-32.1
				c15,4.9,15.9,26,15.6,38c-0.4,19.4-8,36.9-22.1,51.3c-6.4,6.5-14.9,13.5-16.3,22.7c-1.4,9.6-2.1,20.1-7.2,28.8
				c-5,8.5-18.5,15.2-28.6,8.9C163.6,663.7,163.4,663.5,163.1,663.3z"/>
		</g>
		<g>
			<path class="st8" d="M81,512.4c13.6,10.7,23.5,31.7,24.1,43.3c0.8,17.4-6.9,33.8-5.1,51.5c0.8,8,2.4,16,5.9,23.5
				c3.6,7.9,9.9,11.3,14.8,18c10.4,14.2-13.7,19.2-24.1,15.3c-21-7.9-42.7-40-33.7-70.4c3.3-11,1.9-22.2-2.8-32.7
				c-4.2-9.2-11.9-16.9-15.7-26.1c-3.3-8.1-1.2-19,6.7-24.6C61.5,502.8,72.1,505.4,81,512.4z"/>
		</g>
		<g>
			<path class="st10" d="M151,668.3c-0.7,0-1.4-0.2-1.9-0.7c-0.4-0.3-38.1-34.6-15.5-74.8c22.1-39.2,24.6-59.6,21.8-87.9
				c-2-19.8,12.5-31.5,26.5-42.8c6.9-5.5,14-11.3,18.9-17.9c0.7-1,2.3-1.3,3.5-0.7c1.2,0.6,1.6,1.8,0.9,2.8
				c-5.2,7-12.6,12.9-19.7,18.7c-13.8,11.1-26.9,21.7-25.1,39.6c2.8,28.4,0.2,50.1-22.2,89.9c-21.2,37.8,14.3,70.1,14.6,70.4
				c0.9,0.8,0.8,2.1-0.2,2.8C152.2,668.2,151.6,668.3,151,668.3z"/>
		</g>
		<g class="st5">
			<path class="st8" d="M174.8,656.3c-1.3,0-2.5-0.9-2.5-1.9c-0.1-1.3-1.3-32.6,17.6-53.2c35.1-35.9,18.5-72.3,18.3-72.7
				c-0.5-1,0.2-2.2,1.5-2.6c1.3-0.4,2.8,0.1,3.2,1.2c0.2,0.4,17.9,39-19,76.5c-17.8,19.4-16.6,50.3-16.6,50.6
				C177.3,655.3,176.2,656.3,174.8,656.3C174.8,656.3,174.8,656.3,174.8,656.3z"/>
		</g>
		<g class="st5">
			<path class="st8" d="M100.3,656.3c-0.7,0-1.5-0.3-2-0.8c-1.1-1.1-26.5-28-17.8-70.3c8.3-40.1-21.6-59.2-21.9-59.4
				c-1.1-0.7-1.3-1.9-0.5-2.8c0.8-0.9,2.4-1.1,3.5-0.4c1.3,0.8,32.6,20.6,23.8,63.2c-8.4,40.6,16.5,66.9,16.8,67.2
				c0.9,0.9,0.6,2.1-0.4,2.8C101.4,656.2,100.8,656.3,100.3,656.3z"/>
		</g>
		<path class="st11" d="M209.8,649.3c-0.4-3.8-4.3-6.6-9-6.6h-65.5H69.9c-4.7,0-8.6,2.9-9,6.6c-1.4,13.8-2.5,45.1,15.5,56.4
			c1.4,0.9,3.3,1.3,5.2,1.3h53.8h53.8c1.8,0,3.7-0.4,5.2-1.3C212.2,694.3,211.2,663,209.8,649.3z"/>
		<path class="st12" d="M205.1,692.6c-88.5,4-127.4-21-144.5-39.7c-1.2,15-0.7,42.3,15.8,52.8c1.4,0.9,3.3,1.3,5.2,1.3h53.8h53.8
			c1.8,0,3.7-0.4,5.2-1.3C199.2,702.6,202.7,697.9,205.1,692.6z"/>
	</g>
	<g>
		<g>
			<path class="st13" d="M800.7,694.2c-6.7-9.3-9.9-20.5-11.1-31.8c-1.7-15,0-30.7,7-44.9c15.6-31.7,55.3-51.9,68.5-84.4
				c9.2-22.9,10.4-42.5,28-62.9c22.4-25.9,58.8-39.8,83.8-64.4c6.3-6.2,12.1-12.9,19.2-18.4c37.4-29.4,94.5,2.8,83.8,43.4
				c-8.8,33.6-36.3,47.2-70.4,58.1c-40.4,12.9-52.2,45.5-58.2,79.6c-3.2,17.9-16.8,31.3-29.9,45.1c-14.8,15.5-35.9,26-47.6,43.8
				c-6.7,10.2-9.5,21.8-10.3,33.2c-0.3,4.2-0.4,8.5-2.5,12.4c-3.4,6-11.1,9.3-18.4,10.2c-14.9,1.8-29.3-4.8-38.3-14.7
				C802.9,697.1,801.8,695.7,800.7,694.2z"/>
		</g>
		<path class="st14" d="M1038.5,417.8c-1.4-1.2-3.8-1.4-5.3-0.2c-10.7,7.7-24.2,13.4-37.2,18.8c-26.5,11.1-53.8,22.7-62.1,51.8
			c-11.9,41.7-26.9,70-80.7,118.4c-44.4,40-30.2,88.7-22.9,106.2c2.7,0.5,5.5,0.7,8.3,0.6c-6.2-13.5-24.1-62.8,20.3-102.8
			c54.5-49.1,70.5-79.3,82.4-121c7.5-26.4,32.2-36.8,58.2-47.8c13.4-5.6,27.3-11.5,38.7-19.7C1039.8,421,1039.9,419.1,1038.5,417.8z
			"/>
	</g>
	<g>
		<g>
			<path class="st11" d="M837.7,688.3c-3.9-11.9,8.3-28.3,16-38.8c37.5-51.3,131.6-40.9,157.8-103.3c18.6-44.2,55.3-47.9,76.1-24.4
				c15.5,17.6-6.8,47.9-20.6,64.4c-22.3,26.8-52.5,46.1-88.3,56.1c-16.2,4.5-36.1,8.3-48.2,20.1c-12.7,12.4-25.4,26.7-42.2,35.2
				c-16.5,8.3-42.9,8-50-8C838,689.1,837.9,688.7,837.7,688.3z"/>
		</g>
		<g>
			<path class="st12" d="M861.9,686.8c-1.9-1-2.5-3-1.4-4.5c1.4-1.9,34.6-46.6,84.1-61.9c89.4-25,106.7-88.1,106.9-88.8
				c0.5-1.8,2.7-3,5-2.6c2.3,0.4,3.7,2.2,3.3,4c-0.2,0.7-18.5,67.5-112.2,93.7c-46.7,14.4-79.5,58.6-79.8,59
				c-1.2,1.6-3.7,2.1-5.7,1.2C862,686.8,862,686.8,861.9,686.8z"/>
		</g>
	</g>
	<g>
		<path class="st15" d="M272.2,589.3c-4.3,0.7-6.7,0.8-10.3,1c1.5-1.2,1.9-3.7-0.1-2.6c-3.1,1.5-7.6,2.8-7.6,2.8
			c-3.2,1-9.6-0.3-13-0.6c-2.1-0.2-3.8-0.9-4.9,0.7c-0.7,1-0.7,3.3,0,4.2c1.1,1.3,2.8,0.8,4.8,0.8c2.2-0.1,4.4-0.1,6.7-0.3
			c1.8-0.1,5-0.9,6.7-0.5c0,0,6,1.4,10.9,1.4C270.3,596.3,276.4,588.6,272.2,589.3z"/>
		<path class="st16" d="M251.2,589.6c0,0,1.4-0.3,2.1-0.1c0.7,0.3,1.4,4.6,0.9,5.6c-0.5,1-1.8,0.7-3,0.3
			C250.1,595,250.6,591,251.2,589.6z"/>
		<path class="st17" d="M173.4,562.4c0,0-2.1,4.2,5.5,11.4c7.6,7.2,20.8,20.1,25.5,21.8c4.7,1.7,38.6,0.9,41.6,1.3s4.9,0.1,5.8-1.8
			c0.4-1.4,0.1-5.6-1.5-6.4c-1.6-0.7-2.7,0-5.5,0.1c-2.8,0.1-30.8-1.3-34.9-4.5c-2-1.6-17.1-20.7-19.1-23.2
			C188.8,558.6,179.7,554.2,173.4,562.4z"/>
	</g>
	<g>
		<path class="st15" d="M880,595c-0.8-0.8-1.4-0.4-2.5-0.2c0,0-10.3,1.9-10.3,1.9l-20.4,4.3c0,0-1.1-2.5-3.3-3.9
			c-2.2-1.3-4.4-2-4.1-1c0.2,1,1.1,1.9,2.3,2.7c-2.2-0.1-5.8-1.3-8.3-3.6c-1.4-0.6-2.7,1.2,0.2,4.6c2.8,3.3,5.6,3.9,7.9,4.6
			c2.3,0.7,6.1,0.6,6.1,0.6l21-0.7c2.4-0.1,4.9-0.2,7.3-0.3c0.8,0,2.7,0.2,3.4-0.2c1.7-1,2-4.4,1.8-5.8
			C880.9,597.1,880.7,595.7,880,595z"/>
		<path class="st18" d="M880,595c-0.8-0.8-1.4-0.4-2.5-0.2c0,0-5.1,0.9-8.1,1.5c-1,2.7-4,6.6-13.3,8.4c6-0.2,12.4-0.4,12.4-0.4
			c2.4-0.1,4.9-0.2,7.3-0.3c0.8,0,2.7,0.2,3.4-0.2c1.7-1,2-4.4,1.8-5.8C880.9,597.1,880.7,595.7,880,595z"/>
		<path class="st19" d="M912.7,570.1c-5.5-0.5-11.1,0.5-20.5,13.9c-6.2,11.2-21.3,11-21.3,11s-0.8,7.7,1.7,9.9c0,0,15.2,0.8,22-2.2
			c6.8-2.9,22.7-19.2,25.9-22.7C923.6,576.5,918.2,570.6,912.7,570.1z"/>
	</g>
	<path class="st20" d="M259.9,722.5h235.7c17.2,0,31.1-11.2,31.1-24.9v-68.5c-8.2,6.4-19.4,10.4-31.7,10.4
		c-25,0-45.4-16.3-45.4-36.4c0-20.1,20.3-36.4,45.4-36.4c12.3,0,23.5,4,31.7,10.4v-68.5c0-13.8-13.9-24.9-31.1-24.9h-91.9
		c11.7-6.6,19.4-17.5,19.4-29.8c0-20.1-20.3-36.4-45.4-36.4c-25,0-45.4,16.3-45.4,36.4c0,12.3,7.7,23.2,19.4,29.8h-91.9
		c-17.2,0-31.1,11.2-31.1,24.9v189C228.8,711.4,242.7,722.5,259.9,722.5z"/>
	<path class="st21" d="M865.4,699.7v-189c0-13.8-13.9-24.9-31.1-24.9h-85.4c8,6.6,12.9,15.5,12.9,25.4c0,20.1-20.3,36.4-45.4,36.4
		c-25,0-45.4-16.3-45.4-36.4c0-9.9,4.9-18.9,12.9-25.4h-85.4c-17.2,0-31.1,11.2-31.1,24.9v73.7c-8.2-9.4-21.8-15.6-37.2-15.6
		c-25,0-45.4,16.3-45.4,36.4c0,20.1,20.3,36.4,45.4,36.4c15.4,0,29-6.2,37.2-15.6v73.7c0,13.8,13.9,24.9,31.1,24.9h235.7
		C851.5,724.6,865.4,713.5,865.4,699.7z"/>
	<g>
		<path class="st15" d="M556.5,405.3c-1.7,2.2-1.6,5.7-1.9,6.1c-0.3,0.4-1.2-0.9-2.7-2c-1.5-1.2-0.6,1.8,0.4,2.9
			c1.1,1.3,1.9,4.1,1.9,4.1c-1.3,4.9-2.8,9.7-4.5,14.5c-0.7,2-2.8,4.5-0.2,5.8c1.4,0.7,5.1,1.5,6.5,0.3c1.2-1,0.9-4.6,1.1-6
			c0.6-4.7,1-9.5,1.3-14.3c0,0,3.7-3.6,2.9-7C560.4,406.4,558.2,403.1,556.5,405.3z"/>
		<path class="st22" d="M552.2,418.9c0,0,0.1-2,1.1-2.3c0.9-0.2,5,0,5.6,0.5c0.6,0.4-0.2,2.3-0.2,2.3S554.5,420.8,552.2,418.9z"/>
		<path class="st23" d="M521.4,465c0,0-14.4,5.6-13.8,11.3c0.6,5.8,5.4,8.2,9.5,9.5c4.1,1.3,9.7-2.3,19-9.2
			c9.3-6.9,17.1-13.4,19.2-24.1c1.3-7.6,3.8-24.7,3.6-26.5c-0.4-2.5,1.6-4,1.5-5.6c-0.1-1.5-8.5-2.3-10.1-0.8
			c-0.5,0.8,0.1,1.5-0.1,3.9C549.8,425.9,543.2,455.3,521.4,465z"/>
	</g>
	<g>
		<g>
			<path class="st15" d="M153.4,707.2c0,0-1.9,2.7-1.2,4.1c0.7,1.5,6,5.5,11.2,5.7c5.3,0.2,5.7,3.1,4.7,3.8c-1,0.7-14.4,1.4-17.2,0
				c-2.8-1.4-9.8-5.5-11.5-7.3c1-2.4,2.4-4.3,5.8-5c1-0.9,4.4-3.9,4.4-3.9L153.4,707.2z"/>
			<path class="st13" d="M139.4,713.5c1.7,1.8,8.7,5.9,11.5,7.3c2.8,1.4,16.2,0.7,17.2,0c1-0.7,0.6-3.6-4.7-3.8
				c-2.2-0.1-4.4-0.8-6.2-1.8c0,0,0,0,0,0c-2.3,1.3-4.3,0.2-7.9-2.1c-3.6-2.3-4-4.6-4-4.6C141.8,709.1,140.4,711,139.4,713.5z"/>
			<path class="st24" d="M168.1,720.8c0.4-0.3,0.6-1,0.2-1.7c-2,1.4-2.7-0.6-3.5,0.2c-0.9,0.9-4.7,0.9-4,0c0.7-0.9,0.7-1.6-0.5-1.1
				c-1.1,0.5-3.6,1.9-8.5,0.6c-4.1-1.1-9.6-5.5-11.6-6.9c-0.3,0.5-0.5,1-0.8,1.6c1.7,1.8,8.7,5.9,11.5,7.3
				C153.7,722.2,167.1,721.5,168.1,720.8z"/>
			<path class="st15" d="M126.4,710.2c0,0-1.9,2.7-1.2,4.1c0.7,1.5,6,5.5,11.2,5.7c5.3,0.2,5.7,3.1,4.7,3.8c-1,0.7-14.4,1.4-17.2,0
				c-2.8-1.4-9.8-5.5-11.5-7.3c1-2.4,2.4-4.3,5.8-5c1-0.9,4.4-3.9,4.4-3.9L126.4,710.2z"/>
			<path class="st13" d="M112.5,716.5c1.7,1.8,8.7,5.9,11.5,7.3c2.8,1.4,16.2,0.7,17.2,0c1-0.7,0.6-3.6-4.7-3.8
				c-2.2-0.1-4.4-0.8-6.2-1.8c0,0,0,0,0,0c-2.3,1.3-4.3,0.2-7.9-2.1c-3.6-2.3-4-4.6-4-4.6C114.8,712.2,113.5,714.1,112.5,716.5z"/>
			<path class="st25" d="M182.8,651.6c0-0.3-0.1-0.7-0.2-1.1l-0.2-0.9l-0.5-1.8l-2-6.7l-4.2-13.2l-8.6-26.3l-26.5,7.4
				c0,0-1.5,4.9,2.7,15.8c4.1,10.6,13.3,20.4,21.4,29.2c-0.1-0.2-0.1-0.4,0-0.6c0.5,4.2-2,7.9-3.9,11.8c-1.8,3.7-3.6,7.4-4.8,11.2
				c-1.7,5.6-5.8,20.6-6.1,22.2c-1.1,2.5-2.1,5-3.2,7.5l7,2.5c5.3-8,10.4-16.1,15.3-24.4c2.4-4.1,4.8-8.3,7.1-12.6
				c2.2-4.3,4.4-8.5,6.1-13.7c0.4-1.3,0.8-2.7,0.9-4.7C182.8,652.8,182.9,652.3,182.8,651.6z"/>
			<path class="st3" d="M138.6,600.3c-0.6-0.9-10.7,4.9-11.4,21.1c-0.5,12.9,2.7,29.9,4,36.4l0,0.2c-0.2,1-0.5,2.3-0.8,3.4l-1.6,6.9
				l-4.4,11.7c-0.7,1.8-1.2,3.6-1.5,5.5l-4,24.4l7.3,1.6l12.2-26.5l6.1-13.3l3-6.6c0.5-1.1,1-2.1,1.5-3.4l0.5-1.3l0.3-1.1l0.5-1.7
				l16.8-54.9L138.6,600.3z"/>
			<path class="st26" d="M158.5,610.7c-0.8-0.6-21.2-2.1-21.2-2.1s-4,0.7-7.8,1.6c-1.2,2.9-2.1,6.5-2.3,11c2.6,2,10,6.8,24.1,8.2
				c2.6,0.8-2.8,28.9-4.3,33c-1.4,3.9-17.5,45.5-28,46.4l-0.2,1.1l7.3,1.6l12.2-26.5l6.1-13.3l3-6.6c0.5-1.1,1-2.1,1.5-3.4l0.5-1.3
				l0.3-1.1l0.5-1.7l12.7-41.6C161.7,614.2,159.1,611.1,158.5,610.7z"/>
			<path class="st16" d="M129,610.7c0,0-3.6,6.8-2.6,7.7s11,7.2,34.1,6.3c9,0.1,13.4-2,14.1-2.8c0.7-0.8-1.5-4.1-2.9-5
				C170.4,616.1,151.3,621.4,129,610.7z"/>
			<path class="st15" d="M197.6,551.9c0,0-8.3,4.4-12.9,4.9c2.9,2.7,6.4,6.4,8.8,6.5c2.4,0.1,4.4-5.3,8.8-8
				C202,552.8,197.6,551.9,197.6,551.9z"/>
			<path class="st18" d="M197.6,551.9c0,0-2.3,1.2-5.1,2.4c0.2,0.5,0.5,0.9,1.1,1.2c2.3,1.1,6,1.2,7,1.2c0.1-0.1,0.2-0.2,0.3-0.3
				c0.2-0.5,0.5-1.6,0.6-2.7C200.1,552.4,197.6,551.9,197.6,551.9z"/>
			<path class="st15" d="M221.1,547.5c-0.2,0.6-4,11.1-8.9,13.3c-4.8,2.2-12-1.7-16.7-9.9c-4.7-8.2,6.9-15.8,14.6-14.9
				C217.9,536.8,223,542.9,221.1,547.5z"/>
			<path class="st22" d="M127.5,613.9c-1.3-1.4,0.2-5.7,1.6-7c5.5-5,20.5-18.8,27.5-29.5c8.7-13.3,16.7-25.3,30-22.2
				c11.3,2.6,18,16.5,13.9,26.1c-3.4,8-14.8,1.7-21.4,8.4c-7,7.1-6.3,19.1-5.4,25.2c0.3,2.1,0.7,4.5-1.9,5
				C159.9,621.8,135,621.8,127.5,613.9z"/>
			<path class="st16" d="M186,555.6c0,0,4.7-3.3,6.3-2.2c1.7,1,6,5.3,6.9,6.6c0.8,1.3-0.4,5.3-1.1,6.2
				C197.4,567.1,187.4,558.1,186,555.6z"/>
			<path class="st27" d="M189.2,576.2c0.2-0.3-17.7-7.5-18.2-7.8c-0.3-0.1-3.8-0.9-7.5-1.2c-2.3,3.1-4.6,6.6-6.9,10.1
				c-1.8,2.8-4.2,5.8-6.8,8.8c3.8-0.2,10-0.8,16-2.4c2.7-0.7,5.6,0.2,7.1,2.1c1,1.3,1.9,2.4,1.9,2.4c-1.6,3.1-3.1,6.2-4.4,9.4
				c-0.9,2.2-1.7,4.5-2.1,6.8c-0.4,2.8-0.6,5.9-2.6,8.3c-0.6,0.7-1.3,1.3-2.1,1.9c-4.5,3.6-8.8,4.5-14.9,3.9c-6.4-0.6-12.8-1.7-19-3
				c9.3,6.1,31.1,6,42,4.1c2.6-0.5,2.2-2.8,1.9-5c-0.9-6.1-1.5-18.1,5.4-25.2c4.1-4.1,10-3.3,14.7-4
				C191.6,581.3,189.1,576.4,189.2,576.2z"/>
			<path class="st15" d="M264,607.9c-4.4,0.1-6.8-0.2-10.4-0.5c1.7-1,2.7-3.4,0.4-2.5c-3.4,1.1-8,1.7-8,1.7
				c-3.1,0.4-8.1-1.4-11.1-2.1c-3.1-0.7-7.2-2.8-9.2,0c-0.7,0.9-1.3,3.6-0.2,4.5c0.9,0.7,5.2,0.7,6.6,0.8c2.2,0.3,4.4,0.5,6.7,0.7
				c1.8,0.2,5.2-0.2,6.8,0.4c0,0,5.6,2.2,10.4,2.9C260.6,614.6,268.4,607.9,264,607.9z"/>
			<path class="st16" d="M243.2,605.4c0,0,1.4-0.1,2.1,0.2c0.7,0.4,0.4,4.7-0.3,5.7c-0.8,1-1.9,0.4-3-0.2
				C241,610.6,242.4,606.6,243.2,605.4z"/>
			<path class="st22" d="M172.5,567.8c0,0-2.9,3.9,3,12s16.1,22.7,20.4,25s37.9,6.2,40.7,7.1c2.8,0.8,4.8,0.8,6.1-1
				c0.7-1.3,1.3-5.5-0.1-6.5c-1.4-0.9-2.6-0.4-5.4-0.7c-2.8-0.3-30.1-5.5-33.4-9.2c-1.6-1.8-12.4-22.7-13.9-25.5
				C188.5,566.2,180.5,560.6,172.5,567.8z"/>
			<path class="st27" d="M236.6,609.3c-4.7-0.5-35.6-4.5-39.6-9.2c-4-4.7-14.1-16.5-11-19.7c2.1-2.2,4.4-6.1,5.6-8.3
				c-0.8-1.5-1.4-2.6-1.6-3.1c-1.4-2.8-9.4-8.4-17.4-1.2c0,0-2.9,3.9,3,12c5.9,8.1,16.1,22.7,20.4,25c4.3,2.3,37.9,6.2,40.7,7.1
				c2.8,0.8,4.8,0.8,6.1-1c0.3-0.5,0.5-1.5,0.7-2.5C241.6,609,240.9,609.8,236.6,609.3z"/>
			<path class="st13" d="M211.1,548c0,0,10.6,3,14.7-2.5c4.1-5.5-9.2-18.5-21.9-13.8c-10.5,3.9-21.2,7.9-32.9,8.5
				c-12.5,0.7-23.9-2.2-36,2.3c-19.7,7.3-21,32.6,0.3,39.5c4.9,1.6,10.5,1.6,15.8,1c11-1.1,21.7-4.4,30.2-10
				c5.8-3.8,10.5-8.6,13.5-14.1c1.1-2,2.7-13.4,6.7-12.1c3,0.9,2.4,3.6,1.8,5.1c-0.5,1.5,3.4-0.4,4.7-2.4
				C209.3,547.6,211.1,548,211.1,548z"/>
			<path class="st24" d="M225.8,545.5c0.4-0.6,0.6-1.2,0.7-1.9c-5.4,4.6-19,2.1-20.7,0.2c-1.9-2.1-7-5.8-10,0
				c-3,5.8-14.7,23.5-44.7,21.3c-21.6-1.6-25.2-11.2-25.4-16.5c-9.9,10.4-7.4,27.9,9.7,33.4c4.9,1.6,10.5,1.6,15.8,1
				c11-1.1,21.7-4.4,30.2-10c5.8-3.8,10.5-8.6,13.5-14.1c1.1-2,2.7-13.4,6.7-12.1c3,0.9,2.4,3.6,1.8,5.1c-0.5,1.5,3.4-0.4,4.7-2.4
				c1.2-2,3.1-1.6,3.1-1.6S221.7,551,225.8,545.5z"/>
		</g>
		<path class="st24" d="M141.1,723.8c0.4-0.3,0.6-1,0.2-1.7c-2,1.4-2.7-0.6-3.5,0.2c-0.9,0.9-4.7,0.9-4,0c0.7-0.9,0.7-1.6-0.5-1.1
			c-1.1,0.5-3.6,1.9-8.5,0.6c-4.1-1.1-9.6-5.5-11.6-6.9c-0.3,0.5-0.5,1-0.8,1.6c1.7,1.8,8.7,5.9,11.5,7.3
			C126.7,725.3,140.1,724.5,141.1,723.8z"/>
	</g>
	<g>
		<path class="st15" d="M584.5,224.2c-2.4-1-6.8-3.7-6.3-4.4s3.9-1.4,3.9-1.4s-0.5-0.9-4.2-0.6c-3.7,0.3-5.3,0.5-5.3,0.5
			s-0.1,0-0.2,0.1c-5.7-2.8-11.5-5.7-17.1-8.6c-2.8-1.5-5.6-3-8-4.6c-0.6-0.4-1-0.7-1.3-1l-0.9-1.2c-0.7-1-1.5-2.2-2.2-3.4
			c-2-3.4-3.1-9.3-9-8.2c-1.3,0.2-2.6,0.5-3.7,1c-3,1.5-2.4,3-0.8,5c1.6,2.1,3.3,4.1,5,6.1c1,1.2,2,2.3,3.2,3.5l0.9,0.9
			c0.4,0.4,0.9,0.8,1.3,1.1c0.9,0.7,1.9,1.2,2.7,1.5c3.2,1.5,6.3,2.7,9.4,3.9c6.1,2.3,12.1,4.4,18.3,6.5c1.8,4.3,5.2,6.4,11.4,6.8
			C588.2,228.3,586.9,225.3,584.5,224.2z"/>
		<path class="st18" d="M540.5,204.9c-0.9-2.6,0.7-5.4,1.7-6.9c-1.6-3.3-3.1-7.5-8.1-6.6c-1.3,0.2-2.6,0.5-3.7,1c-3,1.5-2.4,3-0.8,5
			c1.6,2.1,3.3,4.1,5,6.1c1,1.2,2,2.3,3.2,3.5l0.9,0.9c0.4,0.4,0.9,0.8,1.3,1.1c0.9,0.7,1.9,1.2,2.7,1.5c3.2,1.5,6.3,2.7,9.4,3.9
			c2.1,0.8,4.2,1.5,6.3,2.3C556.9,216.1,541.7,208.4,540.5,204.9z"/>
		<path class="st28" d="M528.7,199.6c0,0,8.7,0.4,14.4-5c0,0-6.6-10.8-9.9-17.1c-3.3-6.4-9.1-7.4-14.2-4.9
			c-5.1,2.5-4.8,6.2-1.1,11.5C521.7,189.4,528.7,199.6,528.7,199.6z"/>
	</g>
	<path class="st11" d="M903.2,243.1L726,118.6c-12.9-9.1-32.6-8-43.9,2.3l-56.3,51.5c11.4-0.5,23.1,2.4,32.4,8.9
		c18.8,13.2,20.7,36.2,4.2,51.3c-16.5,15.1-45.2,16.6-64,3.4c-9.3-6.5-14.4-15.4-15.3-24.6L526.7,263c-11.3,10.4-10,26.1,2.9,35.2
		l69.1,48.6c-14.2-1.3-28.9,2.9-39.1,12.2c-16.5,15.1-14.6,38.1,4.2,51.3c18.8,13.2,47.5,11.7,64-3.4c10.1-9.3,13.3-21.5,9.9-32.7
		l69.1,48.6c12.9,9.1,32.6,8,43.9-2.3l155.4-142.1C917.5,268,916.2,252.2,903.2,243.1z"/>
	<g>
		<path class="st15" d="M416.2,231.6c0,0-3.8-0.2-7.1-0.6c-3.3-0.4-5.9-2-7-0.8c-1.1,1.2-1.1,11.7,0,14.1c1.1,2.4,6.8,3.5,8.8,2.7
			c2.1-0.8,1.1-2.4-1.2-3.3c-2.2-0.9-1.7-7.5-0.7-8.2c1.6,0.1,8.7,0,8.7,0L416.2,231.6z"/>
		<path class="st15" d="M494.8,237.7c-0.1,0-0.7,2.5-0.7,2.7c0,1.2,0.6,2.3,1.6,3.1c1.6,1.3,3.8,2.3,6.1,2.5
			c3.6,0.2,5.3,0.1,5.4,1.4c0.1,0.8-0.4,2-1.3,2.3c-0.5,0.2-6.1,0.2-8,0.1c-3.6-0.2-8.1-0.5-11.4-1.9c-2.7-1.4-2.3-2.3-1.1-4.5
			c1.2-2.2,5.4-7.2,5.4-7.2L494.8,237.7z"/>
		<path class="st29" d="M521.1,196.3l-0.1-0.7l0-0.3c0-0.2-0.1-0.5-0.2-0.8c-0.9-2.4-2.6-3.5-3.8-4.2l-0.9-0.5
			c-0.3-0.2-0.7-0.3-0.8-0.4l-1.3-0.5c-7.5-2.7-15.3-4.9-23.1-6.9c-7.1-1.8-16.2-1-23.6-1c-2.1,0-6.2-0.4-8,0.7
			c-1.5,0.9-1.3,3.1-1.6,4.5c-0.6,2.9-1.1,5.9-1.7,8.8c0.1,0,0.3,0,0.5,0c0,0,3.8,5.5,15.7,6.8c11.9,1.3,32.3-1.5,32.3-1.5
			c-0.3,1-0.7,2-1.1,3c-1.4,3.7-3.1,7.5-4.8,11.2l-5.2,11.3l-2.6,5.7l-1.3,2.9c-0.4,1-0.8,1.9-1.2,3.3l7,1.4
			c0.3-0.5,0.9-1.5,1.4-2.3l1.7-2.6l3.6-5.3l7.3-10.6c2.4-3.6,4.8-7.1,7.1-10.9c1.1-1.9,2.3-3.8,3.3-6c0.5-1.2,1.1-2.1,1.4-4.3
			C521.1,197.3,521.1,196.7,521.1,196.3z"/>
		<path class="st30" d="M480.9,191.4l-0.2-3.1l-0.1-1.5l-0.1-0.8c0-0.3,0-0.4-0.1-1.1l-28-3.9c0,0-5.1,12.6-1.5,23.9
			c3.6,11.3,13.7,26.3,13.7,26.3c-1.3,0.1-2.6,0.1-3.9,0.1c-4.8,0.1-9.8,0-14.8-0.2l-15-0.4l-7.6-0.2l-3.8-0.1
			c-1.3,0-7.1-0.1-8.9,0.1l0.5,5.8c0.7,0.1,18.7,2,18.7,2l14.8,2.2c5,0.7,10,1.4,15.1,2c2.6,0.3,5.2,0.5,8.1,0.7
			c1.5,0,2.8,0.2,5.5-0.2c0.2,0,0.9-0.2,1.4-0.3l0.8-0.3l0.4-0.1c0.2-0.1,0.6-0.3,0.8-0.4c2.6-1.4,3.3-3.1,3.7-4.2l0.3-0.9
			c0.1-0.3,0.2-0.6,0.2-0.7l0.2-1.1c0.3-2.6,0.4-4.6,0.5-6.8c0.1-2.1,0.1-4.2,0.1-6.2c0-4.1-0.1-8.2-0.2-12.2l-0.5-12.2L480.9,191.4
			z"/>
		<path class="st31" d="M501.9,246c-1.8-0.1-3.6-0.8-5-1.7c-0.6,0.4-1.4,0.6-2.6,0.4c-2.6-0.5-4.1-2.9-4.8-3.8
			c-0.4-0.5-1.2-0.7-1.8-0.8c-0.9,1.2-1.8,2.4-2.2,3.3c-1.2,2.2-1.5,3.1,1.1,4.5c3.3,1.4,7.7,1.7,11.4,1.9c2,0.1,7.5,0.1,8-0.1
			c1-0.4,1.4-1.6,1.3-2.3C507.1,246.1,505.5,246.2,501.9,246z"/>
		<path class="st31" d="M409.8,243.7c-1.1-0.4-1.5-2.3-1.6-4.1c-0.5,0-1.2,0-1.8-0.3c-1.8-0.6-1-5.9,0-6.6c0.6-0.4,0.9-1.4,1-2.1
			c-2-0.6-4.4-1.4-5.3-0.4c-1.1,1.2-1.1,11.7,0,14.1c1.1,2.4,6.8,3.5,8.8,2.7C413,246.3,412,244.6,409.8,243.7z"/>
		<path class="st32" d="M471.5,243.2c0.6,0,1.3-0.1,2.1-0.2c0.2,0,0.9-0.2,1.4-0.3l0.8-0.3l0.4-0.1c0.2-0.1,0.6-0.3,0.8-0.4
			c2.6-1.4,3.3-3.1,3.7-4.2l0.3-0.9c0.1-0.3,0.2-0.6,0.2-0.7l0.2-1.1c0.3-2.6,0.4-4.6,0.5-6.8c0.1-2.1,0.1-4.2,0.1-6.2
			c0-4.1-0.1-8.2-0.2-12.2l-0.5-12.2l-0.3-6.1l-0.2-3.1l-0.1-1.5l-0.1-0.8c0-0.3,0-0.4-0.1-1.1l-28-3.9c0,0-1,2.6-1.8,6.4
			c3.5,4.5,12.8,15.7,18.8,19.2c6,4.3,9.5,15.5,8.9,23.2C477.8,236.2,476.2,240.9,471.5,243.2z"/>
		<path class="st15" d="M526,170.3c0,0,8.3,2.3,16.5,0.7c-0.7,2.2-1.4,6.6-1.4,6.6s-10.1,0.1-13.7,0
			C523.7,177.5,526,170.3,526,170.3z"/>
		<path class="st3" d="M506.2,162.4c-16.6,0.2-33.1,4.9-47,12c-0.2,0.1-4.4,3-7.1,4.9c-1.3,0.9-1.4,2.4-0.3,3.5
			c4.6,4.4,17,15.5,30.1,20.9c3.3-3.4,23.4-12.6,35.7-12.8c12.4-0.2,14.5-5.1,15.1-12.6C533.8,165.9,518.9,162.2,506.2,162.4z"/>
		<path class="st33" d="M533.8,171c0-0.3-0.3-0.6-0.6-0.7c-1-0.2-2.3-0.5-3.2-0.7c-0.5-0.1-0.9,0.1-1.1,0.5c-1.5,4.7,0,9.1,0.6,10.6
			c0.1,0.4,0.6,0.6,1.1,0.4c1-0.3,2.7-0.9,3.2-2.3C534.5,177.2,533.9,173.2,533.8,171z"/>
		<path class="st26" d="M529.9,186.9c-10.2,2.6-16.6-1.7-20.8-4.7c-4.2,8.3-12.3,10.6-23.4,10.8c-15.5,0.2-28.7-9.2-33.9-13.5
			c-0.9,0.9-0.9,2.2,0,3.1c4.6,4.4,17,15.5,30.1,20.9c3.3-3.4,23.4-12.6,35.7-12.8C524.1,190.7,527.8,189.3,529.9,186.9z"/>
		<path class="st15" d="M549.3,241.7c-2.1-1.3-5.9-4.6-5.2-5.2c0.7-0.6,4.2-0.8,4.2-0.8s-0.3-1-4-1.2c-3.7-0.2-5.3-0.2-5.3-0.2
			c-3.8-4.5-7.6-9-11.1-13.6c-1.7-2.3-3.5-4.6-4.9-6.8c-0.4-0.6-0.6-1-0.7-1.4l-0.2-1.4c-0.1-1.2-0.2-2.5-0.2-3.8
			c-0.1-2.5,1.3-7.9-1.4-9.3c-1.9-1-8.6-2.3-10.1-0.1c-0.6,0.9,0.6,3.9,0.8,4.9c0.3,1.7,0.7,3.5,1,5.2c0.3,1.4,0.6,2.8,1,4.3
			l0.3,1.1c0.2,0.5,0.4,1,0.6,1.5c0.5,0.9,1.1,1.7,1.6,2.3c2.1,2.5,4.3,4.5,6.6,6.7c4.5,4.2,9,8.3,13.6,12.3
			c0.8,4.8,3.6,7.4,9.8,8.7C552.1,246.2,551.5,243,549.3,241.7z"/>
		<path class="st18" d="M516.4,212.1c-0.6-3.5,4-6.8,5.8-8c0.2-2.4,0.2-5.2-1.6-6.1c-1.9-1-8.6-2.3-10.1-0.1c-0.6,0.9,0.6,3.9,0.8,5
			c0.3,1.7,0.7,3.5,1,5.2c0.3,1.4,0.6,2.8,1,4.3l0.3,1.1c0.2,0.5,0.4,1,0.6,1.5c0.5,0.9,1.1,1.7,1.6,2.3c2.1,2.5,4.3,4.5,6.6,6.7
			c1.9,1.8,3.9,3.6,5.8,5.4C527.6,228.5,517.1,216.4,516.4,212.1z"/>
		<path class="st3" d="M508.6,201.9c0,0,7.8,3.1,15.7,0c0,0-0.7-12-0.6-18.9c0.1-6.9-4.6-9.7-10.6-9c-5.9,0.7-7.5,4.1-6.7,10.2
			C507.3,190.3,508.6,201.9,508.6,201.9z"/>
		<path class="st26" d="M506.5,183c0,0.4,0,0.8,0.1,1.2c0.8,6.1,2.1,17.7,2.1,17.7s7.8,3.1,15.7,0c0,0-0.1-1.3-0.2-3.3
			C512.8,198,508.2,189,506.5,183z"/>
		<path class="st15" d="M556.9,179.9c-0.5,0.3-10.6,5.6-15.4,4.9c-4.8-0.7-6.8-6.7-4.1-14.3c2.7-7.6,15.9-7.4,20.4-3.3
			C562.4,171.3,561.5,177.7,556.9,179.9z"/>
		<path class="st13" d="M573.2,178.5c-3.8-1.1-6.1-2.7-6.1-2.7s6-4.2,2.4-6c-3.6-1.8-6.4-1.9-6.4-1.9s4.5-4.8,1-5.7
			c-3.5-0.9-5.5,0.6-6.7,0c-1.2-0.5-17.5-1.8-22,6.2c-1,1.7,0.1,3.8,2.4,4.1c0.7,0.1,1.4,0,1.9-0.4c1.5-1.1,4.6-2.7,6.6-1.5
			c2,1.2,1.1,3.5-1.3,4.7c-2.4,1.2,3.1,2.3,6.7,0.5c0,0,4.8,10.9,12.1,10.3C571.1,185.4,577,179.5,573.2,178.5z"/>
		<path class="st24" d="M574.4,180c-9,4-19.1-6.1-19.7-8.2c-0.7-2.1-3.3-4.4-8.5-3.8c-3.8,0.5-7.4-1.1-9.1-1.9
			c-0.7,0.6-1.3,1.3-1.8,2.2c-1,1.7,0.1,3.8,2.4,4.1c0.7,0.1,1.4,0,1.9-0.4c1.5-1.1,4.6-2.7,6.6-1.5c2,1.2,1.1,3.5-1.3,4.7
			c-2.4,1.2,3.1,2.3,6.7,0.5c0,0,4.8,10.9,12.1,10.3C569.3,185.6,574,182.2,574.4,180z"/>
	</g>
	<g>
		<path class="st15" d="M522.8,456.3c0,0,2.2,9.7-1.8,11.8c-4,2.1,12.7,0.5,12.7,0.5s-4.3-10.1-3.5-13.5
			C528.4,454.1,522.8,456.3,522.8,456.3z"/>
		<path class="st18" d="M531,461c-0.7-2.3-1.1-4.6-0.8-5.9c-1.8-1-7.4,1.2-7.4,1.2s1.1,4.9,0.3,8.5C526.7,464.3,529.4,462.4,531,461
			z"/>
		<g>
			<path class="st15" d="M501.3,624.5c-4.7-1.5-6.1-4.9-6.1-4.9l2.3-3.2l-3.6-1.6l-2.3,3.2c0,0-2.4,1.8-3.9,4.2
				c-1.5,2.4,0.9,3.1,0.9,3.1c8,3.2,16.5,4.2,16.5,4.2s0,0,0.3-0.9C505.8,627.7,506,626,501.3,624.5z"/>
		</g>
		<g>
			<path class="st34" d="M488.6,625.3c8,3.2,16.5,4.2,16.5,4.2s0,0,0.3-0.9c0.3-0.9,0.6-2.6-4.1-4.1c-4.7-1.5-6.1-4.9-6.1-4.9
				c-2.9,0.5-3.6-1.6-3.6-1.6s-2.4,1.8-3.9,4.2C486.2,624.6,488.6,625.3,488.6,625.3z"/>
		</g>
		<path class="st35" d="M505.4,628.6c0,0,0-0.1,0-0.2c-10.6-1.5-16.1-3.9-18.2-5.1c-0.3,1.5,1.4,2,1.4,2c8,3.2,16.5,4.2,16.5,4.2
			S505.1,629.5,505.4,628.6z"/>
		<path class="st36" d="M511.2,509.5c0,0-5.1,16.5-4.4,24.2c0.7,7.7,4.7,28.6,4.7,28.6l0,0l0,2.1c0.4,0.1-1.1,3.1-1.8,5.2l-2.7,6.7
			l-5.4,13.3l-9.9,26.8l5.8,1.8l16-24.9l8-12.4l4-6.2l2-3.1c0.5-0.7,1.9-2.9,2.3-4.7l11.4-55.5L511.2,509.5z"/>
		<g>
			<path class="st35" d="M495.6,621.7c0.1,0,0.2,0,0.3-0.1c0.1-0.1,0.3-0.2,0.4-0.3c-0.1-0.1-0.2-0.3-0.3-0.4
				c-0.2,0.1-0.3,0.2-0.5,0.3c-0.1,0.1-0.1,0.3,0,0.4C495.5,621.6,495.6,621.7,495.6,621.7z"/>
			<path class="st35" d="M497,622.7c0,0,0.1,0,0.1,0.1c0.1,0,0.2,0,0.3-0.1c0.1,0,0.1-0.1,0.2-0.1c-0.1-0.1-0.3-0.2-0.4-0.4
				c-0.1,0-0.1,0.1-0.2,0.1C496.9,622.5,496.9,622.6,497,622.7z"/>
			<path class="st35" d="M498.7,623.9c0.1,0,0.2,0,0.3-0.1c0.1-0.1,0.2-0.1,0.3-0.2c-0.2-0.1-0.4-0.2-0.5-0.3
				c-0.1,0-0.1,0.1-0.2,0.1c-0.1,0.1-0.1,0.3,0,0.4C498.6,623.9,498.6,623.9,498.7,623.9z"/>
		</g>
		<path class="st37" d="M541.3,511.3l-30.1-1.7c0,0-5.1,16.5-4.4,24.2c0.2,2.2,0.7,5.5,1.2,9.1c3.3,3.2,8.3,6.8,15.5,8.8
			c2.8,2.3,2.8,6.8,2.6,9.7c-0.1,2.3-1.3,4.2-2.1,6.3c-2.2,6-4.3,11.7-7.3,17.5c-4.3,8.2-9.1,16.5-15.9,23.5
			c-2.4,2.5-5.1,4.9-8.5,6.5l-0.5,1.3l5.8,1.8l16-24.9l8-12.4l4-6.2l2-3.1c0.5-0.7,1.9-2.9,2.3-4.7L541.3,511.3z"/>
		<g>
			<g>
				<path class="st15" d="M554,622.3c-5.1,0.1-7.9-2.7-7.9-2.7l0.6-3.7l-4.1-0.4l-0.6,3.7c0,0-1.4,2.4-1.7,5
					c-0.3,2.7,2.3,2.6,2.3,2.6c8.9,0.5,17.3-1.1,17.3-1.1s0,0-0.1-0.9C559.6,623.9,559,622.3,554,622.3z"/>
			</g>
			<g>
				<path class="st34" d="M542.6,626.9c8.9,0.5,17.3-1.1,17.3-1.1s0,0-0.1-0.9c-0.1-0.9-0.7-2.6-5.8-2.5c-5.1,0.1-7.9-2.7-7.9-2.7
					c-2.5,1.3-4.1-0.4-4.1-0.4s-1.4,2.4-1.7,5C540,627,542.6,626.9,542.6,626.9z"/>
			</g>
			<path class="st35" d="M559.7,624.9c0,0,0-0.1,0-0.2c-10.5,1.9-16.8,1.2-19.3,0.8c0.5,1.5,2.2,1.4,2.2,1.4
				c8.9,0.5,17.3-1.1,17.3-1.1S559.8,625.8,559.7,624.9z"/>
		</g>
		<path class="st22" d="M563.3,559.3c-0.1-0.5-0.3-1-0.5-1.5l-0.3-0.9l-1.3-3.5c-0.9-2.3-1.8-4.5-2.7-6.8c-1.9-4.5-3.8-8.9-5.8-13.3
			c-4-8.8-8.1-17.5-12.4-26.3l-28.1,10.3c0,0-0.7,10.7,4.3,17.7s26.9,25.2,26.9,25.2l1,1.6l0.5,0.7c0.1,0.1,0.1,0.1,0.2,0.2
			c0.1,0.1,0.2,0.2,0.3,0.4c0.1,0.1,0.1,0.3,0.2,0.4l0,0l0,0.2l0,0.4l-0.1,0.9l-0.3,3.4l-0.6,6.9l-1.2,13.8l-2.4,27.5l5.7,0.7
			l8.6-26.8l4.3-13.4l2.2-6.7l1.1-3.4l0.3-0.8l0.1-0.4l0.1-0.2l0.1-0.4c0.2-1,0.3-2,0.3-3C563.8,561.3,563.6,560.3,563.3,559.3z"/>
		<path class="st27" d="M543.1,554.6c-2.4-3-4.9-5.9-6.9-9.2c-1.8-3-5.9-9.3-2.3-12.4c3.2-2.8,10.6-6.4,14.7-8.3
			c-2.2-4.7-4.4-9.3-6.7-14c-1.8-0.8-3.6-1.5-5.4-2.2l-24.4,9c0,0-0.7,10.7,4.3,17.7s26.9,25.2,26.9,25.2l1,1.6l0.5,0.7
			c0.1,0.1,0.1,0.1,0.2,0.2c0.1,0.1,0.2,0.2,0.3,0.4c0.1,0.1,0.1,0.3,0.2,0.4l0,0.2l0,0.4l-0.1,0.9l-0.3,3.4l-0.6,6.9l-1.2,13.8
			l-2.4,27.5l1.2,0.1c1.8-14.8,3.7-29.6,5.3-44.5c0.4-3.5,1.8-7.2,0.4-10.6c-0.4-0.9-0.9-1.8-1.5-2.7
			C545.5,557.6,544.3,556.1,543.1,554.6z"/>
		<path class="st15" d="M531.9,440.9c0.4,0.5,7.9,9.6,6.9,14c-1,4.4-9.4,6.2-20.2,3.7c-10.8-2.5-10.5-14.4-4.6-18.6
			C519.7,435.9,528.8,436.7,531.9,440.9z"/>
		<path class="st34" d="M523.5,431.1c0,0,5.8-7.3,9.5-0.5s-7.5,12.5-7.5,12.5c4.5,7.2,1.3,9.1,1.3,9.1s-1.9-2.9-3.5-2.7
			c-1.6,0.2-3.1,3,0.2,5c3.2,2,4.5,8.5-4.5,8.4c-3-0.4-4-2.6-4-2.6s-6.3,0.1-8.2-3.5c-1.9-3.7,0-5.3,0-5.3s-5-2.4-5-6.1
			c0-3.6,3.6-4.9,3.6-4.9s-1.5-4,1.1-5.9c2.6-1.9,7-1.2,7-1.2s0.6-3.9,4.3-4C521.4,429.3,523.5,431.1,523.5,431.1z"/>
		<path class="st13" d="M549.6,519.9c-0.8-3.4-2-9.1-2.8-14.4c-1.3-8.4-0.3-12.9,0-24.2c0.3-11.3-10.4-17.6-20.4-17.1
			c-17.5,0.8-17.8,13.7-17.8,13.7c0.9,15.2-1.7,36.6-2.4,45.3c-0.1,1.3,1,2.5,2.6,2.6c19.1,1.8,31.9-0.2,37.8-1.6
			C548.7,523.7,550,521.8,549.6,519.9z"/>
		<path class="st13" d="M536.8,466.2c-1-3.3-23.3-2.7-32.2-2c-12.9,0.9-5.1,4.2-4.7,5.6c0.4,1.5-5.1,3.3-6.8,6.1
			c-1.7,2.8-2,15.4,3.2,17.9c5.2,2.5,20.1-1.8,24.1-11.8C524.2,472.5,536.7,466.8,536.8,466.2z"/>
		<path class="st24" d="M536.8,466.2c-0.2-0.6-1.2-1.1-2.8-1.5c-3.3,2.7-13.3,3.5-16.3,4.5c-3.4,1.1,0.5,5.2-1.2,9.1
			c-1.7,3.9-6.2,9.4-14.8,9.3c-4.8-0.1-7.9-2.5-9.6-4.6c0.1,4.4,1.2,9.3,4.3,10.8c5.2,2.5,20.1-1.8,24.1-11.8
			C524.2,472.5,536.7,466.8,536.8,466.2z"/>
		<path class="st15" d="M583.8,409.5c-2.1,2-2.6,5.4-2.9,5.8c-0.4,0.4-1-1-2.3-2.3c-1.3-1.3-0.9,1.7-0.1,3c0.8,1.4,1.2,4.3,1.2,4.3
			c-2.1,4.7-4.4,9.3-6.9,13.9c-1,1.9-3.6,4.2-1.2,5.7c1.3,0.8,4.8,2,6.4,1c1.3-0.9,1.7-4.5,2.1-5.8c1.4-4.6,2.6-9.3,3.7-14
			c0,0,4.3-3.2,4-6.6S585.9,407.5,583.8,409.5z"/>
		<path class="st22" d="M577.2,422.5c0,0,0.5-2,1.4-2.1c0.9-0.1,5,0.6,5.5,1.1c0.5,0.5-0.6,2.2-0.6,2.2S579.2,424.6,577.2,422.5z"/>
		<path class="st13" d="M538.9,464.7c0,0-15.2,3.9-15.6,9.7c-0.4,5.8,4,8.7,7.8,10.4s10-1.2,20.4-7c10.4-5.8,19.2-11.4,23.1-21.8
			c2.5-7.4,8-24,8-25.9c0.1-2.5,2.3-3.8,2.4-5.3c0.1-1.5-8-3.2-9.9-1.9c-0.7,0.8-0.1,1.5-0.8,3.8
			C573.7,429.1,562.1,457.5,538.9,464.7z"/>
		<path class="st24" d="M585,424.8c0-0.2-0.2-0.5-0.5-0.7c-1.8,1.2-3.7,3-3.8,4.5c-0.4,5.3-2.5,10.4-4.5,15.5
			c-1.9,4.6-2.8,9.8-5.5,14.1c-4.8,7.9-14.3,14-24.3,17.2c-10.8,3.5-19.7,0.2-23.1-1.5c0,0.1-0.1,0.3-0.1,0.4
			c-0.4,5.8,4,8.7,7.8,10.4s10-1.2,20.4-7c10.4-5.8,19.2-11.4,23.1-21.8c2.5-7.4,8-24,8-25.9C582.7,427.7,584.9,426.3,585,424.8z"/>
		<path class="st24" d="M546.4,490.4c0.6,0.9-0.6,3.9-0.9,5c-0.5,2-1.2,4-1.9,5.9c-2.6,7.2-3.6,15.4-11.3,20.6
			c-3.9,2.7-7.5,2.3-12.3,2.4c-1.1,0-13.9-0.1-13.9-1c0,1.3,1.1,2.4,2.6,2.5c19.1,1.8,31.9-0.2,37.8-1.6c2.2-0.5,3.5-2.4,3.1-4.2
			c-0.8-3.4-2-9.1-2.8-14.4C545.9,499.8,546.1,495.9,546.4,490.4z"/>
		<path class="st38" d="M533,430.6c-1.1-2.1-2.4-2.8-3.7-2.9c0.9,2.7,2.6,10.2-6.7,12.9c-0.2,2.2-2,6.1-6.1,6.6
			c1.4,3.3,1.1,9-5.3,8.8c-1.7-0.4-3.7-0.3-4.6-4.5c0,0-1.9,1.6,0,5.3c1.9,3.7,8.2,3.5,8.2,3.5s1.1,2.2,4,2.6c9,0,7.7-6.4,4.5-8.4
			c-3.2-2-1.7-4.8-0.2-5c1.6-0.2,3.5,2.7,3.5,2.7s3.2-1.9-1.3-9.1C525.5,443.1,536.6,437.4,533,430.6z"/>
	</g>
	<path class="st2" d="M320.5,57.6c-3.7,3.2-7,6.5-10,9.9c-12.1,13.9-19.4,35.7-10.5,51.9c12.3,22.5,46.3,20,69.9,11.7
		c21.1-7.4,40.2-18.5,55.6-32.2c8.3-7.4,15.6-15.7,19-25.3c7-19.6-7.6-39.3-32.5-43.5C378.6,24.4,343.5,37.9,320.5,57.6z"/>
	<g class="st5">
		<path class="st6" d="M600.2,485.8h-1.6c-17.2,0-31.1,11.2-31.1,24.9v7.7l259.6,206.2h7.2c17.2,0,31.1-11.2,31.1-24.9v-3.2
			L600.2,485.8z"/>
		<path class="st6" d="M756.9,527.6c-3.4,5.4-8.5,10.1-14.6,13.5l123.1,97.8v-25.1L756.9,527.6z"/>
		<path class="st6" d="M679,490.8c1.5-1.8,3.2-3.5,5.1-5h-11.4L679,490.8z"/>
		<polygon class="st6" points="764.3,724.6 788.9,724.6 567.5,548.8 567.5,568.3 		"/>
	</g>
	<g>
		<path class="st15" d="M789.1,736.6c0,0,2.1-17.5,1.3-18.9c-3.1-1.5-9.1-0.3-12.3,0.2c-3.4,0.4-4.1,1-3.9,3.4
			c0.2,2.7,0.7,5.4,1,8.1c0.3,2.6,0.7,5.3,1,7.9l0.1,1l0.1,0.3l19.7,41.9l4.9-1.1L789.1,736.6z"/>
		<path class="st15" d="M778.6,716.2c-2.3-0.5-5.1-0.6-6.6-0.6c-2.6,0-7.4,0.2-8.8,2.4c-1.1,1.8-0.5,5.4-0.7,7.4
			c-0.3,3.1-0.6,6.2-0.9,9.3c0,0-0.1,0.9-0.1,0.9l0,0.2l7.8,44.3l5.2-0.3c0-14.6,0-29.2,0-43.8c0.5-1.7,0.9-3.4,1.4-5.1
			c-0.3-2,3.1-6,4-7.8c0.9-1.8,3.3-4.4,1.4-5.9C780.8,716.8,779.8,716.5,778.6,716.2z"/>
		<path class="st3" d="M774.6,777.7c0,0,1.7,0.9,1.7,3.6c0,2.6-0.8,7.1-0.8,7.1h-2.7v-4.8l-5.7,4.8c0,0-5.6,0-7.4,0
			c-1.8,0-0.7-2.5,2.9-3c3.6-0.4,5.3-3.5,6.9-5.7C771.6,779.9,774.1,778.7,774.6,777.7z"/>
		<path class="st3" d="M800.5,777.7c0,0,1.7,0.9,1.7,3.6c0,2.6-0.8,7.1-0.8,7.1h-2.7v-4.8l-5.7,4.8c0,0-5.6,0-7.4,0
			c-1.8,0-0.7-2.5,2.9-3c3.6-0.4,5.8-3.7,7.4-5.9C797.9,779.7,800,778.7,800.5,777.7z"/>
		<path class="st18" d="M777.3,718.7h-14.4c-0.7,1.9-0.2,5-0.4,6.8c-0.3,3.1-0.6,6.2-0.9,9.3c0,0-0.1,0.9-0.1,0.9l0,0.2l0.1,0.8
			c3.7,3.1,9.4,8.5,12.9,13.9c0-4.9,0-9.7,0-14.6c0.5-1.7,0.9-3.4,1.4-5.1c-0.2-1.8,2.5-5.3,3.7-7.3
			C778.3,720.9,777.3,718.7,777.3,718.7z"/>
		<path class="st18" d="M792.7,749.3l-3.5-12.7c0,0,1.1-9.4,1.4-15l-11.9-3.9c-0.2,0-0.4,0.1-0.5,0.1c-0.8,0.1-1.5,0.2-2.1,0.4
			l-1.3,7.6c0.2,1.1,0.3,2.3,0.5,3.4c0.3,2.6,0.7,5.3,1,7.9l0,0.2C780.5,740.1,788.1,745.3,792.7,749.3z"/>
		<path class="st15" d="M767.4,626c-4.1-3.8-8.3-7.7-11.7-11.6c-0.9-1-1.6-1.9-2.4-3l-2.4-3.3l-4.9-6.7l-7.3-9.4
			c0,0,0.5-5.5-0.9-7.4c-1.3-1.9-1.8-4.4-2.3-4.9c-0.5-0.5-1.3,2.5-0.6,4.1c-1.1-0.6-2.5-1.5-4.9-6.9c-0.6-1.5-2.1-0.8-0.9,1.5
			c1.2,2.2,1.7,3.9,1.3,4.4c-0.3,0.6-2.1,1.6-1.7,3.4c0.4,1.8,4.3,6,6.7,7.1l4.2,10.6l3.4,7.3l1.7,3.6c0.5,1.2,1.3,2.6,2,3.8
			c2.9,5,6.2,9.6,9.6,14.1c1.9,2.5,3.9,5,5.9,7.5c2.5,3.1,8,3.8,11.6,1.4l0,0c3.5-2.3,3.8-6.5,0.7-9.2
			C772.1,630.2,769.7,628.1,767.4,626z"/>
		<path class="st18" d="M770.8,642.6c0,0,2.1-1.2,4.6-2.7c1.8-2.4,1.6-5.5-0.9-7.7c-2.1-1.8-4.2-3.7-6.2-5.5
			c-7,1.3-14.5-1.9-19.4-4.7c2.3,3.6,4.9,7.1,7.5,10.5c1.9,2.5,3.9,5,5.9,7.5c1.5,1.9,4.1,2.9,6.7,2.8L770.8,642.6
			C770.7,642.6,770.7,642.6,770.8,642.6z"/>
		<path class="st15" d="M787.5,605.4c-5.4-3.8-13.8-3.1-16.7,0.8c-0.3,0.5-7.3,8.9-6.4,13c0.6,2.6,4.1,4.2,9.2,4.4
			c0.6,2.6,1,7.1-2.4,9.4c1.8,0.9,11.3,1.4,13.2-0.7c0,0-2.6-5.4-3.4-9.3c0.7-0.1,1.5-0.3,2.3-0.5
			C793.2,620.3,792.9,609.3,787.5,605.4z"/>
		<path class="st22" d="M781,628.4c-12.6-1.6-30.6,6.8-24.1,17.2c4.8,7.7,8.1,4.5,8.3,11.8c0.2,7.3-3.3,20.4-3.3,20.4
			s10.1,5.4,34.5,0c-2.5-8.9-5.4-23.5-4.3-37.8C792.6,632.7,787.6,629.2,781,628.4z"/>
		<path class="st15" d="M781.6,634.1c-5-1-9.9,1.6-10.7,5.7l-1.5,8.1l-1.5,7.8l-0.7,3.9c0,0.6-0.2,1.1-0.5,1.6
			c-0.2,0.3-0.4,0.5-0.7,0.7c-0.1,0.1-0.4,0.3-0.8,0.5l-1,0.6l-3.9,2.4l-7.9,4.7l-15.8,9.5c-1-0.1-3.7-0.3-5.3,0
			c-1,0.1-5.8,0.9-5.5,1.4c0.3,0.3,1.3,0.4,1.8,0.4c0.6,0.1,2-0.1,2.4,0.3c-0.1,0.1-0.3,0.2-0.4,0.4l-3.3,2.8
			c-1.7,1.3-2.6,3.5-1.1,3.3s6.9-2.1,6.9-2.1s-3.7,2.3-2.5,2.2c1.3-0.1,5.4-2.5,5.4-2.5c0.9-0.4,1.5-1.4,2.1-2
			c2-2.3,4.9-3.1,7.9-4.3c3.8-1.4,7.5-2.9,11.3-4.3l8.9-3.4l4.5-1.7l1.1-0.4c0.4-0.1,0.7-0.2,1.3-0.5c1.1-0.5,2.1-1.1,3-1.9
			c1.8-1.4,3.3-3.3,4-5.3l1.7-3.7l3.4-7.4l3.5-7.7C789.3,639.3,786.5,635.1,781.6,634.1z"/>
		<path class="st13" d="M761.9,677.8c0,0-4.7,20.4-3.3,34.9c1.4,14.5,1.5,17.1,1.5,17.1s6.2,2.5,19.1,2.5s17.2-2.5,17.2-2.5
			s-2.1-14.1,3-26c5.1-11.9,2.9-19-3-26C791,674.5,761.9,677.8,761.9,677.8z"/>
		<path class="st24" d="M799.3,703.8c1-2.3,1.7-4.4,2.1-6.3c-4.5,9.2-16.5,26.8-41.8,26.3c0.4,4.9,0.5,6,0.5,6s6.2,2.5,19.1,2.5
			s17.2-2.5,17.2-2.5S794.3,715.7,799.3,703.8z"/>
		<path class="st18" d="M785.4,635.8c-1-0.8-2.3-1.4-3.8-1.7c-5-1-9.9,1.6-10.7,5.7l-1.5,8.1l-1.5,7.8l-0.7,3.9
			c0,0.6-0.2,1.1-0.5,1.6c-0.2,0.2-0.4,0.5-0.6,0.7c-0.4,2.2-0.9,4.3-1.6,5.4c-1,1.6-2.6,4.2-3.9,6.3l4.6-1.8l4.5-1.7l1.1-0.4
			c0.4-0.1,0.7-0.2,1.3-0.5c1.1-0.5,2.1-1.1,3-1.9c1.8-1.4,3.3-3.3,4-5.3l1.7-3.7l3.4-7.4l2.3-5
			C785.9,642.7,785.6,638.6,785.4,635.8z"/>
		<path class="st3" d="M771.2,602.9c0,0,0.9,8.2,5.4,9.7c0.4,1.5-2.4,3.5-3.2,4.7c-0.8,1.3,6.4-1.6,7.8,0c1.4,1.6-1.4,5.3-4.3,6.3
			c-10.2,3.6-0.8,10.2-1,15.7c-0.1,3.8-3.7,6.9-5.2,10.3c-2.1,4.9,1.7,7,5.4,10.5c1.6,1.5,3,3.4,3.1,5.4c0.1,2.1-1.8,3.7-2.5,5.6
			c-0.8,2.4-0.4,5.5,0.9,7.7c1.3,2.1,3.7,3.7,6.3,4.7c6.8,2.8,15.4,2.1,21.5-1.5c5.8-3.5,11.7-12.9,5.9-18.1
			c-3.8-3.3-4.8-8.2-4.6-12.5c0.2-5.2,3.9-10,1.9-15.3c-1.7-4.3-6.8-6.3-9.2-10.1c-2.2-3.5-2.7-7.3-1.4-11c1.6-4.8-2.7-9.9-7.4-12.7
			C784.3,598.8,777.1,599.3,771.2,602.9z"/>
		<path class="st26" d="M811.1,664c-3.8-3.3-4.8-8.2-4.6-12.5c0.2-5.2,3.9-10,1.9-15.3c-0.3-0.7-0.7-1.4-1.2-2
			c1.1,1.5-6.1,4.8-7.1,5.2c-3.8,1.3-9.4,2.4-13.1,0.5c-4.8-2.5-6.2-11.1-3-14.9c2.4-2.8,5.4-10.1-2.3-12c-7.7-1.9-10-7.7-10-7.7
			c0.6,2.5,2,6.3,4.9,7.3c0.4,1.5-2.4,3.5-3.2,4.7c-0.8,1.3,6.4-1.6,7.8,0c1.4,1.6-1.4,5.3-4.3,6.3c-10.2,3.6-0.8,10.2-1,15.7
			c-0.1,3.8-3.7,6.9-5.2,10.3c-2.1,4.9,1.7,7,5.4,10.5c1.6,1.5,3,3.4,3.1,5.4c0.1,2.1-1.8,3.7-2.5,5.6c-0.8,2.4-0.4,5.5,0.9,7.7
			c1.3,2.1,3.7,3.7,6.3,4.7c6.8,2.8,15.4,2.1,21.5-1.5C811,678.6,816.9,669.1,811.1,664z"/>
	</g>
	<g>
		<path class="st15" d="M881.4,728.4c6.3,0.2,10-3.1,10-3.1l-0.6-4.6l5.1-0.4l0.6,4.6c0,0,1.7,3,1.9,6.3c0.2,3.3-3,3.1-3,3.1
			c-11.1,0.4-21.5-1.8-21.5-1.8s0,0,0.2-1.2S875.1,728.2,881.4,728.4z"/>
		<path class="st13" d="M896.9,725.6c-1,0.9-3.3,2.7-6.2,2.7c-1.9,0-3.2-0.3-4-0.7c-1.4,0.4-3.2,0.7-5.2,0.7c-6.3-0.2-7.1,1.8-7.3,3
			c-0.2,1.2-0.2,1.2-0.2,1.2s10.4,2.3,21.5,1.8c0,0,3.2,0.2,3-3.1C898.2,728.9,897.4,726.7,896.9,725.6z"/>
		<path class="st39" d="M919.9,618.1c0,0,1.6,10.4-2.1,19.1s-18.6,36.3-18.6,36.3l-0.1,1.6l-0.3,6.8l-0.5,13.6l-1,27.2l-8.2,0.2
			l-3.2-27.1l-1.6-13.5l-0.8-6.8l-0.2-1.8c-0.1-0.9,0-1.8,0.1-2.7c0.1-0.5,0.1-0.9,0.2-1.4l0.2-0.9l0.4-1.7l11.3-53.6L919.9,618.1z"
			/>
		<path class="st15" d="M928.3,727.4c6.1-1.3,8.4-5.4,8.4-5.4l-2.3-4.3l4.8-1.6l2.3,4.3c0,0,2.7,2.5,4.2,5.6
			c1.5,3.1-1.7,3.7-1.7,3.7c-10.5,3.1-21.2,3.4-21.2,3.4s0,0-0.3-1.1C922.2,730.9,922.2,728.8,928.3,727.4z"/>
		<path class="st3" d="M928.7,613c0,0,5,9.7,4.4,18.8c-0.6,9.2-5.6,39-5.6,39l0.5,1.6l2.1,6.6l4.1,13.2l8.2,26.4l-7.8,2l-12.3-25.4
			l-6.1-12.7l-3.1-6.3l-0.8-1.6c-0.4-0.9-0.7-1.8-0.9-2.7c-0.1-0.5-0.2-0.9-0.2-1.4l-0.1-0.9l-0.2-1.7l-7.3-54.1L928.7,613z"/>
		<path class="st13" d="M942.1,721.2c-0.6,1.1-2.2,3.4-5,4.1c-1.8,0.5-3.2,0.5-4.1,0.3c-1.2,0.8-2.7,1.5-4.7,1.9
			c-6.1,1.3-6.1,3.4-5.8,4.6c0.3,1.1,0.3,1.1,0.3,1.1s10.8-0.3,21.2-3.4c0,0,3.1-0.6,1.7-3.7C944.6,723.9,943,722.1,942.1,721.2z"/>
		<path class="st26" d="M932.7,635.6c0.2-1.4,0.3-2.7,0.4-3.7c0.2-2.2,0-4.5-0.4-6.6c-3.6-0.5-8.2-0.4-12.5,0.1
			c-4.4,0.5-10,2.6-14.5,4.4l5.1,38.2l0.2,1.7l0.1,0.9c0.1,0.5,0.1,0.9,0.2,1.4c0.2,0.9,0.5,1.8,0.9,2.7l0.8,1.6l3.1,6.3l1.4,2.9
			l0,0c-5.4-14.1-2-33.4,1.9-40.3C922.4,639.7,929.6,636.7,932.7,635.6z"/>
		<path class="st15" d="M885.3,605.9c-1-0.6-1.5-0.1-2.5,0.4c0,0-9.3,4.1-9.3,4.1l-18.2,8.6c0,0-2-2.2-4.5-3c-2.6-0.8-4.9-1-4.3-0.1
			c0.6,0.9,1.7,1.6,3.1,2.1c-2.1,0.4-6.1,0-9.2-1.6c-1.5-0.3-2.1,1.8,1.7,4.3c3.9,2.6,6.7,2.5,9.2,2.7c2.4,0.2,6.1-0.7,6.1-0.7
			l20-5.3c2.3-0.6,4.6-1.3,7-1.9c0.8-0.2,2.6-0.4,3.2-1c1.4-1.3,0.4-4.6-0.3-6C886.9,607.7,886.3,606.5,885.3,605.9z"/>
		<path class="st18" d="M885.3,605.9c-1-0.6-1.5-0.1-2.5,0.4c0,0-5.8,2.6-8.2,3.7c0.6,2,0.6,6.2-7.1,10.1c5-1.3,10-2.6,10-2.6
			c2.3-0.6,4.6-1.3,7-1.9c0.8-0.2,2.6-0.4,3.2-1c1.4-1.3,0.4-4.6-0.3-6C886.9,607.7,886.3,606.5,885.3,605.9z"/>
		<path class="st15" d="M897.1,550.4c-0.1,0.5-2.5,9.5,0,12.7c2.5,3.2,9.8,2.5,17.3-2.1c7.5-4.6,2.7-13.9-3.5-15.7
			C904.8,543.5,898,546.4,897.1,550.4z"/>
		<path class="st15" d="M915.2,569.8c0,0-3.9-5.7-3.3-11.8c-2.3,0.8-7.2,2-7.2,2s1.4,7.3,2.1,9.9
			C907.5,572.5,915.2,569.8,915.2,569.8z"/>
		<path class="st3" d="M916.7,562.5c-1.7,0.1-4.3-1.7-3.6-3.2c0.7-1.5,1.4-4.2-0.7-5.2c-2.1-1-4.3,0.4-4.8,2.5
			c-0.5,2.1-3.6-1.4-2.9-4.6c0,0-5.3-0.1-9-2.2c-2.4-1.4-3-4-1.8-6.1c0.6-1,1.2-2,2-2.9c0.4-0.5,1.3-1.9,2.2-1.7
			c0.8,0.2,0.7,1.2,1.7,1.2c1.1-0.1,2.3-1.5,3.2-2c0.8-0.5,1.9-1.7,3.1-1.7c1.6,0,1.1,1.8,2.3,2.1c0.8,0.2,2.2-0.6,3-0.8
			c1.4-0.3,2.8-0.5,4.3-0.5c1.6,0,0.4,2.2,1.3,2.6c0.8,0.4,2.9-0.6,4-0.3c1,0.3,0.8,1.5,0.7,2.2c-0.1,0.6-0.7,1.6-0.5,2.2
			c0.3,0.8,1,0.5,1.9,0.5c-0.2,3.4,0.4,6.9-0.1,10.3C922.6,557.7,921,562.1,916.7,562.5z"/>
		<path class="st30" d="M927.3,579.5c0,0-0.1-13.7-17.9-11.9c-8.3,2.2-16.8,7.1-15.6,19.8c1.3,12.7,1.3,15.4,0.8,24.9
			c-0.5,9.5-6.3,20.9-6.3,20.9s19,4.5,45.5-0.3C932.9,625.8,927.9,598.5,927.3,579.5z"/>
		<path class="st13" d="M915.6,565.8c-0.3-0.7-1.2-1.2-2.1-1.1c-2.8,0.4-8.1,1.2-8.8,1.9c-0.9,0.9,0,3.4,0,3.4s12-0.5,11.8-1.2
			C916.5,568.3,916,566.8,915.6,565.8z"/>
		<path class="st32" d="M896,605c-0.4,0.1-0.7,0.3-1.1,0.5c0,2-0.1,4.1-0.3,6.7c-0.5,9.5-6.3,20.9-6.3,20.9s19,4.5,45.5-0.3
			c-0.1-1-0.3-2.4-0.6-4C899.1,631.3,896,605,896,605z"/>
		<path class="st30" d="M908.3,574.8c-5.5,0.7-10.5,2.9-15,17.9c-2.2,12.1-16.7,15.2-16.7,15.2s1.8,7.6,5,9.2c0,0,14.8-2.6,20.4-6.9
			c5.6-4.3,15.3-23.4,17.2-27.5C921,578.5,913.7,574.1,908.3,574.8z"/>
		<path class="st32" d="M910.5,574.8c0,4.6-0.5,25.6-13.9,33.5c-6.5,4.1-12.6,6.5-16.4,7.7c0.4,0.5,0.8,0.9,1.3,1.1
			c0,0,14.8-2.6,20.4-6.9c5.6-4.3,15.3-23.4,17.2-27.5C920.8,579,915.5,575.2,910.5,574.8z"/>
		<path class="st26" d="M922.9,555.7c-5.3,2.7-7.3-5.1-7.7-4.4c-0.4,0.7-4,0.5-5.2-1.7c-1.2-2.2-0.8-1.6-5.2-0.9
			c-6,0.6-9.3-2.1-11-4.3c-0.8,2-0.1,4.2,2.1,5.5c3.7,2.1,9,2.2,9,2.2c-0.7,3.2,2.3,6.8,2.9,4.6c0.5-2.1,2.7-3.5,4.8-2.5
			c2.1,1,1.4,3.7,0.7,5.2c-0.7,1.5,1.9,3.3,3.6,3.2C920.6,562.2,922.3,558.5,922.9,555.7z"/>
	</g>
	<g>
		<path class="st6" d="M229.2,504.7c-0.3,1.3-0.4,2.6-0.4,4v20.8l243.1,193.1h23.7c2.4,0,4.8-0.2,7.1-0.7L229.2,504.7z"/>
		<path class="st6" d="M514.8,635.8c-6,2.3-12.7,3.7-19.8,3.7c-25,0-45.4-16.3-45.4-36.4c0-5.6,1.6-10.9,4.4-15.6L323.3,483.7h-63.4
			c-3.2,0-6.2,0.4-9.1,1.1l275,218.4c0.5-1.8,0.8-3.7,0.8-5.6v-52.4L514.8,635.8z"/>
	</g>
	<g>
		<path class="st15" d="M357.7,591.8c-1.4-1.5-0.2-2.4,1-4c2.6-3.6,5-7.4,7.1-11.2c-0.1-0.6-0.4-2.5-1-3.5c-0.7-1.1-1-3.7,0.1-2.5
			c1.1,1.1,1.7,2.3,2,2c0.3-0.3,0.7-3.3,2.5-5c1.8-1.7,3.1,1.3,3.3,4.3c0.2,3-3.5,5.7-3.4,5.7c0.7,0.4-3.5,10-3.9,11
			c-0.4,1-1,4.3-2.2,4.9c-1.4,0.7-4.3-0.7-5.2-1.5C357.9,592,357.8,591.9,357.7,591.8z"/>
		<path class="st3" d="M369.2,582.3c0,0-3.2-3.8-6.8-2.4c0,0-8.4,16.5-18.9,23.1c-10.5,6.6-30.7,12.9-31.9,15.8
			c-1.2,2.9-1.2,14.2,10.4,13.7c11.6-0.5,31.7-15.4,37-26.4C364.3,595,369.2,582.3,369.2,582.3z"/>
		<path class="st26" d="M311.6,618.7c0.4-0.9,2.4-2,5.4-3.4c7.2,0.7,13.7,8,17.5,7.2c9.2-2.8,19-11.9,25.9-19.3
			c-0.4,0.9-0.9,1.9-1.3,2.8c-5.3,11.1-25.4,25.9-37,26.4C310.4,633,310.3,621.6,311.6,618.7z"/>
		<path class="st15" d="M346.3,773.4c-5.6,0.2-8.8-2.8-8.8-2.8l0.6-4.1l-4.6-0.3l-0.6,4.1c0,0-1.5,2.7-1.7,5.6
			c-0.2,3,2.6,2.8,2.6,2.8c9.8,0.4,19.1-1.6,19.1-1.6s0,0-0.1-1C352.6,775,351.9,773.2,346.3,773.4z"/>
		<path class="st40" d="M292.2,669.5c3.5,4.3,7.1,9.1,10.6,13.7c3.4,4.7,6.8,9.4,9.9,14.1c3.1,4.8,6.2,9.5,8.8,14.4
			c2.7,4.8,5.1,9.7,6.8,14.5l-0.1-0.7c0.7,3.2,1.1,6.7,1.5,10.2c0.3,3.5,0.5,7.1,0.7,10.7c0.3,7.2,2.2,14.6,2.1,21.8l6.3,0.6
			c1.8-7.2,3.4-14.4,4.8-21.8c0.7-3.7,1.3-7.3,1.8-11.1c0.5-3.8,0.9-7.5,1-11.5l-0.1-0.7c-0.7-6.2-2.2-11.9-3.9-17.7
			c-1.7-5.7-3.7-11.2-5.8-16.7c-2.1-5.5-4.5-10.9-6.9-16.3c-2.5-5.4-4.9-10.6-7.8-16.2L292.2,669.5z"/>
		<path class="st13" d="M333.9,778.7c0,0-2.8,0.2-2.6-2.8c0.1-1.8,0.7-3.5,1.2-4.5c0,0,2.8,2.4,8.3,1.1c0,0,0,0,0,0
			c1.4,0.6,3.3,1,5.6,0.9c5.6-0.2,6.3,1.6,6.4,2.7c0.1,1,0.1,1,0.1,1S343.7,779.1,333.9,778.7z"/>
		<path class="st41" d="M320.4,709.7c-2.4-4.2-5-8.3-7.7-12.4c-3.1-4.8-6.5-9.5-9.9-14.1c-2-2.7-4.1-5.5-6.2-8.2l18-14.9
			c0,0,6.6,3.2,12.3,6.7c1,2.1,2,4.2,2.9,6.3c0.9,1.9,1.7,3.9,2.6,5.8C328.8,686.1,322.8,699.3,320.4,709.7z"/>
		<path class="st15" d="M221.1,742.4c-1.7-4.3,0.9-7.6,0.9-7.6l5.1-0.7l-0.8-3.6l-5.1,0.7c0,0-3.6-0.4-7.2,0.2
			c-3.6,0.6-2.6,2.8-2.6,2.8c2.2,7.7,7.1,14.3,7.1,14.3s0,0,1.2-0.4C220.8,747.7,222.8,746.7,221.1,742.4z"/>
		<path class="st30" d="M256.4,721.5c5.6-1.3,11.1-2.7,16.3-4.2c2.6-0.8,5.2-1.6,7.5-2.5c1.1-0.4,2.3-0.9,3.2-1.4
			c1-0.5,1.6-0.9,2-1.2c-0.1,0,0.1-0.2-0.5,0.2c-0.1,0.1-0.2,0.2-0.2,0.2c0,0-0.1,0-0.1,0c0,0-0.1,0.1,0-0.1l0.2-0.8
			c0.1-0.2,0.1-0.6,0.2-0.9c-1.5-5-6.7-22.3-6.5-29.5c0.3-8.5,5.1-18.1,5.1-18.1l31-0.4c-0.7,9.8-1.8,19.4-3.3,29.1
			c-0.8,4.9-1.6,9.8-2.9,14.8c-0.6,2.5-1.3,5.1-2.4,7.9c-0.3,0.7-0.5,1.4-0.9,2.2l-0.6,1.2c-0.2,0.4-0.5,0.9-0.7,1.3
			c-0.2,0.4-0.6,0.9-1,1.5l-0.6,0.8c-0.2,0.3-0.6,0.6-0.9,0.9c-1.4,1.4-2.5,1.9-3.6,2.7c-2.1,1.1-4,1.8-5.7,2.4
			c-1.7,0.6-3.4,1-5,1.4c-3.2,0.8-6.3,1.4-9.4,1.9c-6.1,1-12.1,1.7-18.1,2.4c-12,1.2-23.8,2.1-35.8,2.6l-1-6.3
			C234,727.7,245.2,724,256.4,721.5z"/>
		<path class="st13" d="M214,731.4c1.9-0.3,3.7-0.4,5.1-0.3c-0.2,1.5-0.3,5.3,1.5,7.1c-0.2,1.2-0.2,2.6,0.5,4.2
			c1.7,4.3-0.2,5.3-1.4,5.7c-1.2,0.4-1.2,0.4-1.2,0.4s-4.9-6.6-7.1-14.3C211.3,734.2,210.4,732.1,214,731.4z"/>
		<path class="st32" d="M280,672.3c1.5-5.1,3.5-9.1,3.5-9.1l31-0.4c-0.7,9.8-1.8,19.4-3.3,29.1c-0.8,4.9-1.6,9.8-2.9,14.8
			c-0.6,2.5-1.3,5.1-2.4,7.9c-0.3,0.7-0.5,1.4-0.9,2.2l-0.6,1.2c-0.2,0.4-0.5,0.9-0.7,1.3c-0.2,0.4-0.6,0.9-1,1.5l-0.6,0.8
			c-0.2,0.3-0.6,0.6-0.9,0.9c-1.4,1.4-2.5,1.9-3.6,2.7c6.4-6.9,9.1-21.5,5.5-32.3C300.5,684.9,287.2,676.5,280,672.3z"/>
		<path class="st3" d="M278.7,670c1.7-4.5,7.6-20.6,7.6-35.8c0-17.9,2.7-23.9,23.3-21.3c11.4,1.4,16.5,3,16.8,12.2
			c0.1,2.4-0.9,9.5-1,11.8c-0.2,4.3-0.5,8.5-0.3,12.8c0.4,7.4,3.1,16.4,6.4,23.6c0.5,1-0.3,2.1-1.5,2.3c-2.7,0.3-9.1,0.9-16.8,1.5
			c-12.8,0-28.6-4-33.5-5.3C278.8,671.4,278.4,670.7,278.7,670z"/>
		<path class="st15" d="M311.6,607c-0.2,1.4-0.3,2.8-0.3,4.2c0,1.4,0,2.3,1.3,3.4c1,0.8,1.1,1.7,0,2.4c-1.3,0.8-2.9,1-4.4,0.5
			c-1-0.3-1.8-0.7-2.7-1.1c-1-0.5-1.9-1.1-1.7-2.2c0.3-1.3,0.8-2.6,1.3-3.8c0.1-0.4,1.8-5.4,2.1-5.4
			C309.9,605.1,311.6,607,311.6,607z"/>
		<path class="st26" d="M278.7,670c1.7-4.3,7.3-19.4,7.5-34c2.2-0.9,3.6-1.5,3.6-1.5s-1,36.4,41.7,39.9c-0.2,0.6-0.8,1-1.5,1.1
			c-2.7,0.3-9.1,0.9-16.8,1.5c-12.8,0-28.6-4-33.5-5.3C278.8,671.4,278.4,670.7,278.7,670z"/>
		<path class="st15" d="M279.9,650.4c0.4-0.2,0.7-0.4,1.1-0.5c2.1-0.3,3.1,2.2,4.1,3.4c3,3.8,6.1,7.5,9.2,11.2
			c0.2,0,0.3-0.1,0.3-0.1s2.8,1.3,4.5,1.5c1.5,0.2,4.4,1.5,2.6,1.6c-1.8,0.1-3.4-0.3-3.3,0.1c0.2,0.4,3,2.4,3.8,4.7
			c0.7,2.2-3.2,1.3-6.4-0.3c-3.2-1.6-3.9-5.7-3.9-5.7c0-0.1,0-0.2,0-0.3c-4-2.8-7.9-5.7-11.6-8.7c-1.5-1.2-3.1-2.1-2.8-3.9
			C277.6,652.6,278.7,651.1,279.9,650.4z"/>
		<path class="st3" d="M307.4,622.7c0,0.5,0,1.1-0.1,1.5c-0.3,1.3-1.3,2.5-2.5,3.5c-2.9,2.5-6.5,4.6-10.1,6.4
			c-1.4,0.7-14.4,6.7-14.6,6.4l12.1,20c0,0-1.3,2.7-5.5,3.1c-3.6-1.7-20.4-15-23.5-21.7c-3.2-6.7,14.7-19.5,21.5-24.1
			c3.5-2.4,8.2-5,13-4.7C302.9,613.3,307.2,618.5,307.4,622.7z"/>
		<path class="st26" d="M286.2,632.2c10.4-3,16.5-10.3,19.3-14.4c1.1,1.6,1.7,3.3,1.8,4.9c0,0.5,0,1.1-0.1,1.5
			c-0.3,1.3-1.3,2.5-2.5,3.5c-2.9,2.5-6.5,4.6-10.1,6.4c-1.4,0.7-14.4,6.7-14.6,6.4c0,0,12.1,20,12.1,20s0,0-0.1,0.1
			c-4.3-4.2-13.7-13.3-16.4-16.5C272.1,639.9,271.3,636.5,286.2,632.2z"/>
		<path class="st18" d="M304.5,611.6c0.1-0.4,0.3-0.8,0.4-1.1c0.1-0.4,1.8-5.4,2.1-5.4c2.8,0.1,4.5,1.9,4.5,1.9
			c-0.2,1.3-0.3,2.5-0.3,3.8C309.6,611.5,307.3,612,304.5,611.6z"/>
		<path class="st15" d="M321.6,594.9c0.1,0.5,2.6,10,0,13.3c-2.6,3.4-10.3,2.6-18.2-2.2c-7.9-4.9-2.8-14.6,3.7-16.5
			C313.5,587.7,320.7,590.7,321.6,594.9z"/>
		<path class="st3" d="M297.4,601.4c0,0,1.4,8.2,11.3,7.4c-1.5-2.5-4.9-5.1-4.5-6.9c0.4-1.8,2.8-1.9,4,0c0.9,1,2.7-0.6,2-2.7
			c-0.7-2.2-1.8-3.1-1-4.4C309.9,593.3,298.9,596.4,297.4,601.4z"/>
		<path class="st30" d="M312.2,594.6c0,0-11.9,4.9-14.9,6.8c-0.3-4.1-0.9-13.2,8.8-15.1c12-2.3,14.8,7,14.8,7
			S314.7,593.5,312.2,594.6z"/>
		<path class="st13" d="M321.7,595.7c0,0-4.7-1.6-9.5-1.1c0,0,0.8-10.2,11.4-9.9C333.2,584.9,328.9,591.6,321.7,595.7z"/>
		<path class="st32" d="M310,595.5c-3.6,1.5-10.4,4.5-12.6,5.9c-0.2-2.3-0.5-6.2,1.1-9.5C298.9,593,300.9,596.1,310,595.5z"/>
	</g>
	<g>
		<g>
			<g>
				<path class="st42" d="M582.9,724.3c-0.8,0-1.5-0.4-1.8-1L541.4,630c-0.3-0.8,0.2-1.6,1.2-1.9c1-0.3,2,0.1,2.4,0.9l39.8,93.3
					c0.3,0.8-0.2,1.6-1.2,1.9C583.3,724.3,583.1,724.3,582.9,724.3z"/>
			</g>
			<g>
				<path class="st42" d="M619.5,724.3c-0.8,0-1.5-0.4-1.8-1L577.9,630c-0.3-0.8,0.2-1.6,1.2-1.9c1-0.3,2,0.1,2.4,0.9l39.8,93.3
					c0.3,0.8-0.2,1.6-1.2,1.9C619.9,724.3,619.7,724.3,619.5,724.3z"/>
			</g>
			<g>
				<path class="st42" d="M614.6,712.7h-36.4c-1,0-1.9-0.7-1.9-1.5c0-0.8,0.8-1.5,1.9-1.5h36.4c1,0,1.9,0.7,1.9,1.5
					C616.4,712,615.6,712.7,614.6,712.7z"/>
			</g>
			<g>
				<path class="st42" d="M608.8,699.1h-36.4c-1,0-1.9-0.7-1.9-1.5c0-0.8,0.8-1.5,1.9-1.5h36.4c1,0,1.9,0.7,1.9,1.5
					C610.6,698.4,609.8,699.1,608.8,699.1z"/>
			</g>
			<g>
				<path class="st42" d="M602.9,685.5h-36.4c-1,0-1.9-0.7-1.9-1.5c0-0.8,0.8-1.5,1.9-1.5h36.4c1,0,1.9,0.7,1.9,1.5
					C604.8,684.8,604,685.5,602.9,685.5z"/>
			</g>
			<g>
				<path class="st42" d="M597.1,671.8h-36.4c-1,0-1.9-0.7-1.9-1.5c0-0.8,0.8-1.5,1.9-1.5h36.4c1,0,1.9,0.7,1.9,1.5
					C599,671.2,598.2,671.8,597.1,671.8z"/>
			</g>
			<g>
				<path class="st42" d="M591.3,658.2h-36.4c-1,0-1.9-0.7-1.9-1.5c0-0.8,0.8-1.5,1.9-1.5h36.4c1,0,1.9,0.7,1.9,1.5
					C593.2,657.6,592.3,658.2,591.3,658.2z"/>
			</g>
			<g>
				<path class="st42" d="M585.5,644.6h-36.4c-1,0-1.9-0.7-1.9-1.5c0-0.8,0.8-1.5,1.9-1.5h36.4c1,0,1.9,0.7,1.9,1.5
					C587.4,643.9,586.5,644.6,585.5,644.6z"/>
			</g>
		</g>
		<g>
			<g>
				<path class="st42" d="M461.8,724.3c-0.2,0-0.4,0-0.6-0.1c-1-0.3-1.5-1.1-1.2-1.9l39.8-93.3c0.3-0.8,1.4-1.2,2.4-0.9
					c1,0.3,1.5,1.1,1.2,1.9l-39.8,93.3C463.3,723.9,462.6,724.3,461.8,724.3z"/>
			</g>
			<g>
				<path class="st42" d="M425.2,724.3c-0.2,0-0.4,0-0.6-0.1c-1-0.3-1.5-1.1-1.2-1.9l39.8-93.3c0.3-0.8,1.4-1.2,2.4-0.9
					c1,0.3,1.5,1.1,1.2,1.9L427,723.3C426.7,723.9,426,724.3,425.2,724.3z"/>
			</g>
			<g>
				<path class="st42" d="M466.6,712.7h-36.4c-1,0-1.9-0.7-1.9-1.5c0-0.8,0.8-1.5,1.9-1.5h36.4c1,0,1.9,0.7,1.9,1.5
					C468.4,712,467.6,712.7,466.6,712.7z"/>
			</g>
			<g>
				<path class="st42" d="M472.4,699.1H436c-1,0-1.9-0.7-1.9-1.5c0-0.8,0.8-1.5,1.9-1.5h36.4c1,0,1.9,0.7,1.9,1.5
					C474.3,698.4,473.4,699.1,472.4,699.1z"/>
			</g>
			<g>
				<path class="st42" d="M478.2,685.5h-36.4c-1,0-1.9-0.7-1.9-1.5c0-0.8,0.8-1.5,1.9-1.5h36.4c1,0,1.9,0.7,1.9,1.5
					C480.1,684.8,479.2,685.5,478.2,685.5z"/>
			</g>
			<g>
				<path class="st42" d="M484,671.8h-36.4c-1,0-1.9-0.7-1.9-1.5c0-0.8,0.8-1.5,1.9-1.5H484c1,0,1.9,0.7,1.9,1.5
					C485.9,671.2,485,671.8,484,671.8z"/>
			</g>
			<g>
				<path class="st42" d="M489.8,658.2h-36.4c-1,0-1.9-0.7-1.9-1.5c0-0.8,0.8-1.5,1.9-1.5h36.4c1,0,1.9,0.7,1.9,1.5
					C491.7,657.6,490.9,658.2,489.8,658.2z"/>
			</g>
			<g>
				<path class="st42" d="M495.6,644.6h-36.4c-1,0-1.9-0.7-1.9-1.5c0-0.8,0.8-1.5,1.9-1.5h36.4c1,0,1.9,0.7,1.9,1.5
					C497.5,643.9,496.7,644.6,495.6,644.6z"/>
			</g>
		</g>
		<path class="st25" d="M583.4,626.9H461.9c-1.8,0-3.3,1.2-3.3,2.6c0,1.5,1.5,2.6,3.3,2.6h121.6c1.8,0,3.3-1.2,3.3-2.6
			C586.7,628,585.2,626.9,583.4,626.9z"/>
	</g>
	<g>
		<path class="st15" d="M693.1,701.1c-2.2,0.4-7.4,0.2-7.4,0.2s4.3-0.9,4.8-1.5s-1.7-0.3-3.8-0.1c-2.1,0.1-7.4,0.3-7.4,0.3
			c-6.5-1.7-12.9-4.3-19.1-6.4c-3.1-1.1-6.2-2.2-8.9-3.5c-1.4-0.6-2.7-1.3-3.6-1.9c-1.1-0.8-0.6-0.6-1.4-1.8
			c-1.2-2.2-2.4-4.8-3.6-7.3c-1.1-2.6-2.2-5.2-3.3-7.8c-1.2-2.9-2.4-5.9-3.5-8.9c-1.5-3.7-6.6-5.7-11.1-4.3
			c-4.7,1.4-6.8,5.8-4.6,9.3c1.7,2.8,3.5,5.7,5.3,8.5c1.6,2.5,3.2,5,5,7.5c1.7,2.5,3.4,5,5.6,7.7c0.3,0.3,0.7,0.7,1,1.1l0.5,0.6
			c0.2,0.2,0.6,0.5,0.8,0.7c1.2,0.9,2.2,1.5,3.2,1.9c2,0.9,3.7,1.5,5.5,2c3.6,1,7,1.8,10.5,2.5c6.9,1.4,13.8,2.4,20.8,3.3l0,0
			c5.1,3.5,9,2.2,12.8,0.9C695.1,702.7,695.4,700.7,693.1,701.1z"/>
		<path class="st18" d="M668.4,701.7c-0.2,0-15-4.3-16.8-7.5c-0.6-1-1.2-2.9-1.7-4.9c-0.8-0.4-1.6-0.8-2.2-1.2
			c-1.1-0.8-0.6-0.6-1.4-1.8c-1.2-2.2-2.4-4.8-3.6-7.3c-1.1-2.6-2.2-5.2-3.3-7.8c-1.2-2.9-2.4-5.9-3.5-8.9
			c-1.5-3.7-6.6-5.7-11.1-4.3c-4.7,1.4-6.8,5.8-4.6,9.3c1.7,2.8,3.5,5.7,5.3,8.5c1.6,2.5,3.2,5,5,7.5c1.7,2.5,3.4,5,5.6,7.7
			c0.3,0.3,0.7,0.7,1,1.1l0.5,0.6c0.2,0.2,0.6,0.5,0.8,0.7c1.2,0.9,2.2,1.5,3.2,1.9c2,0.9,3.7,1.5,5.5,2c3.6,1,7,1.8,10.5,2.5
			C661.2,700.6,664.8,701.2,668.4,701.7z"/>
		<path class="st15" d="M582,809.9c0-2.2,3-5.7,3-5.7l-3.9-2.1c0,0-2.5,2.7-3.1,3.6c-0.5,0.9-3.6,3.6-4.6,5.5c0,0,8.7,6.6,10.4,7.2
			c1.7,0.7,6,0.2,6.6,0c0.6-0.2,0-2-2.1-2.3C586.1,815.8,582,812.8,582,809.9z"/>
		<path class="st43" d="M609.4,701.2c0,0-7.9,12.8-7.3,22.8c0.6,10.1,4.5,33.2,4.5,33.2c0,0.1,0,0.2-0.2,0.4l-0.5,0.8l-0.9,1.5
			l-3.7,6.2l-7.4,12.3l-14.7,24.7l5.1,2.4l19.3-22.6l9.7-11.3l4.8-5.6l1.2-1.4l0.6-0.7c0.2-0.3,0.6-0.8,0.8-1.1
			c1.1-1.6,1.9-3.4,2.3-5.2l13.3-53.7L609.4,701.2z"/>
		<path class="st3" d="M590.6,818c0-0.6-0.8-1.6-2.3-1.9c-1.2-0.2-2.9-1.2-4.3-2.5c-0.2-0.1-0.5-0.1-0.8-0.2
			c-3.2-0.9-5.8-4.2-5.4-5.1c0.2-0.5-0.3-0.9-0.9-1.3c-1.2,1.2-2.8,2.9-3.5,4.2c0,0,8.7,6.6,10.4,7.2c1.7,0.7,6,0.2,6.6,0
			C590.5,818.4,590.6,818.2,590.6,818C590.6,818,590.6,818,590.6,818z"/>
		<path class="st44" d="M622.2,760c0.3-0.8,0.6-1.7,0.8-2.5l11.9-48.3c-0.6-0.4-1.3-0.7-1.9-0.9c-3.8-0.9-17.1-5.3-23.9-6.8
			c-1,1.7-6.2,10.9-7,19.3c2.4,5,6.6,12.3,12.3,17.2C620.4,743.3,622.6,753.5,622.2,760z"/>
		<path class="st15" d="M652.6,810.5c0,0,0,4.7,2.6,5.7c2.6,1,7.6,0.1,10.7,1.8c3.1,1.7,3.1,1.9,0.9,2.6c-2.2,0.7-16.2,1.2-18.9,1.1
			c-0.5-2.1,0.2-5.8,0-6.8c-0.2-1,0-4.4,0-4.4H652.6z"/>
		<path class="st13" d="M656.1,756.4c-0.1-2.4-0.2-4.9-0.6-7.6c-0.4-2.6-1-5-1.5-7.4c-1.2-4.8-2.5-9.4-3.9-14
			c-2.8-9.2-5.9-18.2-9.2-27.3l-26.4,8.2c0,0,1.4,15.3,5.9,23.6c4.5,8.3,17.5,19.7,18.3,22.7c0.3,1,0.6,2.1,0.8,3.1
			c2.1,8.7,3.5,17.9,4.8,27c1.3,9.1,2.3,18.4,3.3,27.5l5.8,0c1-9.3,1.3-18.5,1.9-27.8C655.8,775.3,656.4,766.1,656.1,756.4z"/>
		<path class="st3" d="M665.9,817.9c-1.4-0.7-3.1-1-4.9-1.1c-0.5,0.2-1,1-2.8,1.3c-3.3,0.4-7.6-1.1-7.9-2c-0.2-0.6-1.5-0.7-2.4-0.6
			c0,1.4-0.5,4.4,0,6.2c2.8,0.1,16.7-0.4,18.9-1.1C669,819.8,669,819.6,665.9,817.9z"/>
		<path class="st24" d="M647.6,736.5c5,11.7,8.3,33.7,8.4,33.9c0.2-4.6,0.2-9.3,0.1-14c-0.1-2.4-0.2-4.9-0.6-7.6
			c-0.4-2.6-1-5-1.5-7.4c-1.2-4.8-2.5-9.4-3.9-14c-2.8-9.2-5.9-18.2-9.2-27.3l-26.4,8.2c0,0,0.4,4.7,1.6,10.3
			C623.5,721,641.1,724.7,647.6,736.5z"/>
		<path class="st15" d="M639.3,629.7c0.2,0.6,3.6,11.2,0.9,15.1c-2.8,3.9-11.5,3.4-20.7-1.7c-9.3-5.2-4.1-16.4,3.1-18.8
			C629.7,621.8,638,625,639.3,629.7z"/>
		<path class="st15" d="M622.8,643.4c0,0-1.8,7.9-4.5,10.9c4.5,0.2,10.2,0.7,12-0.6c1.8-1.3-1.7-6.2-1.1-10.7
			C626.7,641.4,622.8,643.4,622.8,643.4z"/>
		<path class="st3" d="M610.5,655.5c-2.2,3.1-2.8,7.3-2.4,10.2c0.9,6.7,2.3,13.7,0.8,20.5c-2.3,10.9-6.9,24.5-6.9,24.5
			s8.2,2.5,21.1,2.7c14.4,0.2,24.4-2.5,24.4-2.5s-10.6-18.7-8.4-31.7c1-5,6.3-6.2,7.1-11.1c1.1-7.3-5.4-11.9-13.9-16.5
			c-5-2.7-10.8-1.4-16.6,0.2C613.5,652.3,611.8,653.7,610.5,655.5z"/>
		<path class="st26" d="M644.8,705.1c-23.4-2.1-32.1-13-35.3-21.9c-0.1,1-0.2,2-0.4,3c-2.3,10.9-6.9,24.5-6.9,24.5s8.2,2.5,21.1,2.7
			c14.4,0.2,24.4-2.5,24.4-2.5S646.3,708.6,644.8,705.1z"/>
		<path class="st15" d="M671.5,723.9c-2.3-0.2-7-1.9-7-1.9s4.4,0.4,5.2,0c0.8-0.4-1.5-0.8-3.5-1.2c-2-0.4-6.3-1.9-6.3-1.9
			c-5.2-4.4-10.2-8.9-15-13.5c-2.4-2.3-4.7-4.7-6.8-7c-2.1-2.3-4.1-4.8-5.3-7l-0.4-0.8c-0.1-0.2-0.1-0.4-0.1-0.6
			c-0.1-0.2-0.2-0.9-0.3-1.5c-0.1-1.2-0.2-2.6-0.2-4c0-2.8,0.1-5.8,0.3-8.7c0.2-3.3,0.6-6.7,0.9-10.1c0.5-4.2-3.5-7.8-8.7-8
			c-5.4-0.1-9.8,3.5-9.4,7.8c0.3,3.5,0.7,7,1.2,10.6c0.4,3.1,0.9,6.2,1.6,9.4c0.4,1.6,0.8,3.2,1.3,5c0.3,0.9,0.6,1.7,1.2,2.9
			c0.3,0.5,0.6,1.1,0.9,1.5l1,1.2c2.6,3.1,5.3,5.4,8.1,7.6c2.8,2.2,5.7,4.3,8.6,6.4c5.8,4.1,11.8,7.9,17.9,11.6
			c3.3,4.8,7.5,4.6,11.7,4.5C672.7,725.9,673.8,724.1,671.5,723.9z"/>
		<path class="st18" d="M622.3,678.2c0.2-7.4,6.6-13.1,10.2-15.8c-1.2-2.7-4.4-4.8-8.3-4.9c-5.4-0.1-9.8,3.5-9.4,7.8
			c0.3,3.5,0.7,7,1.2,10.6c0.4,3.1,0.9,6.2,1.6,9.4c0.4,1.6,0.8,3.2,1.3,5c0.3,0.9,0.6,1.7,1.2,2.9c0.3,0.5,0.6,1.1,0.9,1.5l1,1.2
			c2.6,3.1,5.3,5.4,8.1,7.6C625.5,698.1,622,688.6,622.3,678.2z"/>
		<path class="st34" d="M643.5,628.2c0,0-2.9,5.4-10,5.5c-2.5-0.1-3.5,0.5-4.1,2.9c-0.6,2.4-1.4,2.6-2.2,0.8
			c-0.8-1.8-2.9-3.8-4.6-3.2c-1.7,0.7-3.4,4.6-0.6,5.8c2,0.9,2.9,4.6,3.7,6.2c0.8,1.5,1.7,2.9,3,4.1c1.1,1,3.1,1.9,3.6,3.2
			c0.6,1.3-0.6,2.8-1.9,3.7c-5.1,3.6-12.3,4.4-18.9,3.9c-4.6-0.4-15.1-1.3-13.8-6.8c0.5-2.2,2.4-4,3.9-5.8c2.6-3.1,4.3-6.6,4.8-10.3
			c0.4-2.8-0.2-5.5,0.3-8.3c0.8-5.5,4.4-10.4,11.6-11.5C629.5,616.7,640.8,619.6,643.5,628.2z"/>
		<path class="st38" d="M642,630.1L642,630.1c0,0-9.7,2.2-17.4,0c-7.7-2.2-10.6,3.5-9.8,6.2c0.8,2.4-3.7,10.1-9.1,5
			c-0.8,2.6-2.2,5-4.1,7.2c-1.5,1.8-3.4,3.6-3.9,5.8c-1.3,5.5,9.2,6.4,13.8,6.8c6.6,0.5,13.8-0.3,18.9-3.9c1.3-0.9,2.5-2.4,1.9-3.7
			c-0.6-1.3-2.5-2.2-3.6-3.2c-1.3-1.2-2.3-2.6-3-4.1c-0.8-1.6-1.7-5.3-3.7-6.2c-2.8-1.3-1.1-5.2,0.6-5.8c1.7-0.7,3.8,1.4,4.6,3.2
			c0.8,1.8,1.6,1.6,2.2-0.8c0.6-2.4,1.6-3,4.1-2.9C637.8,633.7,640.5,631.7,642,630.1z"/>
	</g>
	<g class="st5">
		<polygon class="st6" points="677.2,125.3 662.5,138.8 874.6,307.2 889.3,293.7 		"/>
		<polygon class="st6" points="757.3,414.5 772,401 559.9,232.6 545.2,246 		"/>
		<path class="st6" d="M643,156.6l-17.3,15.8c11.4-0.5,23.1,2.4,32.4,8.9c18.4,12.9,20.6,35.1,5.4,50.2l157.3,124.9l34.3-31.4
			L643,156.6z"/>
	</g>
	<path class="st4" d="M934.3,167.8c-0.8-2.5-2-4.8-3.6-6.9l12.7-10.1l-10.8-8.6l-12.7,10.1c-2.7-1.3-5.6-2.3-8.7-2.9V135H896v14.3
		c-3.1,0.6-6,1.6-8.7,2.9L874.7,142l-10.8,8.6l12.7,10.2c-1.6,2.1-2.8,4.5-3.6,6.9h-17.9V180v0H873c0.8,2.5,2,4.8,3.6,6.9
		l-12.7,10.2l10.8,8.6l12.7-10.1c2.7,1.3,5.6,2.3,8.7,2.9v14.3v0h15.2v0v-14.3c3.1-0.6,6-1.6,8.7-2.9l12.7,10.1l10.8-8.6l-12.7-10.1
		c1.6-2.1,2.8-4.5,3.6-6.9h17.9v-12.2H934.3z M917.4,167.2c8.9,11.8-7.4,24.9-22.1,17.7c-2.2-1.1-4.1-2.6-5.4-4.4
		c-9-11.8,7.4-24.9,22.1-17.7C914.2,163.9,916.1,165.4,917.4,167.2z"/>
	<path class="st8" d="M609,105.8c-0.5-1.7-1.4-3.3-2.5-4.8l8.8-7.1l-7.5-6l-8.8,7.1c-1.9-0.9-3.9-1.6-6-2V83h-10.6v10
		c-2.2,0.4-4.2,1.1-6,2l-8.8-7.1l-7.5,6l8.8,7.1c-1.1,1.5-2,3.1-2.5,4.8h-12.4v8.5l0,0h12.4c0.5,1.7,1.4,3.3,2.5,4.8l-8.8,7.1l7.5,6
		l8.8-7.1c1.9,0.9,3.9,1.6,6,2v10l0,0H593l0,0v-10c2.2-0.4,4.2-1.1,6-2l8.8,7.1l7.5-6l-8.8-7.1c1.1-1.5,2-3.1,2.5-4.8h12.4v-8.5H609
		z M597.3,105.4c6.2,8.2-5.1,17.3-15.4,12.3c-1.5-0.7-2.9-1.8-3.8-3c-6.2-8.2,5.1-17.3,15.4-12.3C595,103.1,596.3,104.2,597.3,105.4
		z"/>
	<path class="st11" d="M114.5,426.8c-0.6-2-1.6-3.8-2.9-5.5l10.1-8.1l-8.6-6.9l-10.1,8.1c-2.1-1-4.4-1.8-6.9-2.3v-11.4H84v11.4
		c-2.5,0.5-4.8,1.3-6.9,2.3l-10.1-8.1l-8.6,6.9l10.1,8.1c-1.3,1.7-2.3,3.6-2.9,5.5H51.3v9.7l0,0h14.3c0.6,2,1.6,3.8,2.9,5.5
		l-10.1,8.1l8.6,6.9L77,449c2.1,1,4.4,1.8,6.9,2.3v11.4v0h12.2v0v-11.4c2.5-0.5,4.8-1.3,6.9-2.3l10.1,8.1l8.6-6.9l-10.1-8.1
		c1.3-1.7,2.3-3.6,2.9-5.5h14.3v-9.7H114.5z M101,426.4c7.1,9.4-5.9,19.9-17.7,14.2c-1.8-0.9-3.3-2.1-4.3-3.5
		c-7.2-9.4,5.9-19.9,17.7-14.2C98.5,423.7,100,425,101,426.4z"/>
	<g>
		<path class="st11" d="M1010.7,345.5c-20.8,0-37.7-13.6-37.7-30.2c0-16.7,16.9-30.2,37.7-30.2c20.8,0,37.7,13.6,37.7,30.2
			C1048.4,332,1031.5,345.5,1010.7,345.5z M1010.7,296c-13.3,0-24.1,8.7-24.1,19.3c0,10.7,10.8,19.3,24.1,19.3
			c13.3,0,24.1-8.7,24.1-19.3C1034.8,304.7,1024,296,1010.7,296z"/>
	</g>
	<g>
		<path class="st0" d="M262.8,216.3c-20.8,0-37.7-13.6-37.7-30.2c0-16.7,16.9-30.2,37.7-30.2s37.7,13.6,37.7,30.2
			C300.5,202.7,283.6,216.3,262.8,216.3z M262.8,166.7c-13.3,0-24.1,8.7-24.1,19.3c0,10.7,10.8,19.3,24.1,19.3s24.1-8.7,24.1-19.3
			C286.9,175.4,276.1,166.7,262.8,166.7z"/>
	</g>
</g>
</svg>
