<?xml version="1.0" encoding="utf-8"?>
<!-- Generator: Adobe Illustrator 23.0.1, SVG Export Plug-In . SVG Version: 6.00 Build 0)  -->
<svg version="1.1" id="a02f2390-8fa7-48a9-96f1-2ec5f63ecbc1"
	 xmlns="http://www.w3.org/2000/svg" xmlns:xlink="http://www.w3.org/1999/xlink" x="0px" y="0px" viewBox="0 0 1143 731"
	 style="enable-background:new 0 0 1143 731;" xml:space="preserve">
<style type="text/css">
	.st0{fill:none;}
	.st1{fill:none;stroke:#E9F2F4;stroke-width:0.25;stroke-miterlimit:10;}
	.st2{fill:#918DFF;}
	.st3{fill:#FFFFFF;}
	.st4{fill:#E9F2F4;}
	.st5{clip-path:url(#SVGID_2_);fill:#918DFF;}
	.st6{clip-path:url(#SVGID_4_);fill:#E9F2F4;}
	.st7{clip-path:url(#SVGID_6_);fill:#508CFF;}
	.st8{clip-path:url(#SVGID_8_);fill:#52E6C6;}
	.st9{fill:none;stroke:#E9F2F4;stroke-miterlimit:10;}
	.st10{clip-path:url(#SVGID_10_);fill:#918DFF;}
	.st11{clip-path:url(#SVGID_12_);fill:#E9F2F4;}
	.st12{clip-path:url(#SVGID_14_);fill:#E9F2F4;}
	.st13{clip-path:url(#SVGID_16_);fill:#52E6C6;}
	.st14{fill:#C7C7C7;}
	.st15{fill:#482C3B;}
	.st16{fill:#A6AEBA;}
	.st17{fill:#D2DCEB;}
	.st18{fill:#FF8A95;}
	.st19{fill:#F74455;}
	.st20{fill:#FEC4AD;}
	.st21{fill:#133A50;}
	.st22{fill:#FF5E69;}
	.st23{fill:none;stroke:#482C3B;stroke-width:0.25;stroke-miterlimit:10;}
	.st24{fill:#508CFF;}
	.st25{fill:#B56537;}
	.st26{fill:#E4DDD7;}
	.st27{fill:#364469;}
	.st28{fill:none;stroke:#AEBFDE;stroke-width:0.25;stroke-miterlimit:10;}
	.st29{fill:#97A3CC;}
	.st30{fill:url(#XMLID_2_);}
	.st31{fill:#7B2B1A;}
	.st32{fill:#DBDBDB;}
	.st33{fill:#52E6C6;}
</style>
<title>teacher</title>
<path class="st0" d="M-3.1,714.8H1297c-3.5,5.6-7.4,11-11.7,16.2H-22C-20.8,730-13.9,724.4-3.1,714.8z"/>
<g>
	<g>
		<g>
			<line class="st1" x1="89.6" y1="93.1" x2="89.6" y2="129.6"/>
			<g>
				<path class="st2" d="M117.9,90.5c0,10.1-12.7,18.3-28.2,18.3c-15.6,0-28.2-8.2-28.2-18.3s12.7-18.3,28.2-18.3
					S117.9,80.4,117.9,90.5z"/>
			</g>
			<line class="st1" x1="89.6" y1="33" x2="89.6" y2="68.6"/>
			<g>
				<path class="st2" d="M117.9,27.4c0,10.1-12.7,18.3-28.2,18.3c-15.6,0-28.2-8.2-28.2-18.3S74.1,9.1,89.6,9.1
					C105.2,9.1,117.9,17.3,117.9,27.4z"/>
				<g>
					<polygon class="st3" points="87.4,36.1 74.4,25.2 86.2,28.4 113.4,12.9 					"/>
				</g>
			</g>
			<g>
				<path class="st2" d="M117.9,154.9c0,10.1-12.7,18.3-28.2,18.3c-15.6,0-28.2-8.2-28.2-18.3s12.7-18.3,28.2-18.3
					C105.2,136.4,117.9,144.7,117.9,154.9z"/>
			</g>
			<g>
				<polygon class="st3" points="87.4,97.7 74.4,86.8 86.2,90 113.4,74.6 				"/>
			</g>
			<g>
				<polygon class="st3" points="87.4,162.8 74.4,151.9 86.2,155.1 113.4,139.6 				"/>
			</g>
		</g>
		<rect x="134.6" y="14.9" class="st2" width="115.2" height="10.1"/>
		<rect x="134.6" y="29.2" class="st4" width="201.6" height="28.2"/>
		<rect x="134.6" y="92.1" class="st4" width="201.6" height="28.2"/>
		<rect x="134.6" y="155.7" class="st4" width="201.6" height="28.2"/>
		<rect x="134.6" y="78.4" class="st2" width="115.2" height="10.1"/>
		<rect x="134.6" y="141.4" class="st2" width="115.2" height="10.1"/>
	</g>
	<g>
		<g>
			<g>
				<defs>
					<ellipse id="SVGID_1_" cx="521.6" cy="66.4" rx="67.4" ry="56.3"/>
				</defs>
				<clipPath id="SVGID_2_">
					<use xlink:href="#SVGID_1_"  style="overflow:visible;"/>
				</clipPath>
				<ellipse class="st5" cx="521.6" cy="66.4" rx="67.4" ry="56.3"/>
			</g>
		</g>
		<g>
			<g>
				<defs>
					<ellipse id="SVGID_3_" cx="521.6" cy="66.4" rx="67.4" ry="56.3"/>
				</defs>
				<clipPath id="SVGID_4_">
					<use xlink:href="#SVGID_3_"  style="overflow:visible;"/>
				</clipPath>
				<polygon class="st6" points="544.2,7.5 521.6,66.4 456.7,14.3 548.7,-2.9 				"/>
			</g>
		</g>
		<g>
			<g>
				<defs>
					<ellipse id="SVGID_5_" cx="521.6" cy="66.4" rx="67.4" ry="56.3"/>
				</defs>
				<clipPath id="SVGID_6_">
					<use xlink:href="#SVGID_5_"  style="overflow:visible;"/>
				</clipPath>
				<polygon class="st7" points="544.2,7.5 521.6,66.4 598.7,26.9 548.7,-2.9 				"/>
			</g>
		</g>
		<g>
			<g>
				<defs>
					<ellipse id="SVGID_7_" cx="521.6" cy="66.4" rx="67.4" ry="56.3"/>
				</defs>
				<clipPath id="SVGID_8_">
					<use xlink:href="#SVGID_7_"  style="overflow:visible;"/>
				</clipPath>
				<polygon class="st8" points="521.6,122.7 521.6,66.4 598.7,26.9 604.5,93.8 537.5,130.4 				"/>
			</g>
		</g>
	</g>
	<g>
		<line class="st9" x1="663.4" y1="1.4" x2="893.2" y2="1.4"/>
		<line class="st9" x1="663.4" y1="11.7" x2="893.2" y2="11.7"/>
		<line class="st9" x1="663.4" y1="22" x2="893.2" y2="22"/>
		<line class="st9" x1="663.4" y1="32.2" x2="893.2" y2="32.2"/>
		<line class="st9" x1="663.4" y1="42.5" x2="893.2" y2="42.5"/>
		<line class="st9" x1="663.4" y1="52.9" x2="893.2" y2="52.9"/>
		<line class="st9" x1="663.4" y1="66.4" x2="893.2" y2="66.4"/>
		<line class="st9" x1="663.4" y1="76.4" x2="893.2" y2="76.4"/>
		<line class="st9" x1="663.4" y1="86.4" x2="893.2" y2="86.4"/>
		<line class="st9" x1="663.4" y1="96.5" x2="893.2" y2="96.5"/>
	</g>
	<g>
		<g>
			<g>
				<g>
					<g>
						<defs>
							<ellipse id="SVGID_9_" cx="1056.9" cy="154.4" rx="64.2" ry="47.7"/>
						</defs>
						<clipPath id="SVGID_10_">
							<use xlink:href="#SVGID_9_"  style="overflow:visible;"/>
						</clipPath>
						<ellipse class="st10" cx="1056.9" cy="154.4" rx="64.2" ry="47.7"/>
					</g>
				</g>
				<g>
					<g>
						<defs>
							<ellipse id="SVGID_11_" cx="1056.9" cy="154.4" rx="64.2" ry="47.7"/>
						</defs>
						<clipPath id="SVGID_12_">
							<use xlink:href="#SVGID_11_"  style="overflow:visible;"/>
						</clipPath>
						<polygon class="st11" points="1078.4,104.5 1056.9,154.4 995.1,110.3 1082.8,95.6 						"/>
					</g>
				</g>
				<g>
					<g>
						<defs>
							<ellipse id="SVGID_13_" cx="1056.9" cy="154.4" rx="64.2" ry="47.7"/>
						</defs>
						<clipPath id="SVGID_14_">
							<use xlink:href="#SVGID_13_"  style="overflow:visible;"/>
						</clipPath>
						<polygon class="st12" points="1078.4,104.5 1056.9,154.4 1140.5,159.8 1110.9,110.1 						"/>
					</g>
				</g>
				<g>
					<g>
						<defs>
							<ellipse id="SVGID_15_" cx="1056.9" cy="154.4" rx="64.2" ry="47.7"/>
						</defs>
						<clipPath id="SVGID_16_">
							<use xlink:href="#SVGID_15_"  style="overflow:visible;"/>
						</clipPath>
						<polygon class="st13" points="1056.9,202 1056.9,154.4 1128.8,154.4 1135.9,177.5 1072.1,208.6 						"/>
					</g>
				</g>
			</g>
			<ellipse class="st3" cx="1056.9" cy="154.4" rx="36.5" ry="27"/>
		</g>
		<line class="st9" x1="1004.7" y1="216.8" x2="1106.9" y2="216.8"/>
		<line class="st9" x1="1004.7" y1="231.4" x2="1106.9" y2="231.4"/>
		<line class="st9" x1="1004.7" y1="246" x2="1106.9" y2="246"/>
	</g>
	<g>
		<g>
			<polygon class="st14" points="156.4,728.5 165.5,728.5 239.7,492.9 220.8,492.9 			"/>
			<polygon class="st14" points="856.9,728.5 847.8,728.5 773.5,492.9 792.3,492.9 			"/>
		</g>
		<g>
			<path class="st15" d="M144.4,351.2c-2.9,2.1-4.9,4.8-5.8,7.6c1.4-2,3.2-4.1,6-5.3c3.7-1.5,8.7-1.3,12.4-2.8
				c3.5-1.4,5.4-4.1,6.9-6.5c-3.1,1.5-5.9,3-9.7,3.6C150.5,348.4,147.1,349.3,144.4,351.2z"/>
			<g>
				<g>
					<g>
						<rect x="176.3" y="614.9" class="st16" width="13.8" height="87.2"/>
						<rect x="172.1" y="602.3" class="st17" width="22.2" height="12.7"/>
						<rect x="174.8" y="668.5" class="st17" width="16.8" height="27.2"/>
						<rect x="172.1" y="695.8" class="st17" width="22.2" height="12.7"/>
						<rect x="156.3" y="578.2" class="st16" width="53.8" height="24"/>
						<path class="st16" d="M111.3,589h149c0.3,0,0.5-0.2,0.5-0.5v-16.9c0-0.3-0.2-0.5-0.5-0.5h-149c-0.3,0-0.5,0.2-0.5,0.5v16.9
							C110.8,588.8,111,589,111.3,589z"/>
						<polygon class="st16" points="129.7,720.6 172,706.9 172,697.4 124,718.3 						"/>
						<ellipse class="st16" cx="124" cy="723.3" rx="9.9" ry="6.5"/>
						<ellipse class="st16" cx="183.2" cy="723.3" rx="9.9" ry="6.5"/>
						<polygon class="st16" points="236.7,720.6 194.3,706.9 194.3,697.4 242.2,718.3 						"/>
						<path class="st16" d="M252.2,723.3c0,3.6-4.5,6.5-9.9,6.5s-9.9-2.9-9.9-6.5s4.5-6.5,9.9-6.5S252.2,719.7,252.2,723.3z"/>
						<rect x="180.4" y="702.1" class="st16" width="5.5" height="21.1"/>
					</g>
				</g>
				<path class="st18" d="M85.8,580.9c-5,0.1-9.4-2.1-10.6-5.2c-3.6-9.7-10.2-27.9-10.4-73.4c-0.2-50.2-16.2-88.3-21.6-104.4
					c-1.5-4.5,1.6-9,7.6-11.3l0,0c3.3-1.2,7-1.9,10.8-1.9h133.9c0,0,55,64.1,62.2,86.1C264.9,492.7,275,577,275,577L85.8,580.9z"/>
				<path class="st19" d="M90.1,581c0,0-12.6-15.9-12.8-78.8c-0.2-51.8-15.9-94.3-20.5-110.7c-1-3.6,3.2-6.8,8.8-6.8h142.4
					c0,0,55,64.1,62.2,86.1c7.2,21.9,17.4,106.2,17.4,106.2L90.1,581z"/>
				<path class="st18" d="M78.9,581h141.2v-19.1H77.5v17.8C77.5,580.5,78.1,581,78.9,581z"/>
				<path class="st19" d="M110.8,581H318c1,0,1.7-0.7,1.7-1.6v-15.8c0-0.9-0.8-1.6-1.7-1.6H112.4c-1,0-1.7,0.7-1.7,1.6V581H110.8z"
					/>
			</g>
			<path class="st20" d="M131,362.7c0,0,20.7-4.3,22.8-10.1c1.7-4.8,4.4-19.5,4.4-19.5h36c0,0-1.4,13.2,0,17.5
				c3.4,10.6,24,14.1,24,14.1l2.9,33.2L168,427l-51.4-33.6L131,362.7z"/>
			<path id="XMLID_98_" class="st20" d="M213.4,296.7c9.2,7.9,7.2,9,6,19.9c-1.1,9.4-4.8,18.3-7.2,22.4
				c-2.4,4.1-15.3,21.7-38.2,15.3c-12.7-3.6-27.1-12.3-31.2-18.4c-3.1-4.4-4.7-12.4-4.9-19.8c-0.2-7.2-0.3-16.6,0.1-22
				C139.5,275,196.9,282.2,213.4,296.7z"/>
			<g>
				<path class="st21" d="M273.1,521c19.8-2.8,30.7,1.3,42.5,10.6c11.8,9.2,7.1,31.5,0,50S281.3,723,281.3,723h-20.1
					c0,0-5.2-48.5-8.7-83.8s8.6-86,8.6-86l-76.7-32.1C184.5,521,255.4,523.5,273.1,521z"/>
				<path class="st21" d="M272.2,503.2c15.1,9.1,59.4,24.6,50.6,43.6l-59.4,16.4c0,0-60.3-14.2-78.8-42.2C166,493,166,493,166,493
					l39.7-10.3L272.2,503.2z"/>
				<path class="st21" d="M228.8,527.8c10.9,5.1,40.5,13.6,34.5,35.4c-2.9,11.1-51.3,78.5-77.6,106.7
					c-13.5,14.4-37.3,44.6-37.3,44.6l-22.5,3.4c0,0,17.4-36.6,29-70.5c11.8-33.8,46.2-74.2,46.2-74.2s-25.3-11.1-44.3-16.5
					s-29-7.6-0.8-25.2C184.5,513.9,207.5,517.8,228.8,527.8z"/>
				<path class="st20" d="M272.2,423.7c3.1,8.5,6.9,16.7,11.7,22.1c4.7,5.4,102.1,28.7,102.1,28.7H329c0,0-54.2-4.6-69.6-18.1
					s-29.7-32.7-29.7-32.7H272.2z"/>
				<path class="st21" d="M237.3,369.3c10,2.9,19.3,19.5,26.9,33.6c7.4,14.1,8.1,20.7,8.1,20.7s-26,9.7-39.9,7.3
					c0,0-13.1-30.6-4-46.2C237.3,369.3,237.3,369.3,237.3,369.3z"/>
				<path class="st21" d="M187.1,504.3c28.4-0.7,56.7-1.2,85.1-1.1c-13.8-5.8-25.9-9.9-28.6-11.6c-5.9-3.8-3.9-38.1,0.4-48.8
					c4.4-10.6,4-22.9,1-28.4c-3.2-5.5-7.6-45-7.6-45l-19.1-4.6c0,0,5.8,28.7-40.6,28.7c-46.5,0-46.7-30.7-46.7-30.7l-29.6,4.3
					c0,0-2.2,37.4-1.1,54.4c1.1,17,13.5,46.4,17,61.8c2.7,12-2.3,19.3-5.8,28.1C134.9,505.2,160.9,503.7,187.1,504.3z"/>
				<path class="st22" d="M149.8,712.1c-6.3-0.8-8.6,0.8-14.3,3.3s-12.1,2.5-12.1,2.5v11.2h44.4L149.8,712.1z"/>
				<path class="st22" d="M285.3,714.2c0,0-0.7,3.9-10.2,5.6c-9.6,1.8-16.1-3.4-16.1-3.4l-2.1,12.7l75.6,0.3L285.3,714.2z"/>
			</g>
			<path class="st20" d="M286.6,471.5c-8.5-0.7-16.7-5.8-49.5-6.1c-5.9,0-44.9-5-55.6-7c-20.7-4-31.3-8.8-31.3-8.8
				s-12-29.2-16.7-47.8c-13.4-1-26.6-2.1-40-3.5c-0.4,23.1,24.8,64.4,33.1,68.5c16.4,8,54.7,7.6,63.9,7.7
				c21.3,0.3,112.4,1.8,112.4,1.8S310,473.3,286.6,471.5z"/>
			<path class="st21" d="M144.3,431.1c0,0-12.1-46.3-15.6-51.2c-18.1-25.1-43-11.7-39.4,7.7c1.6,8.3,2.5,29.7,9.1,50
				C112.7,438.2,134.2,434.9,144.3,431.1z"/>
			<g>
				<polygon class="st16" points="267.2,476.3 303.1,476.3 338.9,394.7 311.6,394.7 				"/>
				<polygon class="st17" points="277.5,476.3 417.4,476.3 453.1,394.7 313.3,394.7 				"/>
				<rect x="256.9" y="474.5" class="st17" width="160.5" height="6.1"/>
				<rect x="176.7" y="474.5" class="st16" width="80.1" height="6.1"/>
				<path class="st16" d="M354.3,439.5c-4,6.2-1.2,13,6.3,15.1c7.5,2.1,17-1.3,21.1-7.5c4-6.2,1.2-13-6.3-15.1
					C367.8,429.9,358.3,433.2,354.3,439.5z"/>
			</g>
			<path class="st21" d="M111.3,511.2c-5.4,16.5,7.2,52.7,89.9,62.2l47.2,12.4c0,0,18.8-13.7,12.9-32.7c-5.9-19-39-26.2-60.8-49.2
				c0,0-34.3-9.3-56.2-4.3C122,504.6,111.3,511.2,111.3,511.2z"/>
			<path class="st15" d="M220.6,308c0,0-9.9,0.3-22.2-11.7c0,0,1.3,5.4-10.6,12.7c-11.9,7.3-22.5,5.3-24.3,8.9c-1.9,3.5-2,6.7-2,6.7
				s-2,0-3.9-1.9c-1.3-1.2-2-4.3-4-5.2c-5.5-2.3-14.7,0.8-11.8,7.7c2,4.3,9.1,7.2,9.1,7.2c-0.1,11.7,7.2,15.3,7.2,15.3
				s-12.2,3.6-18.5,2c-9-2.4-11.1-6-10.8-12.6c0,0-6.7-0.7-12-4c-12.4-8,2-30.9,7.6-33.7c0,0-13.5-12.5,3.5-21
				c17.4-8.5,24.1,5.3,24.1,5.3c5.8-2.8,29.4-3.8,41.4-0.9C227.3,290.8,220.6,308,220.6,308z"/>
			<path class="st23" d="M197.6,296.1c1.1,4.5,0,14.9-18.3,23"/>
		</g>
		<g>
			<g>
				<g>
					<rect x="953.2" y="615" class="st16" width="13.8" height="87.2"/>
					<rect x="948.9" y="602.3" class="st17" width="22.2" height="12.7"/>
					<rect x="951.7" y="668.6" class="st17" width="16.8" height="27.2"/>
					<rect x="948.9" y="695.8" class="st17" width="22.2" height="12.7"/>
					<rect x="933.2" y="578.2" class="st16" width="53.8" height="24"/>
					<path class="st16" d="M1032,589H882.8c-0.3,0-0.5-0.2-0.5-0.5v-16.9c0-0.3,0.2-0.5,0.5-0.5h149c0.3,0,0.5,0.2,0.5,0.5v16.9
						C1032.5,588.8,1032.3,589,1032,589z"/>
					<polygon class="st16" points="1013.7,720.6 971.3,706.9 971.3,697.4 1019.1,718.3 					"/>
					<path class="st16" d="M1029.2,723.3c0,3.6-4.5,6.5-9.9,6.5c-5.5,0-9.9-2.9-9.9-6.5s4.5-6.5,9.9-6.5
						C1024.7,716.8,1029.2,719.7,1029.2,723.3z"/>
					<ellipse class="st16" cx="960.2" cy="723.3" rx="9.9" ry="6.5"/>
					<polygon class="st16" points="906.5,720.6 948.9,706.9 948.9,697.4 901,718.3 					"/>
					<ellipse class="st16" cx="901" cy="723.3" rx="9.9" ry="6.5"/>
					<rect x="957.4" y="702.2" class="st16" width="5.5" height="21.1"/>
				</g>
			</g>
			<path class="st18" d="M1057.4,580.9c5,0.1,9.4-2.1,10.6-5.2c3.6-9.7,10.2-27.9,10.4-73.4c0.2-50.2,40.6-88.3,46.1-104.4
				c1.5-4.5-1.6-9-7.6-11.3l0,0c-3.3-1.2-7-1.9-10.8-1.9H947.7c0,0-55,64.1-62.2,86.1c-7.2,21.9-17.4,106.2-17.4,106.2L1057.4,580.9
				z"/>
			<path class="st19" d="M1053.2,581c0,0,12.6-15.9,12.8-78.8c0.2-51.8,40.4-94.3,44.9-110.7c1-3.6-3.2-6.8-8.7-6.8H935.3
				c0,0-55,64.1-62.2,86.1c-7.2,21.9-17.4,106.2-17.4,106.2L1053.2,581z"/>
			<g>
				<path class="st18" d="M1064.4,581H879.4v-19.1h186.4v17.8C1065.7,580.5,1065.1,581,1064.4,581z"/>
				<path class="st19" d="M902.6,581h-77.4c-1,0-1.7-0.7-1.7-1.6v-15.8c0-0.9,0.8-1.6,1.7-1.6h75.7c1,0,1.7,0.7,1.7,1.6L902.6,581
					L902.6,581z"/>
			</g>
		</g>
		<g>
			<path class="st20" d="M912.4,365.9c-12.9,8.3-13.8,50.4-26.9,72.2c0,0-88.9,22.6-129.5,29.2l14.1,9.6c0,0,120.5-18.8,135.8-25.4
				c23.4-10.1,36.9-51.1,39.2-71.5C947.4,359.5,925.9,357.2,912.4,365.9z"/>
			<path class="st20" d="M766.1,468.8l-9.8-1.5c0,0-20.3-1.2-26.9-1.8c-6.4-0.6-14.3,4.2-23.1,6c-9,1.8-17.5,5.4-17.5,5.4h7.1
				l14.4,1.5l13.1-1.5c0,0,15.6-0.9,24.6,0s22.4,0,22.4,0L766.1,468.8z"/>
		</g>
		<g>
			<path class="st20" d="M854,511.2c-27.6,5.9-61.5,15.5-71.4,21.5s-29.4,14.5-13.6,47.5c10,21,53.9,127.8,53.9,127.8l22.2-2.6
				c0,0-7.9-61.9-15.8-108.1c-3.8-22.4-5.1-28.7-5.1-28.7l29.8-7.9c37.8-10.1,24.9-52.4,24.9-52.4L854,511.2z"/>
			<path class="st20" d="M792.3,526.2c-9.8,6-16.9,4-31.8,37.1c-9.6,21.2-44.2,128-44.2,128l20.7,5.8c28.1-51.1,28-51.1,60.6-92.4
				c15.8-20,22.5-39.9,22.5-39.9l60.5-2.4c37.8-10.1,24.9-46.1,24.9-46.1S802.2,520.3,792.3,526.2z"/>
			<path class="st24" d="M1021.4,494.4c0,17.2,19.2,36.3-3.1,56c-20.1,17.7-137.6,12.1-137.6,12.1s16.6-18.7,0.9-32.8
				c-10-9-33.2-17.4-33.2-17.4l65.7-13.8l52.7-26.7L1021.4,494.4z"/>
			<path class="st25" d="M955.5,362.1c-3.5,7.9-28.8,7.7-47.4-7s-32.1-39.7-13.5-57.5c18.6-17.7,43.5,16.6,52,34.8
				C954.9,350.7,955.5,362.1,955.5,362.1z"/>
			<path class="st20" d="M896.7,297.4c-5,3.9-0.2,18.5,0.7,20.7c1.7,4.2-1.6,10,0.3,11s2.8,0.2,6,0.7c0.3,0.1,9.2,11.2,10.6,13.5
				c2.3,3.5,15.1-2.7,18.9-0.1c2.7,1.9,2.8,5.5,3.8,9.9l-7.4,19.5l60.5-7.6c0,0-17.6-17.1-22.2-24.9s1.2-16.4-0.4-26.9
				c-1.5-10.5-8.7-24-31.7-25.4C916.1,286.5,902.7,292.8,896.7,297.4z"/>
			<path class="st26" d="M915.9,496.1c0,0,15.4-2.2,40.6,0c25.2,2.2,62.6-2.4,62.6-2.4s-15.3-51.4-14.3-74.7
				c1-23.3,3.7-48.5,3.7-48.5l-67.2-7.3c0,0-16.3,3.8-25.3,20.8C906.7,401.2,908.2,474.8,915.9,496.1z"/>
			<path class="st21" d="M937,353.3c-5,3.2-21.3,7.3-21.3,11.9s-12.8,44.1-12,52.4s5.5,39.7,2.5,49.4c-2.9,9.7-2.8,31-2.8,31
				l12.3-1.8c0,0-3.5-54.7,0-74.9c3.5-20.2,25.3-57.5,25.3-57.5l-8.3-1.8L937,353.3z"/>
			<path class="st21" d="M961.5,363.8l-20.2-0.5c0,0-6.8,20.2-6.8,59.2c0,32.7,10.3,77,10.3,77s15.6,3.9,36.8,4.4
				c21.2,0.5,37.3-4.6,37.3-4.6s-3.5-32,0-63.3c3.5-31.3,16.4-38.3,13.9-58.9c-4.1-33.9-51.3-22-51.3-22L961.5,363.8z"/>
			<path class="st24" d="M941.3,363.4c0,0,32.5-10.1,37.3-16.5c0,0,3.5,5.5,2.8,8.3c-0.8,2.8-31.8,22-31.8,22L941.3,363.4z"/>
			<path class="st25" d="M968.2,365.8c8-26.1-13.4-33.7-36.7-43c-23.4-9.3-37-25-37-25s9.1-19.1,35.4-23
				c26.3-3.9,60.1,6.8,68.5,33.8c6,19.1,13.9,25.9,33.8,35.2c24.1,11.3,31.2,40,3.2,53.9c-26,12.8-10.9-17.6-20.6-34.7
				c-1.6-2.9-21.8,11.8-33.1,14.2C969.9,379.7,967,370,968.2,365.8z"/>
			<path class="st24" d="M937,353.3c0,0-2.1,6.4,4.3,10.1l-12,11c0,0-3.5-8.7,0-12.4C932.9,358.3,937,353.3,937,353.3z"/>
			<path class="st21" d="M821.4,700.3c0,0,0.7,3.9,10.2,5.6c9.6,1.8,16.1-3.4,16.1-3.4l2.1,12.7l-30.6,14h-25.3l13.6-9.9
				L821.4,700.3z"/>
			<path class="st21" d="M719.6,682.6c0,0-4.5,5.4,3.8,9c8.3,3.6,16.9,0,16.9,0l-3.9,12.5l-72.1-14.7L719.6,682.6z"/>
			<g>
				<path class="st20" d="M999.2,369.8c-7,10.9-27.4,46.9-40.5,68.7c0,0-94.8,19.7-135.3,26.4l14.1,9.6c0,0,115.5-11.5,140.6-19.1
					c25.3-7.7,49.5-60.8,53.8-74.7C1038.2,360.7,1006.8,358,999.2,369.8z"/>
				<path class="st20" d="M833.4,466.4l-9.8-1.5c0,0-20.3-1.2-26.9-1.8c-6.4-0.6-14.3,4.2-23.1,6c-9,1.8-17.5,5.4-17.5,5.4h7.1
					l14.4,1.5l13.1-1.5c0,0,15.6-0.9,24.6,0s22.4,0,22.4,0L833.4,466.4z"/>
			</g>
		</g>
		<g>
			<path class="st27" d="M457.6,203.4l-25.7,38.8l6.6,1.8l25.7-38.8c0.3-0.4,0-1-0.8-1.1c-1.4-0.4-2.7-0.8-4.1-1.1
				C458.6,202.7,457.9,202.9,457.6,203.4z"/>
			<path class="st27" d="M457.8,212.8l-4.3-1.2l7.2-10.9c0.5-0.8,2-1.1,3.1-0.8l0,0c1.2,0.3,1.7,1.2,1.2,2L457.8,212.8z"/>
		</g>
		<g>
			<path class="st20" d="M525.1,295.5c0,0-25.2,45.1-34.5,44.9c-6.9-0.2-53.1-41.2-60.5-48.4c-7.4-7.1-21.8-23.8-21.8-23.8l18.8-3.8
				c0,0,32.4,25.3,40.6,29.9c8.3,4.5,11.8,6.3,11.8,6.3l9.7-17.1L525.1,295.5z"/>
			<path class="st27" d="M511.2,248.5c-10.2,1.8-13.6,7.6-18,19.8c-4.4,12.2-10.7,23.6-10.7,23.6l33.4,10.1c0,0,6-21.6,8.3-35.3
				C526.5,253.1,520,246.9,511.2,248.5z"/>
			<path class="st21" d="M648.6,713.7v16h-47.3c0,0,1.9-5.8,24.2-8.5l3.3-7.5H648.6z"/>
			<path class="st21" d="M548.8,713.7v16h-47.3c0,0,1.9-5.8,24.2-8.5l3.3-7.5H548.8z"/>
			<path class="st21" d="M638.4,391c0,0,8.6,50.9,9,105.5c0.3,54.7,5.4,217.1,5.4,217.1h-34c0,0-34.9-157-47.7-192.1
				s-45.8-129.8-45.8-129.8L638.4,391z"/>
			<path class="st20" d="M586.2,206.2c0,0,2.2,11.1,4,16.8c1.9,5.7,3.3,8.6,4.7,10.4c2.9,3.8,21.1,15.5,21.1,15.5
				s-56.2,19.3-72.7,19.3c-16.6,0-10.7-21.6-10.7-21.6s18-9.3,20.7-13.9c2.6-4.7,4.1-18.2,4.1-18.2L586.2,206.2z"/>
			<path class="st21" d="M564.7,446.9c0,0-6.3,83.3-7.6,99.7c-1.3,16.4,0,167,0,167s-31.8,0.6-31.8,0s-29.9-158.9-33.8-199.2
				c-3.9-40.4-1.6-88.3-6.8-93.9c-5.2-5.6,13.9-29.1,13.9-29.1l45,7.8L564.7,446.9z"/>
			<path class="st4" d="M604.3,238.1l57.8,16.2c0,0-11.5,30.4-12.1,42.5c-0.7,12.1-7.3,107.7-7.3,107.7s-17.7,17.9-103.1,10.8
				c-32.9-2.7-49.1-13.2-49.1-13.2s9.3-105.3,11.8-117.4s9-36.3,9-36.3l27.8-5.6l11.4,11L604.3,238.1z"/>
			<path class="st28" d="M535.5,396.6"/>
			<path class="st28" d="M550.4,253.9"/>
			<polygon class="st27" points="601.8,231.5 550.4,253.9 564.6,264.5 604.3,238.1 			"/>
			<polygon class="st27" points="550.4,253.9 536.4,261.2 539,242.9 544.3,238.1 			"/>
			<g>
				<path id="XMLID_60_" class="st29" d="M496.2,319.5l-49.4,9.3c-5.1,0.9-10.9-0.8-13.2-3.8l-48.2-66.9c-2.2-3,0.1-6.2,5.1-7.1
					l48.9-9.4c9-0.6,13.4,0.6,15.6,3.6l48.3,66.4C505.8,314.6,504.9,316.8,496.2,319.5z"/>
				
					<linearGradient id="XMLID_2_" gradientUnits="userSpaceOnUse" x1="624.3445" y1="136.0352" x2="767.1535" y2="134.5322" gradientTransform="matrix(0.9233 -0.3199 0.4506 0.927 -289.5793 392.5041)">
					<stop  offset="0" style="stop-color:#EEF4FB"/>
					<stop  offset="0.3115" style="stop-color:#E3EDF8"/>
					<stop  offset="1" style="stop-color:#CFE1F3"/>
				</linearGradient>
				<path id="XMLID_55_" class="st30" d="M493.5,320.2l-49.6,9.3c-5.1,0.9-11-0.8-13.3-3.8l-48.3-67.2c-2.2-3,0.1-6.2,5.1-7.2
					l49.1-9.4c5.4-1,11.5,0.7,13.6,3.8l48.6,67C501.3,315.8,498.9,319.1,493.5,320.2z"/>
			</g>
			<g>
				<path class="st20" d="M636.7,302.2c0,0-45.9,49.6-52.1,51.3c-6.2,1.7-85.3-31.8-100.1-38.1c-14.8-6.3-27.3-12.4-29.2-13.4
					c-2-1-6.2-11.1-6.1-11.1c0.2,0,2.1-1.8,2.1-1.8l2,0.7l-1.1-4l2-2.3l1.9,0.4l0.7-4.1l2.7-3.1c0,0,7.8,5.7,12.7,9.1
					c4.8,3.4,10.5,6,10.5,6s-0.4-5.4,0-6.5c0.4-1.1-0.9-4.8-0.9-4.8l7.6,3c0,0,6.8,13.9,8.1,15c1.3,1.1,4.8,9.6,23.1,14.2
					c32.9,8.1,51.2,11.2,51.2,11.2c-1.3-0.1,29.9-37,29.9-37L636.7,302.2z"/>
				<path class="st27" d="M664.4,273c-4.4,13.5-34.7,42.9-34.7,42.9l-37.2-18.2c0,0,14.5-19,22.7-28.9c9.1-11,17.5-24.4,33.3-20.5
					C663.8,252.2,667.9,262.2,664.4,273z"/>
			</g>
			<path class="st20" d="M520.9,177.8c-3.9,2.3-10.6,7-10,9.8c0.5,2.8,1.4,10.9,3.5,15.4c2.1,4.6,6.1,16.5,9.3,21.7
				c2.9,5.2,6.4,12.4,9,13.1c2.4,0.7,24.2-1.8,28.4-3.8c4.1-2,25.8-17.5,21.2-28.9c0,0,5.8,0.5,9.3-10.9c1-3-17.6-11.4-20.5-14.3
				c-7-7.1-32.5-1.5-39.7-1.2C523.6,179.2,520.9,177.8,520.9,177.8z"/>
			<path class="st31" d="M510.8,187.6c0,0,1.4-4,7.1-3.2c5.7,0.9,17,0.4,25.1-1.1c8.3-1.5,15.7-4.7,15.7-4.7s2.2,7.1,5.1,8.8
				c2.8,1.6,4.7,5,5.8,7.2c1.1,2.3,5.6,2.9,5.6,2.9s2-6.4,6.4-6.8c8.7-0.9,7.6,6.8,4,9.3s-7.3,4.4-7.3,4.4s1.1,3.3,2.7,5.7
				c1.9,2.4,7.1,5.7,7.1,5.7s2.3-15.2,7.9-22.2c5.6-7,5.2-19.8-10.8-22.5c0,0-3.6-11.6-24.7-11s-37.8,6-47.1,5.5
				c-9.3-0.6-12-1.8-12-1.8s-4.7,9.9,1.4,15.1C509,184,510.8,187.6,510.8,187.6z"/>
		</g>
		<g>
			<g>
				<polygon class="st16" points="768.7,476.3 749.1,476.3 729.4,394.7 744.4,394.7 				"/>
				<polygon class="st17" points="763.1,476.3 686.4,476.3 666.8,394.7 743.4,394.7 				"/>
				<rect x="685.3" y="474.4" class="st17" width="83.3" height="6.1"/>
				<rect x="768.7" y="474.4" class="st16" width="105.1" height="6.1"/>
				<path class="st16" d="M721,439.5c2.2,6.2,0.7,13-3.5,15.1s-9.4-1.3-11.6-7.5s-0.7-13,3.5-15.1
					C713.6,429.9,718.8,433.2,721,439.5z"/>
			</g>
		</g>
		<g>
			<rect x="18.1" y="481.2" class="st32" width="943.9" height="11.8"/>
			<g>
				<polygon class="st32" points="118.9,728.5 127.8,728.5 202.1,492.9 183.3,492.9 				"/>
				<polygon class="st32" points="819.3,728.5 810.1,728.5 735.9,492.9 754.8,492.9 				"/>
			</g>
		</g>
	</g>
	<g>
		<rect x="732.1" y="143.8" class="st4" width="158.9" height="102.4"/>
		<rect x="755.9" y="159.4" class="st3" width="55.7" height="73.2"/>
		<rect x="732.1" y="124.2" class="st9" width="158.9" height="19.5"/>
		<g>
			<path class="st33" d="M871.7,171.3c0,7.1-8.8,12.8-19.8,12.8s-19.8-5.8-19.8-12.8c0-7.1,8.8-12.8,19.8-12.8
				C863,158.5,871.7,164.2,871.7,171.3z"/>
		</g>
		<g>
			<polygon class="st3" points="850.5,176.3 841.4,168.7 849.7,170.9 868.7,160.1 			"/>
		</g>
		<g>
			<ellipse class="st33" cx="851.9" cy="209.4" rx="19.8" ry="12.8"/>
		</g>
		<g>
			<polygon class="st3" points="850.5,214.5 841.4,206.8 849.7,209.1 868.7,198.2 			"/>
		</g>
	</g>
</g>
</svg>
