<?xml version="1.0" encoding="utf-8"?>
<!-- Generator: Adobe Illustrator 23.0.1, SVG Export Plug-In . SVG Version: 6.00 Build 0)  -->
<svg version="1.1" id="Livello_1" xmlns="http://www.w3.org/2000/svg" xmlns:xlink="http://www.w3.org/1999/xlink" x="0px" y="0px"
	 viewBox="0 0 500 500" style="enable-background:new 0 0 500 500;" xml:space="preserve">
<style type="text/css">
	.st0{fill:#1AE5FF;}
	.st1{opacity:0.57;}
	.st2{fill:#FFFFFF;}
	.st3{fill:url(#SVGID_1_);}
	.st4{fill:url(#SVGID_2_);}
	.st5{fill:url(#SVGID_3_);}
	.st6{fill:url(#SVGID_4_);}
	.st7{fill:#F9FBFC;}
	.st8{fill:url(#SVGID_5_);}
	.st9{fill:#CFE3FF;}
	.st10{fill:url(#SVGID_6_);}
	.st11{fill:url(#SVGID_7_);}
	.st12{fill:#FF9D6F;}
	.st13{opacity:0.21;fill:url(#SVGID_8_);enable-background:new    ;}
	.st14{fill:#113C7A;}
	.st15{fill:url(#SVGID_9_);}
	.st16{fill:#FF7C40;}
	.st17{fill:url(#SVGID_10_);}
	.st18{fill:url(#SVGID_11_);}
	.st19{fill:#843837;}
	.st20{fill:#CFDAE4;}
	.st21{opacity:0.67;}
	.st22{opacity:0.53;}
	.st23{fill:url(#SVGID_12_);}
	.st24{opacity:0.46;}
	.st25{fill:url(#SVGID_13_);}
	.st26{opacity:0.21;}
	.st27{fill:url(#SVGID_14_);}
	.st28{fill:#5155D4;}
	.st29{fill:#343996;}
	.st30{fill:#FF3D9D;}
</style>
<g id="OBJECTS">
	<g>
		<g>
			<path class="st0" d="M378.5,333.8c1.6,1,2.9,3.2,2.9,5.1s-1.3,2.7-2.9,1.7l-26-15.6c-1.6-1-2.9-3.2-2.9-5.1s1.3-2.7,2.9-1.7
				L378.5,333.8z"/>
		</g>
		<g>
			<g class="st1">
				<path class="st0" d="M60.7,163.2c-1.7,1-3.1,3.6-3.1,5.7l0.2,76.9c0,4.9,3.3,6.9,7.4,4.5l44-26.4c1.7-1,3.1-3.6,3.1-5.7
					l-0.2-76.9c0-4.9-3.3-6.9-7.4-4.5L60.7,163.2z"/>
			</g>
			<g>
				<g>
					<g>
						<path class="st2" d="M67.5,191.1c-0.5,0.3-1,1.1-1,1.7v4.1c0,0.7,0.4,0.9,1,0.6l35.8-21.6c0.5-0.3,1-1.1,1-1.7v-4.1
							c0-0.7-0.4-0.9-1-0.6L67.5,191.1z"/>
					</g>
					<g>
						<path class="st2" d="M67.6,199.9c-0.5,0.3-1,1.1-1,1.7v4.1c0,0.7,0.4,0.9,1,0.6l35.8-21.6c0.5-0.3,1-1,1-1.7v-4.1
							c0-0.7-0.4-0.9-1-0.6L67.6,199.9z"/>
					</g>
				</g>
				
					<linearGradient id="SVGID_1_" gradientUnits="userSpaceOnUse" x1="79.3201" y1="293.7662" x2="95.3625" y2="293.7662" gradientTransform="matrix(1 0 0 -1 0 500)">
					<stop  offset="0" style="stop-color:#CC68FF"/>
					<stop  offset="1" style="stop-color:#FB8E31"/>
				</linearGradient>
				<path class="st3" d="M81.5,206.6c-1.2,0.8-2.2,2.6-2.2,4v0.9c0,1.4,1,2,2.2,1.3l11.6-7c1.2-0.8,2.2-2.6,2.2-4v-0.9
					c0-1.4-1-2-2.2-1.3L81.5,206.6z"/>
			</g>
		</g>
		<g>
			
				<linearGradient id="SVGID_2_" gradientUnits="userSpaceOnUse" x1="105.2327" y1="161.506" x2="151.8215" y2="507.7446" gradientTransform="matrix(-1 0 0 -1 443.1537 500)">
				<stop  offset="0" style="stop-color:#1AE5FF"/>
				<stop  offset="0.2589" style="stop-color:#64E8F9"/>
				<stop  offset="0.7043" style="stop-color:#EAEEEE"/>
			</linearGradient>
			<path class="st4" d="M212.7,35.4c-0.1-0.1-0.2-0.1-0.3-0.2c-0.1-0.1-0.3-0.2-0.4-0.2c-0.1-0.1-0.3-0.1-0.4-0.2
				c-0.1-0.1-0.3-0.1-0.4-0.2c-0.1-0.1-0.3-0.1-0.4-0.2h-0.1l0,0c-0.1,0-0.2-0.1-0.3-0.1c-0.1,0-0.3-0.1-0.4-0.1
				c-0.1,0-0.3-0.1-0.4-0.1c-0.2,0-0.3-0.1-0.5-0.1c-0.1,0-0.2,0-0.3,0l0,0h-0.1c-0.2,0-0.3,0-0.5,0s-0.4,0-0.5,0
				c-0.2,0-0.4,0-0.6,0.1l0,0l0,0c-0.2,0-0.5,0.1-0.7,0.2c-0.3,0.1-0.6,0.2-0.9,0.4l-7.4,4.5c0.5-0.3,1.1-0.6,1.6-0.7l0,0
				c0.5-0.1,1.2-0.1,1.8-0.1l0,0c0.6,0.1,1.3,0.2,2,0.4l0,0c0.7,0.2,1.5,0.6,2.2,1.1l200.5,121l7.4-4.5L212.7,35.4z"/>
			
				<linearGradient id="SVGID_3_" gradientUnits="userSpaceOnUse" x1="14.4896" y1="251.9183" x2="32.8567" y2="251.9183" gradientTransform="matrix(-1 0 0 -1 443.1537 500)">
				<stop  offset="0" style="stop-color:#5155D4"/>
				<stop  offset="1" style="stop-color:#45F7FF"/>
			</linearGradient>
			<path class="st5" d="M428.6,178.1c0-0.2,0-0.3,0-0.6c0-0.2,0-0.3,0-0.6s0-0.3-0.1-0.6c0-0.2,0-0.3-0.1-0.6l0,0l0,0
				c0-0.2-0.1-0.3-0.1-0.6s-0.1-0.4-0.1-0.6c0-0.2-0.1-0.4-0.1-0.6c0-0.2-0.1-0.4-0.1-0.6c0-0.1-0.1-0.3-0.1-0.4l0,0v-0.1
				c-0.1-0.2-0.1-0.4-0.2-0.6c-0.1-0.2-0.1-0.4-0.2-0.6c-0.1-0.2-0.1-0.3-0.2-0.6c-0.1-0.2-0.1-0.3-0.2-0.6
				c-0.1-0.1-0.1-0.3-0.2-0.4l0,0v-0.1c-0.1-0.2-0.2-0.3-0.2-0.6c-0.1-0.2-0.2-0.4-0.3-0.6c-0.1-0.2-0.2-0.4-0.3-0.7
				c-0.1-0.2-0.2-0.4-0.4-0.8c0,0,0-0.1-0.1-0.1l-0.1-0.1c-0.2-0.4-0.5-0.9-0.9-1.3c-0.2-0.3-0.4-0.7-0.7-1
				c-0.2-0.2-0.3-0.4-0.5-0.7c-0.1-0.2-0.3-0.3-0.4-0.6c-0.1-0.2-0.3-0.3-0.4-0.6c-0.1-0.2-0.3-0.3-0.4-0.4l-0.1-0.1l0,0
				c-0.1-0.1-0.2-0.2-0.3-0.3c-0.1-0.1-0.3-0.3-0.4-0.4c-0.2-0.1-0.3-0.3-0.5-0.4c-0.2-0.1-0.3-0.3-0.5-0.4
				c-0.1-0.1-0.2-0.1-0.2-0.2c0,0,0,0-0.1,0c-0.1,0-0.1-0.1-0.2-0.1c-0.2-0.1-0.3-0.2-0.5-0.3c-0.1-0.1-0.3-0.2-0.5-0.3
				c-0.1-0.1-0.3-0.2-0.4-0.3c-0.1-0.1-0.3-0.2-0.4-0.3c0,0-0.1,0-0.1-0.1l-7.4,4.5c0.7,0.4,1.5,1,2.2,1.6c0,0,0,0,0.1,0
				c0.7,0.6,1.4,1.2,2,2l0,0c1.3,1.4,2.5,3.1,3.4,4.9c0,0,0,0.1,0.1,0.1c0.4,0.9,1,1.8,1.3,2.7l0,0c0.4,0.9,0.7,1.9,1,2.8l0,0
				c0.3,1,0.5,1.9,0.6,2.9l0,0c0.1,1,0.2,1.9,0.2,2.8l-0.4,145.9c0,0.9-0.1,1.7-0.2,2.5c0,0,0,0,0,0.1c-0.1,0.8-0.3,1.4-0.6,2l0,0
				c-0.2,0.6-0.5,0.9-0.9,1.3c-0.1,0.1-0.2,0.2-0.3,0.4c-0.3,0.4-0.7,0.8-1.2,1l7.4-4.5c0.4-0.2,0.9-0.7,1.2-1
				c0.1-0.1,0.2-0.2,0.3-0.4c0.1-0.2,0.3-0.3,0.4-0.6s0.3-0.6,0.4-0.8l0,0l0,0c0.1-0.2,0.2-0.3,0.2-0.6c0.1-0.2,0.1-0.4,0.2-0.6
				c0.1-0.2,0.1-0.3,0.1-0.6c0-0.1,0-0.2,0-0.2s0,0,0-0.1s0-0.1,0-0.2c0-0.2,0.1-0.3,0.1-0.6s0-0.3,0.1-0.6c0-0.2,0-0.3,0-0.6
				s0-0.3,0-0.6l0,0l0.4-145.9C428.6,178.4,428.6,178.2,428.6,178.1z"/>
			<g>
				
					<linearGradient id="SVGID_4_" gradientUnits="userSpaceOnUse" x1="193.8785" y1="312.2662" x2="421.3596" y2="312.2662" gradientTransform="matrix(1 0 0 -1 0 500)">
					<stop  offset="0" style="stop-color:#7F5EFF"/>
					<stop  offset="0.2423" style="stop-color:#8665FF"/>
					<stop  offset="0.5952" style="stop-color:#9978FF"/>
					<stop  offset="0.94" style="stop-color:#B391FF"/>
				</linearGradient>
				<path class="st6" d="M410.3,163.2c6.1,3.7,11,12.6,11,19.9L420.9,329c0,7.4-5,10.3-11.1,6.6L204.9,212.3
					c-6.1-3.7-11-12.6-11-19.9l0.4-145.9c0-7.4,5-10.3,11.1-6.6L410.3,163.2z"/>
			</g>
			<g>
				<path class="st7" d="M397.6,162.8c5.7,3.3,10.2,11.6,10.2,18.3l-0.3,134.2c0,6.7-4.6,9.5-10.2,6L218.6,213.9
					c-5.7-3.3-10.2-11.6-10.2-18.3l0.3-134.2c0-6.7,4.6-9.5,10.2-6L397.6,162.8z"/>
			</g>
			<path class="st7" d="M413.6,279.4L413.6,279.4c-0.9,0-1.5-0.7-1.5-1.6V231c0-0.9,0.6-1.6,1.5-1.6l0,0c0.9,0,1.5,0.7,1.5,1.6v46.8
				C415,278.7,414.4,279.4,413.6,279.4z"/>
			<g>
				<path class="st2" d="M200.8,129.7c1.7,1,3.2,3.6,3.2,5.7s-1.4,2.9-3.2,1.9c-1.7-1-3.2-3.6-3.2-5.7
					C197.6,129.5,199.1,128.7,200.8,129.7z"/>
			</g>
		</g>
		<g>
			
				<linearGradient id="SVGID_5_" gradientUnits="userSpaceOnUse" x1="302.8157" y1="408.96" x2="314.941" y2="254.6387" gradientTransform="matrix(1 0 0 -1 0 500)">
				<stop  offset="0" style="stop-color:#5155D4"/>
				<stop  offset="1" style="stop-color:#45F7FF"/>
			</linearGradient>
			<path class="st8" d="M323.7,149.6c0.5,1.9,1,3.9,1.2,5.8c0.1,1.1,0.2,2.2,0.2,3.3c0,0.3,0,0.7,0,1v0.1c0,0.3,0,0.6-0.1,0.9
				c0,0.1,0,0.1,0,0.2c0,0.3-0.1,0.6-0.1,0.9c-0.1,0.3-0.1,0.7-0.1,0.9c-0.1,0.3-0.1,0.7-0.2,0.9v0.1c-0.1,0.2-0.1,0.6-0.2,0.8v0.1
				c-0.1,0.2-0.2,0.4-0.2,0.8c-0.1,0.3-0.2,0.6-0.3,0.8c-0.1,0.3-0.2,0.6-0.3,0.8c0,0,0,0.1-0.1,0.1c-0.1,0.2-0.2,0.4-0.3,0.6
				c0,0,0,0.1-0.1,0.1c-0.1,0.2-0.2,0.4-0.4,0.6c-0.1,0.2-0.3,0.3-0.4,0.6c0,0,0,0-0.1,0.1s-0.3,0.3-0.4,0.4l-0.1,0.1
				c-0.1,0.1-0.3,0.3-0.4,0.4c0,0,0,0-0.1,0.1s-0.3,0.2-0.5,0.3c-0.2,0.1-0.4,0.2-0.5,0.3c0,0-0.1,0-0.1,0.1
				c-0.2,0.1-0.3,0.2-0.5,0.3h-0.1c-0.2,0.1-0.3,0.2-0.5,0.2c-0.1,0.1-0.2,0.1-0.3,0.1c-0.1-7.1-4.8-15.7-10.8-19.3
				c-6-3.6-10.8-0.7-10.9,6.5c0,0,0.2,0.3,0.5,0.8c-0.1-0.2-0.3-0.4-0.4-0.7c-0.2-0.4-0.4-0.7-0.6-1l-0.1-0.1
				c-0.2-0.3-0.4-0.6-0.5-0.9c0-0.1-0.1-0.1-0.1-0.2c-0.2-0.3-0.3-0.7-0.5-1c-0.2-0.3-0.3-0.7-0.5-1c0-0.1-0.1-0.1-0.1-0.2
				c-0.2-0.3-0.3-0.7-0.5-1c0-0.1-0.1-0.1-0.1-0.2c-0.1-0.3-0.3-0.7-0.4-0.9c-0.2-0.4-0.3-0.8-0.4-1.1c0-0.1-0.1-0.1-0.1-0.2
				c-0.1-0.3-0.3-0.7-0.4-1c-0.2-0.4-0.3-0.8-0.4-1.1c0,0,0-0.1-0.1-0.1c-0.1-0.3-0.2-0.7-0.3-1c0-0.1,0-0.1-0.1-0.2
				c-0.2-0.7-0.4-1.3-0.6-2.1c0-0.1,0-0.1,0-0.2c-0.1-0.3-0.2-0.7-0.2-1c0-0.1,0-0.1,0-0.2c-0.1-0.3-0.1-0.7-0.2-1
				c-0.1-0.4-0.1-0.8-0.2-1.1c0-0.1,0-0.1,0-0.2c0-0.3-0.1-0.7-0.1-1c0-0.4-0.1-0.8-0.1-1c0-0.1,0-0.1,0-0.2c0-0.3,0-0.7-0.1-1
				c0-0.1,0-0.1,0-0.2c0-0.3,0-0.7,0-1c0-1.1,0.1-2.1,0.2-3.1c0.2-1.7,0.6-3.1,1.2-4.3c0.1-0.2,0.2-0.4,0.3-0.8
				c2.9-5.3,9-6.7,16-2.5c6.3,3.8,11.9,11.1,15,18.9c0.2,0.6,0.4,1,0.6,1.6C323.3,148,323.5,148.8,323.7,149.6z M307.8,150
				c3.6,2.2,6.6,0.4,6.6-3.9s-2.9-9.7-6.6-11.9c-3.6-2.2-6.6-0.4-6.6,3.9C301.1,142.5,304,147.9,307.8,150"/>
			<g>
				<g>
					<path class="st9" d="M351.6,208c1.4,0.8,2.5,2.8,2.5,4.5v10.8c0,1.7-1.1,2.3-2.5,1.4l-95.2-57.3c-1.4-0.8-2.5-2.8-2.5-4.5
						v-10.8c0-1.7,1.1-2.3,2.5-1.4L351.6,208z"/>
				</g>
				<g>
					<path class="st9" d="M351.5,231.6c1.4,0.8,2.5,2.8,2.5,4.5v10.8c0,1.7-1.1,2.3-2.5,1.4L256.3,191c-1.4-0.8-2.5-2.8-2.5-4.5
						v-10.8c0-1.7,1.1-2.3,2.5-1.4L351.5,231.6z"/>
				</g>
			</g>
		</g>
		
			<linearGradient id="SVGID_6_" gradientUnits="userSpaceOnUse" x1="296.9776" y1="291.3967" x2="296.9776" y2="237.5338" gradientTransform="matrix(1 0 0 -1 0 500)">
			<stop  offset="0" style="stop-color:#7F5EFF"/>
			<stop  offset="0.2423" style="stop-color:#8665FF"/>
			<stop  offset="0.5952" style="stop-color:#9978FF"/>
			<stop  offset="0.94" style="stop-color:#B391FF"/>
		</linearGradient>
		<path class="st10" d="M309.1,236.3c2.6,1.6,4.6,5.2,4.6,8.4v2c0,3-2,4.3-4.6,2.8l-24.2-14.6c-2.6-1.6-4.6-5.2-4.6-8.4v-2
			c0-3,2.1-4.2,4.6-2.8L309.1,236.3z"/>
		<g>
			
				<linearGradient id="SVGID_7_" gradientUnits="userSpaceOnUse" x1="544.1813" y1="234.6407" x2="576.3552" y2="262.6842" gradientTransform="matrix(-1 0 0 -1 779.0993 500)">
				<stop  offset="0" style="stop-color:#1AE5FF"/>
				<stop  offset="0.2589" style="stop-color:#64E8F9"/>
				<stop  offset="0.7043" style="stop-color:#EAEEEE"/>
			</linearGradient>
			<path class="st11" d="M221.3,234.9c0,0-8.2,4.9-9.5,27.5c1.1,4.1,7.4,6.4,12.2,3.1C228.9,262.2,223.8,238.7,221.3,234.9z"/>
			<path class="st12" d="M263.1,259.2c0,0,18.8-8.7,21.3-10.3c2.6-1.4,4.4-6.9,5.3-8c1-1.1,5.2-3.8,5-2.7c-0.1,1.1-2.4,3.3-2.4,3.3
				s1.6,2.8,1.9,4.6c0.3,1.8-2,5.5-3.3,6.5c-1.3,1-4.3,1.3-4.3,1.3s-15.3,10.7-17.9,10.9C266.4,265,262.8,263.6,263.1,259.2z"/>
			
				<linearGradient id="SVGID_8_" gradientUnits="userSpaceOnUse" x1="108.3572" y1="128.8821" x2="184.3748" y2="128.8821" gradientTransform="matrix(1 0 0 -1 94.1842 500)">
				<stop  offset="0" style="stop-color:#5155D4"/>
				<stop  offset="1" style="stop-color:#45F7FF"/>
			</linearGradient>
			<ellipse class="st13" cx="240.5" cy="371.1" rx="38" ry="23.5"/>
			<path class="st14" d="M224.8,366c0,0-0.5,3.7,0.2,5.2c0.6,1.3,3.2,2.3,5,1c1.8-1.3,4.9-4.8,4.9-4.8s5.2-2.9,5.7-4.5
				c0.5-1.6-1.3-2.9-2.8-2.6c-1.5,0.3-5.7,3-7.7,3S225.4,364.1,224.8,366z"/>
			<path class="st14" d="M219.4,286.5c0,0,4.6,78.3,5.1,80.6c0.5,2.2,6.5,3.6,7.6,0c0.7-2.3,2.5-74.8,2.5-74.8L219.4,286.5z"/>
			<path class="st14" d="M239.9,370.7c-0.2,0.2-0.4,0.6-0.4,0.9c0,1.1,0,3.5,0.6,4.5c0.7,1.2,3.2,2.6,5.7,1.1
				c2.1-1.2,8.6-6.2,9.9-7.4c0.7-0.7,1.2-1.6,1.3-2.1c0.1-0.6-0.1-1.2-0.6-1.4c-1-0.4-2.5-1-3.9-0.4c-2.1,0.8-4.8,3.2-7.8,3
				C242.4,368.7,240.6,370,239.9,370.7z"/>
			<path class="st14" d="M249.9,287.4c-0.3-3.2-4.1-4.3-7.5-3.2c-6.5-0.3-16.8-0.1-17.1,5.2c-0.5,7.9,3,13.5,6.4,17.3
				c2.6,2.8,4.2,8.2,4.9,10.8c0.6,20.7,1.9,50,2.8,52.9c1.3,4.6,7.9,4.3,8.1-0.1C248.9,355.5,249.9,287.4,249.9,287.4z"/>
			
				<linearGradient id="SVGID_9_" gradientUnits="userSpaceOnUse" x1="548.5518" y1="160.1248" x2="541.2523" y2="312.5371" gradientTransform="matrix(-1 0 0 -1 779.0993 500)">
				<stop  offset="0" style="stop-color:#1AE5FF"/>
				<stop  offset="0.2589" style="stop-color:#64E8F9"/>
				<stop  offset="0.7043" style="stop-color:#EAEEEE"/>
			</linearGradient>
			<path class="st15" d="M249.9,289.9c-0.7,4-11.8,6-18.2,4.9c-6.4-1.1-13.4-4.3-13.2-12.1c0,0-1-31.1-1-37.1
				c0-6.1,3.6-10.6,3.6-10.6s3.6-4.2,14.9-1.9c0,0,9.2,2.1,13.5,9.2c0,0,2.9,7.8,1.9,24.1C250.7,282.6,249.9,289.9,249.9,289.9z"/>
			<path class="st16" d="M227.4,224.5c0,0,1,5.9,0,8.7c-0.2,1.3,5.6,5.9,10.6,4.8c2.9-0.7,2.8-2.2,2.8-2.2s-2.5-4.2-2.1-8.4
				C238.9,223.2,230.8,223.6,227.4,224.5z"/>
			<g>
				<path class="st12" d="M246.4,212.4c0,7.7-6,14-13.5,14c-7.4,0-13.5-6.2-13.5-14c0-7.7,6-14,13.5-14
					C240.4,198.5,246.4,204.7,246.4,212.4z"/>
				<path class="st12" d="M246.4,213.4c0,0,0.2,14-2.8,16.8c-2.9,2.8-7.4-2.7-14.7-4.5c-7.2-1.9,5.9-16.5,5.9-16.5L246.4,213.4z"/>
			</g>
			<g>
				
					<linearGradient id="SVGID_10_" gradientUnits="userSpaceOnUse" x1="526.4946" y1="162.792" x2="519.1884" y2="315.3425" gradientTransform="matrix(-1 0 0 -1 779.0993 500)">
					<stop  offset="0" style="stop-color:#1AE5FF"/>
					<stop  offset="0.2589" style="stop-color:#64E8F9"/>
					<stop  offset="0.7043" style="stop-color:#EAEEEE"/>
				</linearGradient>
				<path class="st17" d="M245.3,238.9c0,0,3-0.9,6.3,4.1c3.3,5,8.2,11.6,10.5,12.7c2.4,1.1,5.5-1.1,6.7-1.1s4.6,6.1,3.3,9.3
					c-1.3,3.1-9.4,4.6-11.6,4.6s-15.7-8.6-17.6-13.4C241.2,250.3,238.2,239.2,245.3,238.9z"/>
				
					<linearGradient id="SVGID_11_" gradientUnits="userSpaceOnUse" x1="510.3362" y1="217.8912" x2="506.5406" y2="246.7972" gradientTransform="matrix(-1 0 0 -1 779.0993 500)">
					<stop  offset="0" style="stop-color:#1AE5FF"/>
					<stop  offset="0.2589" style="stop-color:#64E8F9"/>
					<stop  offset="0.7043" style="stop-color:#EAEEEE"/>
				</linearGradient>
				<path class="st18" d="M266.9,255.4c0,0,0.9-2.5,3.7-2.7c3-0.2,6.3,5.7,6.1,9c-0.2,3.2-4.8,5-5.9,4.1
					C269.9,265,272.1,262.8,266.9,255.4z"/>
			</g>
			<path class="st19" d="M241,200.6c0,0,4.8,1.1,6.3,8.8c-0.6,3.2-5,0.7-6.7,5s-2.8,5.7-2.8,5.7l-1.1-0.4c0,0,0-3.5-1.5-3.5
				s-1.9,4.1-1.1,5.9c0.9,1.8,2.8,2.7,2.8,2.7s-2.1,3.7-3.1,4.1c-1.1,0.4-4.8-0.4-6.3-1.1c-1.5-0.7-4.2-3.7-6.3-7.2
				c-2.1-3.5-4-9.6-2.8-13.8c1.3-4.1,4.2-5.2,4.2-5.2s1.7-2.5,4.6-3.5C230.3,196.9,235.8,196.5,241,200.6z"/>
			<path class="st20" d="M243.3,235.9l-3.5-2c0,0-9-0.9-12.2-3.1l-1.7,2.5c0,0,2.2,4.6,8,5.1c5.8,0.6,8.4-1.8,8.4-1.8L243.3,235.9z"
				/>
		</g>
		<g class="st21">
			<g>
				<path class="st0" d="M401.4,124.9v4.1c0,2.5-2.6,3.9-4.5,2.7l-18.6-11.3c-1-0.6-1.5-1.6-1.5-2.7v-4.1c0-2.5,2.6-3.9,4.5-2.7
					l18.6,11.3C400.7,122.8,401.4,123.8,401.4,124.9z"/>
			</g>
			<g>
				<path class="st0" d="M460.1,180.7v4.1c0,2.5-2.6,3.9-4.5,2.7l-77.3-46.6c-1-0.6-1.5-1.6-1.5-2.7v-4.1c0-2.5,2.6-3.9,4.5-2.7
					l77.3,46.6C459.5,178.5,460.1,179.5,460.1,180.7z"/>
			</g>
			<g class="st22">
				<path class="st0" d="M428.1,202.4v4.1c0,2.5-2.6,3.9-4.5,2.7l-45.5-27.3c-1-0.6-1.5-1.6-1.5-2.7v-4.1c0-2.5,2.6-3.9,4.5-2.7
					l45.5,27.3C427.5,200.2,428.1,201.3,428.1,202.4z"/>
			</g>
			<g>
				<path class="st0" d="M448,193.9v4.1c0,2.5-2.6,3.9-4.5,2.7l-65.3-39.3c-1-0.6-1.5-1.6-1.5-2.7v-4.1c0-2.5,2.6-3.9,4.5-2.7
					l65.3,39.3C447.5,191.7,448,192.8,448,193.9z"/>
			</g>
		</g>
		<g class="st21">
			<g>
				<path class="st0" d="M91,95.7v2.1c0,1.2,1.3,2,2.4,1.4l9.5-5.8c0.4-0.3,0.7-0.8,0.7-1.4v-2.1c0-1.2-1.3-2-2.4-1.4l-9.5,5.8
					C91.3,94.6,91,95.2,91,95.7z"/>
			</g>
			<g>
				<path class="st0" d="M60.7,124.4v2.1c0,1.2,1.3,2,2.4,1.4l39.8-24c0.5-0.3,0.7-0.8,0.7-1.4v-2.1c0-1.2-1.3-2-2.4-1.4L61.6,123
					C61,123.3,60.7,123.8,60.7,124.4z"/>
			</g>
			<g class="st22">
				<path class="st0" d="M77.2,135.5v2.1c0,1.2,1.3,2,2.4,1.4l23.4-14c0.4-0.3,0.7-0.8,0.7-1.4v-2.1c0-1.2-1.3-2-2.4-1.4l-23.3,14.2
					C77.5,134.4,77.2,135,77.2,135.5z"/>
			</g>
			<g>
				<path class="st0" d="M66.9,131.2v2.1c0,1.2,1.3,2,2.4,1.4l33.6-20.3c0.5-0.3,0.7-0.8,0.7-1.4v-2.1c0-1.2-1.3-2-2.4-1.4
					l-33.6,20.3C67.3,130.1,66.9,130.6,66.9,131.2z"/>
			</g>
		</g>
		<g>
			
				<linearGradient id="SVGID_12_" gradientUnits="userSpaceOnUse" x1="231.1794" y1="323.0635" x2="261.7379" y2="381.3157" gradientTransform="matrix(1 0 0 -1 0 500)">
				<stop  offset="0" style="stop-color:#CC68FF"/>
				<stop  offset="1" style="stop-color:#FB8E31"/>
			</linearGradient>
			<path class="st23" d="M250.9,170c0,9.3-7.2,16.7-16,16.7c-8.9,0-16-7.5-16-16.7s7.2-16.7,16-16.7
				C243.7,153.2,250.9,160.7,250.9,170z"/>
			<polygon class="st2" points="233.4,177.6 226.8,172.5 229.3,169.1 232.7,171.7 239.8,162.4 243,165.1 			"/>
		</g>
		<g class="st24">
			<path class="st0" d="M214,96c3.7,2.2,6.8,7.8,6.8,12.4s-3.1,6.4-6.8,4.1L151.7,75c-3.7-2.2-6.8-7.8-6.8-12.4s3.1-6.4,6.8-4.1
				L214,96z"/>
		</g>
		<g class="st24">
			<path class="st0" d="M450.1,294.4c2.7,1.6,4.7,5.5,4.7,8.6s-2.1,4.5-4.8,2.9l-43.3-26.1c-2.7-1.6-4.7-5.5-4.7-8.6
				c0-3.1,2.1-4.5,4.8-2.8L450.1,294.4z"/>
		</g>
		<g>
			
				<linearGradient id="SVGID_13_" gradientUnits="userSpaceOnUse" x1="528.6177" y1="216.374" x2="587.4042" y2="269.2395" gradientTransform="matrix(1 0 0 -1 -454.1494 500)">
				<stop  offset="0" style="stop-color:#92F3FF"/>
				<stop  offset="1" style="stop-color:#FFFFFF"/>
			</linearGradient>
			<path class="st25" d="M151.6,247.5c1.6,1,1.6,2.6,0,3.5l-53.2,32.2c-1.6,1-4.2,1-5.8,0l-32.8-19.7c-1.6-1-1.6-2.6,0-3.5
				l53.2-32.2c1.6-1,4.2-1,5.8,0L151.6,247.5z"/>
		</g>
		<g>
			<g class="st26">
				
					<linearGradient id="SVGID_14_" gradientUnits="userSpaceOnUse" x1="105.0168" y1="160.3238" x2="183.0636" y2="160.3238" gradientTransform="matrix(1 0 0 -1 0 500)">
					<stop  offset="0" style="stop-color:#5155D4"/>
					<stop  offset="1" style="stop-color:#45F7FF"/>
				</linearGradient>
				<path class="st27" d="M116.6,323c-15.3,9.3-15.4,24.1-0.2,33.3c15.2,9.2,39.9,9.2,55.2,0c15.3-9.3,15.4-24.1,0.2-33.3
					C156.6,313.8,131.8,313.8,116.6,323z"/>
			</g>
			<g>
				<path class="st28" d="M135.2,344c0,0-7.1,1.9-9.7,1.9c-2.8,0,0,2.9,4.6,3.2c4.6,0.3,8.9,0.7,9.7-0.7c1-1.2-0.2-4.9-0.2-4.9
					L135.2,344z"/>
				<path class="st28" d="M154.7,337.2c0,0-7.1,1.9-9.7,1.9c-2.8,0,0,2.9,4.6,3.2s8.9,0.7,9.7-0.7c1-1.2-0.2-4.9-0.2-4.9
					L154.7,337.2z"/>
				<path class="st29" d="M156.2,258.1c0,0,2.6,72.9,3,80.5c0,0-2,1.7-4.5,0.9c0,0-8.2-47.8-9.5-60.1c-1.2-12.4-3.2-16.6-3.2-16.6
					L156.2,258.1z"/>
				<path class="st29" d="M130.1,262.5c0,0-2.5,42,4.9,82.8c0,0,2.5,1.2,4.5-1.7c0,0,4.5-71.3,5.7-81.6
					C146.5,251.8,133.5,260.3,130.1,262.5z"/>
				<path class="st29" d="M141.2,294.7c0,0,4.1-11.9,7.7-18.3c3.6-6.4,2.9-15.7,2.9-15.7l-13.9,1.2L141.2,294.7z"/>
				<path class="st12" d="M127,220.8l-12.1-6.1c0,0-3.6-3.8-4.6-4.6c-1-0.8-7-2.3-8.1-2.1c-1.1,0.2-3.1,1.9-2.6,2.3
					c0.5,0.3,5.7,3.2,5.9,4.3c0.2,1.1-1.8,2.7-1.1,3.5c0.7,0.8,2.4-0.8,3.5-0.8c1.1,0,4.2,1.6,4.2,1.6l11.8,7.1L127,220.8z"/>
				<g>
					<path class="st30" d="M152.9,208.5c0,0-2.2-2.6-5.9,2.3c-3.6,4.9-6.7,12.1-11.9,11.5c-5.1-0.7-13.5-4.9-13.5-4.9
						s-3.6,2.6-3.1,6.4c0,0,11.9,9.1,19.8,8.7c7.9-0.4,16.5-8.9,18.4-14.8C158.6,211.8,152.9,208.5,152.9,208.5z"/>
				</g>
				<path class="st30" d="M128.4,262.3c0.7,3.8,11.1,5.7,17.2,4.7c6.1-1,12.6-4.1,12.4-11.5c0,0,1-29.4,1-35.2c0-5.8-3.5-10-3.5-10
					s-3.4-4-14.1-1.8c0,0-8.8,2-12.7,8.7c0,0-2.8,7.4-1.8,22.8C127.7,255.4,128.4,262.3,128.4,262.3z"/>
				<path class="st16" d="M149.7,200.3c0,0-1,5.6,0,8.2c0.1,1.3-5.2,5.6-10.1,4.5c-2.8-0.7-2.7-2.1-2.7-2.1s2.4-4,2-7.9
					C138.8,199.2,146.5,199.5,149.7,200.3z"/>
				<g>
					<path class="st12" d="M131.7,189c0,7.4,5.7,13.3,12.7,13.3c7.1,0,12.7-5.9,12.7-13.3c0-7.4-5.7-13.3-12.7-13.3
						S131.7,181.7,131.7,189z"/>
					<path class="st12" d="M131.7,189.9c0,0-0.1,13.3,2.7,15.9c2.8,2.7,7.1-2.6,13.9-4.1c6.8-1.8-5.6-15.6-5.6-15.6L131.7,189.9z"/>
				</g>
				<g>
					<path class="st12" d="M115.9,233.4c0,0-17.9-8.2-20.2-9.7c-2.4-1.4-4.2-6.6-5.1-7.7c-0.9-1.1-4.9-3.6-4.8-2.5s2.2,3.1,2.2,3.1
						s-1.5,2.7-1.8,4.3c-0.3,1.7,1.9,5.1,3.1,6.1c1.2,0.9,4.1,1.2,4.1,1.2s14.5,10.1,16.9,10.3C112.8,238.8,116.2,237.4,115.9,233.4
						z"/>
					<path class="st30" d="M131.8,216.5c0,0-2.2-2.6-5.9,2.3c-3.6,4.9-6.7,12.1-11.9,11.5c-5.1-0.7-13.5-4.9-13.5-4.9
						s-3.6,2.6-3.1,6.4c0,0,11.9,9.1,19.8,8.7c7.9-0.4,16.5-8.9,18.4-14.8C137.5,219.7,131.8,216.5,131.8,216.5z"/>
				</g>
				<g>
					<path class="st19" d="M136.8,177.8c0,0-4.6,1-6,8.2c0.6,3.1,4.8,0.7,6.4,4.8c1.6,4.1,2.6,5.3,2.6,5.3l1-0.4c0,0,0-3.3,1.4-3.3
						c1.4,0,1.8,3.9,1,5.6c-0.7,1.7-2.6,2.5-2.6,2.5s2,3.6,3,3.9c1,0.4,4.6-0.4,6-1c1.4-0.7,4-3.6,6-6.8c2-3.3,3.7-9.1,2.6-13
						c-1.2-3.9-4-5-4-5s-1.6-2.2-4.4-3.3C146.9,174.3,141.8,173.9,136.8,177.8z"/>
					<path class="st19" d="M135.8,186.6c0,0,3.1,3.8,1.5,9.3c-1.5,5.5,0.6,5.5,2.8,12.5c2.1,7-4,15.3,1.8,25.5
						c5.8,10.1,21.4,8.9,28.4-1.2s-4-17.5-4.3-26.7c-0.3-9.3,6.7-14.7-1.2-21.1c-7.9-6.4-11.3-13.4-21.1-10.5
						C134,177,131.5,182.1,135.8,186.6z"/>
				</g>
			</g>
		</g>
	</g>
</g>
<g id="DESIGNED_BY_FREEPIK">
</g>
</svg>
